<?xml version="1.0" standalone="no"?>
<!DOCTYPE svg PUBLIC "-//W3C//DTD SVG 1.1//EN" "http://www.w3.org/Graphics/SVG/1.1/DTD/svg11.dtd" >
<svg>
<metadata>
Created by FontForge 20110222 at Tue Jun 10 18:58:59 2014
 By Orthosie Webhosting
Copyright (c) 2010 by Ekaluck Peanpanawate. All rights reserved.
</metadata>
<defs>
<font id="Kondolar-Regular" horiz-adv-x="400" >
  <font-face 
    font-family="Kondolar-Regular"
    font-weight="400"
    font-stretch="normal"
    units-per-em="1000"
    panose-1="2 0 5 3 4 0 0 2 0 4"
    ascent="800"
    descent="-200"
    x-height="480"
    cap-height="680"
    bbox="-47 -338 1257 990"
    underline-thickness="50"
    underline-position="-50"
    unicode-range="U+0020-FB04"
  />
<missing-glyph horiz-adv-x="500" 
 />
    <glyph glyph-name="T_h" unicode="Th" horiz-adv-x="1023" 
d="M999 0h-131v321q0 31 -13.5 51.5t-35 27.5t-32.5 9t-22 2q-81 0 -148 -55v-254q0 -26 7 -35t26 -13l27 -5v-49h-202v49l33 6q17 3 22 11.5t5 35.5v508h-222l-2 -37v-472q0 -24 8.5 -33t27.5 -13l23 -5v-50h-203v50l23 5q19 4 27.5 13t8.5 33v472l-2 37h-92q-28 0 -38 -7
t-15 -25l-6 -21h-48v123h510l34 20h48v-277q26 29 66.5 45.5t84.5 16.5q15 0 26 -1t35.5 -5t43 -14.5t37.5 -27.5t29.5 -46.5t10.5 -68.5v-220q0 -27 4 -35.5t23 -12.5l22 -5v-49z" />
    <glyph glyph-name="T_h.caron" unicode="&#x164;h" horiz-adv-x="1023" 
d="M999 0h-131v321q0 31 -13.5 51.5t-35 27.5t-32.5 9t-22 2q-81 0 -148 -55v-254q0 -26 7 -35t26 -13l27 -5v-49h-202v49l33 6q17 3 22 11.5t5 35.5v508h-222l-2 -37v-472q0 -24 8.5 -33t27.5 -13l23 -5v-50h-203v50l23 5q19 4 27.5 13t8.5 33v472l-2 37h-92q-28 0 -38 -7
t-15 -25l-6 -21h-48v123h510l34 20h48v-277q26 29 66.5 45.5t84.5 16.5q15 0 26 -1t35.5 -5t43 -14.5t37.5 -27.5t29.5 -46.5t10.5 -68.5v-220q0 -27 4 -35.5t23 -12.5l22 -5v-49zM306 735h-75l-120 120v25h75l82 -91l83 91h75v-25z" />
    <glyph glyph-name="T_h.commaaccent" unicode="&#x162;h" horiz-adv-x="1023" 
d="M999 0h-131v321q0 31 -13.5 51.5t-35 27.5t-32.5 9t-22 2q-81 0 -148 -55v-254q0 -26 7 -35t26 -13l27 -5v-49h-202v49l33 6q17 3 22 11.5t5 35.5v508h-222l-2 -37v-472q0 -24 8.5 -33t27.5 -13l23 -5v-50h-203v50l23 5q19 4 27.5 13t8.5 33v472l-2 37h-92q-28 0 -38 -7
t-15 -25l-6 -21h-48v123h510l34 20h48v-277q26 29 66.5 45.5t84.5 16.5q15 0 26 -1t35.5 -5t43 -14.5t37.5 -27.5t29.5 -46.5t10.5 -68.5v-220q0 -27 4 -35.5t23 -12.5l22 -5v-49zM272 -275h-56l40 126q0 18 -10 19l-23 3v77h99v-95z" />
    <glyph glyph-name="f_b" unicode="fb" horiz-adv-x="909" 
d="M854 305v-133q0 -51 -20 -89t-51 -57t-62 -28t-61 -9q-46 0 -82.5 14t-49.5 28l-14 14l-19 -45h-61v593h-32q-2 5 -7.5 12.5t-29.5 20t-57 12.5q-64 0 -89 -34t-25 -109v-15h137v-65h-137v-313q0 -26 7 -36t26 -12l37 -5v-49h-212v49l33 6q17 3 22 11.5t5 35.5v313h-87
v65h87v14q0 105 50.5 158t140.5 53q36 0 63.5 -6.5t39.5 -13t30 -19.5l38 34h42v-257q49 45 141 45q26 0 52 -5.5t53 -19t47 -33.5t32.5 -52.5t12.5 -72.5zM772 178v120q0 120 -128 120q-79 0 -128 -49v-246q2 -3 5.5 -7t15.5 -15t26 -19.5t36 -15.5t45 -7q22 0 42 4.5
t40.5 16.5t33 37t12.5 61z" />
    <glyph glyph-name="f_f_b" unicode="ffb" horiz-adv-x="1247" 
d="M1192 305v-133q0 -51 -20 -89t-51 -57t-62 -28t-61 -9q-46 0 -82.5 14t-49.5 28l-14 14l-19 -45h-61v593h-32q-1 2 -3 5t-9.5 10.5t-17 13.5t-27 11t-38.5 5q-61 0 -87 -31.5t-26 -100.5v-26h137v-65h-137v-313q0 -26 7 -36t26 -12l37 -5v-49h-212v49l33 6q17 3 22 11.5
t5 35.5v313h-256v-313q0 -26 7 -36t26 -12l37 -5v-49h-212v49l33 6q17 3 22 11.5t5 35.5v313h-87v65h87v54q0 81 53 123.5t126 42.5q70 0 121 -21l-8 -68h-37q-30 18 -71 18q-50 0 -76 -24.5t-26 -69.5v-55h256v25q0 99 51.5 149.5t138.5 50.5q36 0 64 -7t39.5 -13t30.5 -19
l38 34h42v-257q49 45 141 45q26 0 52 -5.5t53 -19t47 -33.5t32.5 -52.5t12.5 -72.5zM1110 178v120q0 120 -128 120q-79 0 -128 -49v-246q2 -3 5.5 -7t15.5 -15t26 -19.5t36 -15.5t45 -7q22 0 42 4.5t40.5 16.5t33 37t12.5 61z" />
    <glyph glyph-name="f_f_h" unicode="ffh" horiz-adv-x="1281" 
d="M112 480v54q0 81 53 123.5t126 42.5q70 0 121 -21l-8 -68h-37q-30 18 -71 18q-50 0 -76 -24.5t-26 -69.5v-55h256v14q0 104 55 157.5t146 53.5q83 0 144 -39l38 34h42v-277q26 29 66.5 45.5t84.5 16.5q14 0 25.5 -1t36 -5t43 -14.5t37.5 -27.5t29.5 -46.5t10.5 -68.5
v-220q0 -27 4 -35.5t23 -12.5l22 -5v-49h-131v321q0 31 -13.5 51.5t-35 27.5t-32.5 9t-22 2q-81 0 -148 -55v-254q0 -26 7 -35t26 -13l27 -5v-49h-202v49l33 6q17 3 22 11.5t5 35.5v491h-32q-3 5 -10.5 12.5t-34.5 20t-60 12.5q-65 0 -94.5 -35t-29.5 -108v-15h137v-65h-137
v-313q0 -26 7 -36t26 -12l37 -5v-49h-212v49l33 6q17 3 22 11.5t5 35.5v313h-256v-313q0 -26 7 -36t26 -12l37 -5v-49h-212v49l33 6q17 3 22 11.5t5 35.5v313h-87v65h87z" />
    <glyph glyph-name="f_f_j" unicode="ffj" horiz-adv-x="935" 
d="M686 -191h-12l-43 22v49h55q39 0 60.5 22t21.5 63v450h-246v-313q0 -26 7 -36t26 -12l37 -5v-49h-212v49l33 6q17 3 22 11.5t5 35.5v313h-246v-313q0 -26 7 -36t26 -12l37 -5v-49h-212v49l33 6q17 3 22 11.5t5 35.5v313h-87v65h87v74q0 73 40.5 109.5t108.5 36.5
q60 0 111 -21l-8 -68h-37q-31 18 -61 18q-41 0 -56.5 -18.5t-15.5 -55.5v-75h246v74q0 73 40.5 109.5t108.5 36.5q60 0 111 -21l-8 -68h-37q-31 18 -61 18q-41 0 -56.5 -18.5t-15.5 -55.5v-75h328v-515q0 -82 -40 -119t-124 -37zM850 560h-93v93h93v-93z" />
    <glyph glyph-name="f_f_k" unicode="ffk" horiz-adv-x="1307" 
d="M1227 0h-130l-133 226l-89 -87v-139h-142v49l33 6q17 3 22 11.5t5 35.5v491h-32q-3 5 -10.5 12.5t-34.5 20t-60 12.5q-65 0 -94.5 -35t-29.5 -108v-15h137v-65h-137v-313q0 -26 7 -36t26 -12l37 -5v-49h-212v49l33 6q17 3 22 11.5t5 35.5v313h-256v-313q0 -26 7 -36
t26 -12l37 -5v-49h-212v49l33 6q17 3 22 11.5t5 35.5v313h-87v65h87v54q0 82 49 124t120 42q60 0 111 -21l-8 -68h-37q-31 18 -61 18q-44 0 -68 -24.5t-24 -69.5v-55h256v14q0 104 55 157.5t146 53.5q83 0 144 -39l38 34h42v-461l230 241h97v-47q-46 -17 -51 -22l-124 -131
l122 -190q20 -30 44 -33l34 -5v-52z" />
    <glyph glyph-name="f_h" unicode="fh" horiz-adv-x="943" 
d="M919 0h-131v321q0 31 -13.5 51.5t-35 27.5t-32.5 9t-22 2q-81 0 -148 -55v-254q0 -26 7 -35t26 -13l27 -5v-49h-202v49l33 6q17 3 22 11.5t5 35.5v491h-32q-3 5 -10.5 12.5t-34.5 20t-60 12.5q-65 0 -94.5 -35t-29.5 -108v-15h137v-65h-137v-313q0 -26 7 -36t26 -12
l37 -5v-49h-212v49l33 6q17 3 22 11.5t5 35.5v313h-87v65h87v14q0 104 55 157.5t146 53.5q83 0 144 -39l38 34h42v-277q26 29 66.5 45.5t84.5 16.5q15 0 26 -1t35.5 -5t43 -14.5t37.5 -27.5t29.5 -46.5t10.5 -68.5v-220q0 -27 4 -35.5t23 -12.5l22 -5v-49z" />
    <glyph glyph-name="f_j" unicode="fj" horiz-adv-x="617" 
d="M368 -191h-12l-43 22v49h55q39 0 60.5 22t21.5 63v450h-256v-313q0 -26 7 -36t26 -12l37 -5v-49h-212v49l33 6q17 3 22 11.5t5 35.5v313h-87v65h87v74q0 73 40.5 109.5t108.5 36.5q60 0 111 -21l-8 -68h-37q-31 18 -61 18q-41 0 -56.5 -18.5t-15.5 -55.5v-75h338v-515
q0 -82 -40 -119t-124 -37zM532 560h-93v93h93v-93z" />
    <glyph glyph-name="f_k" unicode="fk" horiz-adv-x="919" 
d="M889 0h-130l-133 226l-89 -87v-139h-142v49l33 6q17 3 22 11.5t5 35.5v491h-32q-3 5 -10.5 12.5t-34.5 20t-60 12.5q-65 0 -94.5 -35t-29.5 -108v-15h137v-65h-137v-313q0 -26 7 -36t26 -12l37 -5v-49h-212v49l33 6q17 3 22 11.5t5 35.5v313h-87v65h87v14q0 104 55 157.5
t146 53.5q83 0 144 -39l38 34h42v-461l230 241h97v-47q-46 -17 -51 -22l-124 -131l122 -190q20 -30 44 -33l34 -5v-52z" />
    <glyph glyph-name="ff" unicode="ff" horiz-adv-x="695" 
d="M602 0h-212v49l33 6q17 3 22 11.5t5 35.5v313h-256v-313q0 -26 7 -36t26 -12l37 -5v-49h-212v49l33 6q17 3 22 11.5t5 35.5v313h-87v65h87v74q0 73 40.5 109.5t108.5 36.5q60 0 111 -21l-8 -68h-37q-31 18 -61 18q-41 0 -56.5 -18.5t-15.5 -55.5v-75h256v74
q0 73 40.5 109.5t108.5 36.5q60 0 111 -21l-8 -68h-37q-31 18 -61 18q-41 0 -56.5 -18.5t-15.5 -55.5v-75h147v-65h-147v-313q0 -26 7 -36t26 -12l37 -5v-49z" />
    <glyph glyph-name="fi" unicode="fi" horiz-adv-x="642" 
d="M532 560h-93v93h93v-93zM592 0h-202v49l33 6q17 3 22 11.5t5 35.5v313h-256v-313q0 -26 7 -36t26 -12l37 -5v-49h-212v49l33 6q17 3 22 11.5t5 35.5v313h-87v65h87v74q0 72 44.5 109t114.5 37q49 0 97 -13q-1 -9 -3 -23t-3 -25t-2 -21h-31q-31 11 -53 11q-82 0 -82 -74
v-75h338v-378q0 -26 7 -35t26 -13l27 -5v-49z" />
    <glyph glyph-name="fl" unicode="fl" horiz-adv-x="617" 
d="M577 0h-202v49l33 6q17 3 22 11.5t5 35.5v491h-32q-1 2 -3 5t-9.5 10.5t-17 13.5t-27 11t-38.5 5q-64 0 -89 -34t-25 -109v-15h137v-65h-137v-313q0 -26 7 -36t26 -12l37 -5v-49h-212v49l33 6q17 3 22 11.5t5 35.5v313h-87v65h87v14q0 105 50.5 158t140.5 53
q72 0 133 -40l39 35h42v-598q0 -26 7 -35t26 -13l27 -5v-49z" />
    <glyph glyph-name="ffi" unicode="ffi" horiz-adv-x="983" 
d="M933 0h-202v49l33 6q17 3 22 11.5t5 35.5v313h-259v-313q0 -26 7 -36t26 -12l37 -5v-49h-212v49l33 6q17 3 22 11.5t5 35.5v313h-256v-313q0 -26 7 -36t26 -12l37 -5v-49h-212v49l33 6q17 3 22 11.5t5 35.5v313h-87v65h87v74q0 73 40.5 109.5t108.5 36.5q60 0 111 -21
l-8 -68h-37q-31 18 -61 18q-41 0 -56.5 -18.5t-15.5 -55.5v-75h256v74q0 73 40.5 109.5t108.5 36.5q60 0 111 -21l-8 -68h-37q-31 18 -61 18q-41 0 -56.5 -18.5t-15.5 -55.5v-75h341v-378q0 -26 7 -35t26 -13l27 -5v-49zM873 560h-93v93h93v-93z" />
    <glyph glyph-name="ffl" unicode="ffl" horiz-adv-x="938" 
d="M898 0h-202v49l33 6q17 3 22 11.5t5 35.5v491h-32q-1 2 -3 5t-9.5 10.5t-17 13.5t-27 11t-38.5 5q-64 0 -88 -34t-24 -109v-15h137v-65h-137v-313q0 -26 7 -36t26 -12l37 -5v-49h-212v49l33 6q17 3 22 11.5t5 35.5v313h-241v-313q0 -26 7 -36t26 -12l37 -5v-49h-212v49
l33 6q17 3 22 11.5t5 35.5v313h-87v65h87v54q0 82 49 124t120 42q60 0 111 -21l-8 -68h-37q-31 18 -61 18q-44 0 -68 -24.5t-24 -69.5v-55h241v14q0 105 49.5 158t139.5 53q77 0 134 -40l38 35h42v-598q0 -26 7 -35t26 -13l27 -5v-49z" />
    <glyph glyph-name=".notdef" horiz-adv-x="500" 
 />
    <glyph glyph-name=".null" unicode="&#xe000;" horiz-adv-x="0" 
 />
    <glyph glyph-name="nonmarkingreturn" horiz-adv-x="333" 
 />
    <glyph glyph-name="space" unicode=" " horiz-adv-x="250" 
 />
    <glyph glyph-name="exclam" unicode="!" horiz-adv-x="310" 
d="M208 0h-106v110h106v-110zM181 197h-53q-26 271 -26 367v116h106v-116q0 -66 -10 -191t-17 -176z" />
    <glyph glyph-name="quotedbl" unicode="&#x22;" horiz-adv-x="445" 
d="M150 425h-60l-20 165v90h100v-90zM355 425h-60l-20 165v90h100v-90z" />
    <glyph glyph-name="numbersign" unicode="#" horiz-adv-x="701" 
d="M149 0l36 183h-117v8l12 47h115l37 187h-123l-1 8l13 47h122l39 200h65l-39 -200h140l39 200h64l-39 -200h117v-8l-13 -47h-115l-37 -187h124v-8l-13 -47h-122l-36 -183h-64l36 183h-140l-36 -183h-64zM297 425l-37 -187h140l37 187h-140z" />
    <glyph glyph-name="dollar" unicode="$" horiz-adv-x="556" 
d="M312 -120h-57v111q-119 4 -205 53q0 47 2 81.5t4 45.5l2 11h70l10 -87q40 -24 117 -30v241q-35 11 -51 16.5t-46 17.5t-45 24t-32.5 29.5t-25 40.5t-7.5 51q0 176 207 185v100h57v-101q103 -7 180 -50q0 -47 -1.5 -81.5t-2.5 -45.5l-2 -12h-73l-6 86q-31 19 -95 27v-224
q46 -13 74 -24t60.5 -32t48.5 -54t16 -79q0 -86 -50.5 -134t-148.5 -55v-111zM255 385v210q-122 -7 -122 -99q0 -45 31 -69t91 -42zM312 288v-221q53 6 83.5 32.5t30.5 72.5q0 44 -29.5 70t-84.5 46z" />
    <glyph glyph-name="percent" unicode="%" horiz-adv-x="845" 
d="M277 0h-75l380 700h75zM290 464v50q0 38 -22.5 56t-58.5 18q-35 0 -57.5 -18.5t-22.5 -55.5v-50q0 -36 23 -55.5t57 -19.5q36 0 58.5 18.5t22.5 56.5zM370 515v-52q0 -69 -50 -103t-111 -34q-27 0 -53 7.5t-50.5 23t-40 43t-15.5 63.5v52q0 36 15.5 63.5t40 43t50.5 23
t53 7.5q61 0 111 -34t50 -103zM715 166v50q0 38 -22.5 56t-58.5 18q-35 0 -57.5 -18.5t-22.5 -55.5v-50q0 -36 23 -55.5t57 -19.5q36 0 58.5 18.5t22.5 56.5zM795 217v-52q0 -69 -50 -103t-111 -34q-27 0 -53 7.5t-50.5 23t-40 43t-15.5 63.5v52q0 36 15.5 63.5t40 43
t50.5 23t53 7.5q61 0 111 -34t50 -103z" />
    <glyph glyph-name="ampersand" unicode="&#x26;" horiz-adv-x="780" 
d="M685 0h-136l-68 100q-26 -31 -46.5 -51t-64 -40t-92.5 -20q-110 0 -166.5 59t-56.5 152q0 84 53 139.5t133 68.5v5q-94 54 -94 143q0 54 41.5 91.5t111.5 37.5q98 0 146 -51v-58h-61q-29 40 -76 40q-33 0 -53.5 -15.5t-20.5 -43.5q0 -30 24 -59t74 -47l161 -219l75 118
q-27 25 -55 33v44h210v-46l-57 -29l-133 -183l54 -73q22 -29 56 -33l41 -5v-58zM441 165l-116 159q-13 18 -38 18q-58 0 -101.5 -37.5t-43.5 -104.5q0 -57 35 -93t101 -36q29 0 56 9.5t45.5 23.5t33 28t21.5 24z" />
    <glyph glyph-name="quotesingle" unicode="'" horiz-adv-x="240" 
d="M150 425h-60l-20 165v90h100v-90z" />
    <glyph glyph-name="parenleft" unicode="(" horiz-adv-x="440" 
d="M330 -178h-80q-70 93 -100 209.5t-30 229.5t30 229.5t100 209.5h80v-50l-34 -20q-88 -134 -88 -369t88 -369l34 -20v-50z" />
    <glyph glyph-name="parenright" unicode=")" horiz-adv-x="440" 
d="M190 -178h-80v50l34 20q88 134 88 369t-88 369l-34 20v50h80q70 -93 100 -209.5t30 -229.5t-30 -229.5t-100 -209.5z" />
    <glyph glyph-name="asterisk" unicode="*" horiz-adv-x="557" 
d="M427 381l-62 -51l-57 73l-30 69l-29 -69l-57 -73l-62 51l61 68l54 41l-67 9l-87 37l36 74l86 -43l46 -41l-16 77v89h71v-89l-16 -77l46 41l86 43l36 -74l-87 -37l-67 -9l54 -41z" />
    <glyph glyph-name="plus" unicode="+" horiz-adv-x="600" 
d="M525 246h-190v-185h-70v185h-190v60h190v185h70v-185h190v-60z" />
    <glyph glyph-name="comma" unicode="," horiz-adv-x="238" 
d="M120 -143h-56l40 126q0 17 -11 19l-22 3v77h99v-95z" />
    <glyph glyph-name="hyphen" unicode="-" horiz-adv-x="420" 
d="M345 224h-270v76h270v-76z" />
    <glyph glyph-name="period" unicode="." horiz-adv-x="240" 
d="M170 0h-100v102h100v-102z" />
    <glyph glyph-name="slash" unicode="/" horiz-adv-x="425" 
d="M138 -130h-80l230 830h80z" />
    <glyph glyph-name="zero" unicode="0" horiz-adv-x="580" 
d="M446 249v164q0 104 -40.5 141.5t-115.5 37.5t-115.5 -37.5t-40.5 -141.5v-164q0 -104 40.5 -141.5t115.5 -37.5t115.5 37.5t40.5 141.5zM533 411v-163q0 -132 -64.5 -194t-178.5 -62t-178.5 62t-64.5 194v163q0 134 64 196.5t179 62.5t179 -62.5t64 -196.5z" />
    <glyph glyph-name="one" unicode="1" horiz-adv-x="480" 
d="M450 0h-370v68l105 5q24 1 32 9t8 41v457l-144 -15v71q144 24 161 24h70v-537q0 -30 7.5 -39.5t33.5 -10.5l97 -5v-68z" />
    <glyph glyph-name="two" unicode="2" horiz-adv-x="580" 
d="M518 0h-448v67q42 36 102.5 87.5t86.5 73.5t63.5 56t51.5 51t30.5 41.5t21 44.5t4.5 44v17q0 109 -134 109q-79 0 -133 -38l-5 -73h-70q-7 54 -7 116q108 73 217 73q105 0 162.5 -48.5t57.5 -138.5v-17q0 -37 -14.5 -74.5t-32.5 -65t-56 -65t-63.5 -59t-77.5 -63.5
t-77 -63h223q28 0 33 21l5 23h60v-119z" />
    <glyph glyph-name="three" unicode="3" horiz-adv-x="580" 
d="M523 215v-34q0 -86 -58.5 -137t-166.5 -51q-132 0 -230 49l4 124h79l5 -68q45 -27 133 -27q74 0 110 29t36 81v20q0 43 -27.5 68t-75.5 27q-110 6 -115 6v73h85q50 0 85.5 26.5t35.5 79.5v12q0 50 -30 74t-100 24q-78 0 -131 -36l-3 -68h-76q-4 52 -4 120q103 62 219 62
q100 0 156 -44.5t57 -123.5v-20q0 -30 -10 -54.5t-24.5 -38t-28.5 -23t-24 -12.5l-10 -3v-1q47 -10 78 -46.5t31 -87.5z" />
    <glyph glyph-name="four" unicode="4" horiz-adv-x="570" 
d="M499 0h-208v50l33 8q17 5 22.5 12.5t5.5 32.5v70h-312v65l283 422h116v-411h87v-76h-87v-70q0 -24 7 -32t27 -14l26 -7v-50zM352 249v323l-209 -323h209z" />
    <glyph glyph-name="five" unicode="5" horiz-adv-x="580" 
d="M294 67q70 0 107 33t37 86v23q0 54 -25.5 82.5t-87.5 28.5h-230l-8 59l12 281h405l-4 -147h-62l-6 39q-3 16 -10.5 22t-29.5 6h-213l-8 -183h159q97 0 146 -49t49 -138v-23q0 -89 -61.5 -143.5t-169.5 -54.5q-132 0 -221 60v76h70q48 -58 151 -58z" />
    <glyph glyph-name="six" unicode="6" horiz-adv-x="580" 
d="M540 221v-28q0 -96 -66 -150t-171 -54q-107 0 -170 56.5t-63 180.5v208q0 120 65 177.5t168 57.5q115 0 199 -47q0 -32 -2 -61t-4 -41l-1 -13h-66l-5 65q-45 22 -121 22q-70 0 -108 -36.5t-38 -123.5v-63q69 42 168 42q101 0 158 -49t57 -143zM453 193v29q0 55 -34 86
t-94 31q-79 0 -168 -47v-60q0 -88 34.5 -128t111.5 -40q150 0 150 129z" />
    <glyph glyph-name="seven" unicode="7" horiz-adv-x="520" 
d="M309 0h-90v125q0 89 16.5 169.5t40.5 131t48 88.5t40 54l17 17h-230q-22 0 -30 -6t-10 -25l-5 -38h-63q-3 79 -3 144h450v-72q-7 -4 -19.5 -14t-43.5 -48t-55 -85.5t-43.5 -132t-19.5 -183.5v-125z" />
    <glyph glyph-name="eight" unicode="8" horiz-adv-x="580" 
d="M394 350q57 -13 98.5 -56t41.5 -113q0 -94 -61.5 -142.5t-178.5 -48.5q-113 0 -176 47.5t-63 142.5q0 64 42 107.5t105 58.5q-56 12 -91.5 52.5t-35.5 104.5q0 79 59 122.5t160 43.5t160.5 -43.5t59.5 -122.5q0 -101 -120 -153zM268 309q-123 -36 -123 -129
q0 -55 42.5 -85t106.5 -30q61 0 105.5 28.5t44.5 86.5q0 52 -45.5 82.5t-130.5 46.5zM310 384q114 42 114 119q0 38 -33 64.5t-96 26.5t-96.5 -26.5t-33.5 -64.5q0 -88 145 -119z" />
    <glyph glyph-name="nine" unicode="9" horiz-adv-x="580" 
d="M443 362v67q0 90 -36.5 127.5t-109.5 37.5q-75 0 -112.5 -29t-37.5 -101v-29q0 -116 128 -116q79 0 168 43zM443 229v58q-22 -16 -69 -29t-99 -13q-98 0 -156.5 52t-58.5 138v30q0 104 64 154t173 50q233 0 233 -234v-206q0 -120 -63.5 -180t-170.5 -60q-131 0 -218 48
v75h70q54 -48 148 -48q65 0 106 35t41 130z" />
    <glyph glyph-name="colon" unicode=":" horiz-adv-x="240" 
d="M170 0h-100v102h100v-102zM170 378h-100v102h100v-102z" />
    <glyph glyph-name="semicolon" unicode=";" horiz-adv-x="238" 
d="M120 -143h-56l40 126q0 18 -10 19l-23 3v77h99v-95zM170 378h-100v102h100v-102z" />
    <glyph glyph-name="less" unicode="&#x3c;" horiz-adv-x="550" 
d="M450 0h-20l-380 215v90l380 215h20v-80l-320 -180l320 -180v-80z" />
    <glyph glyph-name="equal" unicode="=" horiz-adv-x="600" 
d="M525 345h-450v65h450v-65zM525 142h-450v65h450v-65z" />
    <glyph glyph-name="greater" unicode="&#x3e;" horiz-adv-x="550" 
d="M500 215l-380 -215h-20v80l320 180l-320 180v80h20l380 -215v-90z" />
    <glyph glyph-name="question" unicode="?" horiz-adv-x="450" 
d="M240 177h-64q-12 65 -12 88q0 35 17 62.5t41.5 47t49 38t41.5 45t17 59.5q0 47 -26 68.5t-87 21.5q-48 0 -73 -15t-44 -56h-63q-7 43 -7 85q86 66 193 66q99 0 148 -41.5t49 -128.5q0 -40 -15.5 -71t-39 -51t-47.5 -37t-43 -40t-24 -50zM260 0h-106v110h106v-110z" />
    <glyph glyph-name="at" unicode="@" horiz-adv-x="860" 
d="M715 14v-66q-11 -5 -32 -13t-89 -21t-140 -13q-384 0 -384 341v104q0 135 102.5 223t255.5 88q160 0 261 -87t101 -223v-100q0 -67 -50.5 -117t-116.5 -50h-86l-16 43q-5 -5 -15 -12t-42 -19t-66 -12q-55 0 -93 32.5t-38 88.5q0 50 38.5 81.5t106.5 31.5h104v27
q0 48 -19.5 63t-61.5 15q-55 0 -84 -39h-51l-5 58q32 19 74 29t68 10q149 0 149 -136v-186q0 -17 11 -17h26q36 0 64 28.5t28 70.5v111q0 80 -44.5 137t-108 82t-134.5 25q-112 0 -197.5 -64t-85.5 -180v-106q0 -273 309 -273q36 0 68.5 3t53.5 7.5t40 10.5t28 10t18 9l9 5
h44zM516 173v89h-103q-76 0 -76 -61q0 -28 16 -45.5t52 -17.5q32 0 59.5 9t39.5 17z" />
    <glyph glyph-name="A" unicode="A" horiz-adv-x="651" 
d="M434 255l-100 356h-10l-106 -356h216zM639 0h-234v48l33 6q33 6 33 35q0 13 -25 97h-241q-24 -86 -24 -93q0 -34 33 -39l33 -6v-48h-235v48l26 6q35 7 43 34l185 592h129l175 -592q4 -16 12.5 -22.5t28.5 -11.5l28 -6v-48z" />
    <glyph glyph-name="B" unicode="B" horiz-adv-x="606" 
d="M199 373h126q58 0 86 36.5t28 87.5q0 47 -27.5 80t-87.5 33h-92q-22 0 -27.5 -7.5t-5.5 -36.5v-193zM363 0h-308v50l23 5q19 4 27.5 13t8.5 33v478q0 24 -10 33t-32 14l-17 4v50h290q55 0 94 -16.5t58.5 -45t28 -58.5t8.5 -64q0 -51 -28.5 -94t-68.5 -55v-2
q54 -10 86.5 -50.5t32.5 -110.5q0 -83 -50.5 -133.5t-142.5 -50.5zM232 70h105q70 0 98.5 29.5t28.5 84.5q0 63 -26 94t-95 31h-144v-195q0 -29 5.5 -36.5t27.5 -7.5z" />
    <glyph glyph-name="C" unicode="C" horiz-adv-x="583" 
d="M532 114v-72q-111 -53 -218 -53q-42 0 -78 7t-71 25t-60 46t-40 72.5t-15 101.5v185q0 134 74.5 199.5t189.5 65.5q117 0 218 -54q-1 -99 -7 -145h-74l-3 92q-47 32 -134 32q-179 0 -179 -183v-190q0 -179 179 -179q90 0 153 50h65z" />
    <glyph glyph-name="D" unicode="D" horiz-adv-x="665" 
d="M235 70h94q86 0 142 62t56 202q0 142 -47.5 209t-142.5 67h-102q-22 0 -29 -7t-7 -31v-463q0 -28 6.5 -33.5t29.5 -5.5zM327 0h-272v50l23 5q19 4 27.5 13t8.5 33v478q0 24 -10 33t-32 14l-17 4v50h291q125 0 197 -85.5t72 -260.5q0 -50 -9 -96.5t-30.5 -90.5t-53.5 -76
t-82 -51.5t-113 -19.5z" />
    <glyph glyph-name="E" unicode="E" horiz-adv-x="587" 
d="M523 0h-468v50l23 5q19 4 27.5 13t8.5 33v478q0 24 -10 33t-32 14l-17 4v50h457v-123h-58l-6 21q-6 18 -15 25t-33 7h-165q-22 0 -29 -9.5t-7 -38.5v-188h127q29 0 37.5 4.5t13.5 20.5l7 23h49v-161h-49l-8 23q-5 16 -13.5 20.5t-36.5 4.5h-127v-191q0 -29 7 -38.5
t29 -9.5h176q24 0 33.5 7t14.5 24l6 22h58v-123z" />
    <glyph glyph-name="F" unicode="F" horiz-adv-x="537" 
d="M257 0h-202v50l24 5q19 4 27 13t8 33v478q0 25 -6 34.5t-25 12.5l-27 4v50h431v-123h-56l-7 21q-6 18 -14.5 25t-32.5 7h-147q-21 0 -26 -9t-5 -39v-208h123q26 0 34 4.5t13 20.5l8 23h46v-161h-46l-8 23q-5 16 -13 20.5t-34 4.5h-123v-188q0 -24 8.5 -32.5t29.5 -13.5
l20 -5v-50z" />
    <glyph glyph-name="G" unicode="G" horiz-adv-x="630" 
d="M560 0h-61l-22 47h-4q-23 -26 -69 -42t-90 -16q-42 0 -78 7t-71 25t-60 46t-40 72.5t-15 101.5v185q0 134 74.5 199.5t189.5 65.5q130 0 244 -64l-3 -137h-81v86q-58 40 -160 40q-33 0 -63 -9.5t-57 -29.5t-43 -57t-16 -87v-190q0 -47 14 -82t33.5 -53t46.5 -28.5t46 -13
t39 -2.5q49 0 93 22.5t66 59.5v110l-82 10v64h169v-330z" />
    <glyph glyph-name="H" unicode="H" horiz-adv-x="727" 
d="M672 0h-202v50l22 5q19 4 27.5 13t8.5 33v203h-329v-203q0 -23 10 -32.5t32 -14.5l16 -4v-50h-202v50l23 5q19 4 27.5 13t8.5 33v478q0 24 -10 33t-32 14l-17 4v50h202v-51l-21 -4q-19 -3 -28 -12.5t-9 -33.5v-207h329v207q0 23 -9.5 32.5t-31.5 14.5l-17 4v50h202v-51
l-22 -4q-19 -3 -28 -12.5t-9 -33.5v-478q0 -23 10.5 -32.5t32.5 -14.5l16 -4v-50z" />
    <glyph glyph-name="I" unicode="I" horiz-adv-x="372" 
d="M288 0h-203v50l23 5q19 4 27.5 13t8.5 33v478q0 24 -10 33t-32 14l-17 4v50h203v-50l-17 -4q-22 -5 -32 -14t-10 -33v-478q0 -24 8.5 -33t27.5 -13l23 -5v-50z" />
    <glyph glyph-name="J" unicode="J" horiz-adv-x="525" 
d="M307 189v390q0 25 -8 34.5t-30 12.5l-31 4v50h212v-51l-23 -4q-18 -3 -26.5 -12.5t-8.5 -33.5v-391q0 -96 -56.5 -147.5t-147.5 -51.5q-45 0 -91 11t-72 28v91h58q11 -23 38 -39t67 -16q119 0 119 125z" />
    <glyph glyph-name="K" unicode="K" horiz-adv-x="659" 
d="M639 0h-136l-199 330l-106 -120v-109q0 -24 8.5 -33t27.5 -13l23 -5v-50h-203v50l23 5q19 4 27.5 13t8.5 33v478q0 24 -10 33t-32 14l-17 4v50h203v-50l-17 -4q-22 -5 -32 -14t-10 -33v-266l254 297q-16 11 -54 23v47h214v-48q-40 -15 -68 -35l-184 -209l212 -320l67 -16
v-52z" />
    <glyph glyph-name="L" unicode="L" horiz-adv-x="520" 
d="M500 0h-445v55l22 5q19 4 27.5 13t8.5 33v473q0 24 -10 33t-32 14l-17 4v50h203v-50l-17 -4q-22 -5 -32 -14t-10 -33v-471q0 -18 7.5 -26.5t16 -10t27.5 -1.5h135q33 0 43.5 7t14.5 24l6 22h52v-123z" />
    <glyph glyph-name="M" unicode="M" horiz-adv-x="833" 
d="M779 0h-203v50l23 5q19 4 27.5 13t8.5 33v393l-180 -377h-78l-179 377v-393q0 -24 8.5 -33t27.5 -13l23 -5v-50h-203v50l23 5q19 4 27.5 13t8.5 33v472q0 23 -9.5 32t-31.5 15l-17 4v56h142l219 -461l220 461h142v-56l-22 -5q-19 -4 -27.5 -13t-8.5 -33v-472
q0 -24 8.5 -33t27.5 -13l23 -5v-50z" />
    <glyph glyph-name="N" unicode="N" horiz-adv-x="715" 
d="M602 0h-79l-330 551v-450q0 -24 8.5 -33t27.5 -13l23 -5v-50h-199v50l23 5q19 4 28 13t9 33v478q0 23 -9.5 32.5t-31.5 14.5l-17 4v50h154l313 -522v421q0 24 -10 33t-32 14l-17 4v50h198v-50l-17 -4q-22 -5 -32 -14t-10 -33v-579z" />
    <glyph glyph-name="O" unicode="O" horiz-adv-x="641" 
d="M501 243v198q0 175 -182 175q-179 0 -179 -175v-198q0 -98 46.5 -138.5t132.5 -40.5q87 0 134.5 40t47.5 139zM586 433v-187q0 -71 -22.5 -123t-61.5 -80t-84.5 -41t-98.5 -13t-97.5 13t-83.5 41t-61 80t-22 123v187q0 133 74 195.5t190 62.5q75 0 133 -24t96 -83.5
t38 -150.5z" />
    <glyph glyph-name="P" unicode="P" horiz-adv-x="584" 
d="M199 324h107q148 0 148 147q0 75 -29.5 107t-98.5 32h-76q-51 0 -51 -47v-239zM258 0h-203v50l23 5q19 4 27.5 13t8.5 33v478q0 24 -10 33t-32 14l-17 4v50h284q205 0 205 -209q0 -100 -58 -158.5t-172 -58.5h-115v-153q0 -24 8.5 -33t27.5 -13l23 -5v-50z" />
    <glyph glyph-name="Q" unicode="Q" horiz-adv-x="631" 
d="M533 -154h-132l-72 144q-3 0 -8 -0.5t-7 -0.5q-53 0 -97.5 13t-83.5 41t-61 80t-22 123v187q0 133 74 195.5t190 62.5q75 0 133 -24t96 -83.5t38 -150.5v-187q0 -201 -174 -246l47 -64q13 -18 22.5 -23.5t29.5 -8.5l27 -4v-54zM496 243v198q0 45 -14.5 78.5t-34.5 51
t-47 28.5t-47 14t-39 3t-39 -3t-46.5 -14t-46 -29t-33.5 -51.5t-14 -77.5v-198q0 -47 14 -82t33.5 -53t46.5 -28.5t46 -13t39 -2.5q21 0 39.5 2t46.5 12.5t47.5 28.5t34 53t14.5 83z" />
    <glyph glyph-name="R" unicode="R" horiz-adv-x="631" 
d="M198 335h101q48 0 82.5 13.5t51 36t23.5 44.5t7 46q0 27 -5.5 48t-19.5 42.5t-44 33t-74 11.5h-93q-29 0 -29 -28v-247zM586 0h-138l-119 265h-131v-164q0 -24 8.5 -33t27.5 -13l23 -5v-50h-203v50l23 5q19 4 27.5 13t8.5 33v478q0 18 -4.5 25.5t-16.5 11.5l-37 11v53
h284q102 0 158 -56t56 -149q0 -151 -146 -197l98 -190q14 -26 45 -30l36 -5v-53z" />
    <glyph glyph-name="S" unicode="S" horiz-adv-x="565" 
d="M490 500h-73l-6 86q-21 13 -57.5 21.5t-65.5 8.5q-146 0 -146 -100q0 -47 38.5 -75.5t93 -43.5t109.5 -34t93.5 -61.5t38.5 -111.5q0 -94 -60 -147t-173 -53q-130 0 -228 54q0 47 2 81.5t4 45.5l2 11h70l10 -87q51 -30 140 -30q66 0 107 31.5t41 85.5q0 48 -38.5 78.5
t-93 48.5t-109.5 37.5t-93.5 59t-38.5 99.5q0 186 228 186q118 0 211 -52q0 -47 -1.5 -81.5t-2.5 -45.5z" />
    <glyph glyph-name="T" unicode="T" horiz-adv-x="538" 
d="M370 0h-203v50l23 5q19 4 27.5 13t8.5 33v472l-2 37h-92q-28 0 -38 -7t-15 -25l-6 -21h-48v123h488v-123h-48l-7 21q-4 13 -7.5 18t-14 9.5t-30.5 4.5h-93l-2 -37v-472q0 -24 8.5 -33t27.5 -13l23 -5v-50z" />
    <glyph glyph-name="U" unicode="U" horiz-adv-x="727" 
d="M534 243v336q0 24 -10 33t-32 14l-17 4v50h203v-50l-17 -4q-22 -5 -32 -14t-10 -33v-338q0 -71 -21 -122t-58 -78.5t-80.5 -39.5t-96.5 -12q-52 0 -95.5 12t-80.5 39.5t-57.5 78.5t-20.5 122v338q0 24 -10 33t-32 14l-17 4v50h203v-50l-17 -4q-22 -5 -32 -14t-10 -33
v-336q0 -47 13 -82t31 -53t43.5 -28.5t43.5 -13t38 -2.5q171 0 171 179z" />
    <glyph glyph-name="V" unicode="V" horiz-adv-x="705" 
d="M413 0h-131l-191 586q-10 30 -43 36l-33 5v53h237v-53l-25 -2q-40 -3 -40 -30q0 -9 4 -21l152 -485h14l166 483q4 9 4 21q0 27 -38 31l-28 3v53h229v-53l-36 -5q-31 -4 -43 -38z" />
    <glyph glyph-name="W" unicode="W" horiz-adv-x="922" 
d="M719 0h-139l-117 434h-7l-111 -434h-138l-128 590q-8 35 -42 39l-27 3v48h234v-48l-27 -3q-44 -4 -44 -42q0 -4 2 -14l103 -492h11l135 498h77l146 -498h11l110 526q-14 11 -61 27v46h205v-45q-50 -19 -58 -29z" />
    <glyph glyph-name="X" unicode="X" horiz-adv-x="601" 
d="M576 0h-139l-143 275l-107 -205q15 -13 55 -26v-44h-216v45q47 17 53 21l170 273l-164 273q-8 7 -60 23v45h137l141 -279l108 209q-17 12 -54 26v44h216v-45q-50 -21 -60 -34l-174 -262l177 -272q3 -5 60 -22v-45z" />
    <glyph glyph-name="Y" unicode="Y" horiz-adv-x="614" 
d="M406 0h-203v50l23 5q19 4 27.5 13t8.5 33v173l-192 338q-16 10 -55 22v46h211v-46q-38 -18 -53 -27l133 -253l135 251q-27 19 -53 28v47h211v-45q-51 -18 -55 -24l-197 -337v-173q0 -24 8.5 -33t27.5 -13l23 -5v-50z" />
    <glyph glyph-name="Z" unicode="Z" horiz-adv-x="558" 
d="M508 0h-468v72l360 534h-226q-36 0 -42 -23l-9 -36h-61v133h446v-71l-363 -535h249q25 0 36 7.5t15 23.5l6 22h57v-127z" />
    <glyph glyph-name="bracketleft" unicode="[" horiz-adv-x="380" 
d="M279 -150h-146v850h146v-47l-24 -3q-22 -2 -31 -12t-9 -36v-653q0 -24 9 -34t31 -14l24 -4v-47z" />
    <glyph glyph-name="backslash" unicode="\" horiz-adv-x="425" 
d="M379 -130h-80l-231 830h80z" />
    <glyph glyph-name="bracketright" unicode="]" horiz-adv-x="380" 
d="M264 -150h-146v47l24 4q22 4 31 14t9 34v653q0 26 -9 36t-31 12l-24 3v47h146v-850z" />
    <glyph glyph-name="asciicircum" unicode="^" horiz-adv-x="500" 
d="M447 369h-83l-113 248l-112 -248h-83v18l144 293h113l134 -293v-18z" />
    <glyph glyph-name="underscore" unicode="_" 
d="M400 -65h-400v65h400v-65z" />
    <glyph glyph-name="grave" unicode="`" horiz-adv-x="270" 
d="M227 525h-70l-91 139v16h82z" />
    <glyph glyph-name="a" unicode="a" horiz-adv-x="518" 
d="M478 0h-96l-20 48q-7 -7 -19.5 -16.5t-55 -26t-88.5 -16.5q-60 0 -105.5 36t-45.5 111q0 64 43 102.5t118 38.5h148v46q0 51 -26.5 74.5t-83.5 23.5q-31 0 -52.5 -6t-32.5 -19t-15 -23t-9 -27h-65q-3 48 -3 79q79 64 178 64q191 0 191 -166v-216q0 -30 5.5 -41.5
t20.5 -16.5l13 -3v-46zM357 111v104h-135q-43 0 -67.5 -19t-24.5 -55q0 -82 90 -82q35 0 69.5 13t50.5 26z" />
    <glyph glyph-name="b" unicode="b" horiz-adv-x="555" 
d="M418 178v120q0 120 -128 120q-79 0 -128 -49v-246q2 -3 5.5 -7t15.5 -15t26 -19.5t36 -15.5t45 -7q22 0 42 4.5t40.5 16.5t33 37t12.5 61zM500 305v-133q0 -51 -20 -89t-51 -57t-62 -28t-61 -9q-46 0 -82.5 14t-49.5 28l-14 14l-19 -45h-61v609q0 21 -4.5 29.5
t-17.5 10.5l-23 5v46h127v-257q49 45 141 45q26 0 52 -5.5t53 -19t47 -33.5t32.5 -52.5t12.5 -72.5z" />
    <glyph glyph-name="c" unicode="c" horiz-adv-x="500" 
d="M440 92v-63q-82 -40 -182 -40q-28 0 -55 4t-56.5 16.5t-51 32t-36 53t-14.5 76.5v138q0 49 21 86.5t54.5 57t68 29t69.5 9.5q109 0 192 -50l-7 -120h-64l-5 73q-54 27 -116 27q-29 0 -56 -7.5t-51.5 -36.5t-24.5 -76v-122q0 -35 13 -60t34.5 -37t42 -16.5t42.5 -4.5
q44 0 77.5 10.5t44.5 20.5h60z" />
    <glyph glyph-name="d" unicode="d" horiz-adv-x="550" 
d="M518 0h-105l-18 45q-5 -6 -16 -15.5t-50 -25t-85 -15.5q-30 0 -61 9t-62 28t-51 57t-20 89v133q0 40 12.5 72.5t32.5 52.5t47 33.5t53 19t52 5.5q92 0 141 -45v160q0 27 -5 35.5t-25 12.5l-15 3v46h126v-603q0 -24 6 -32.5t24 -13.5l19 -5v-46zM388 123v246
q-49 49 -125 49q-23 0 -43.5 -5t-41.5 -17t-33.5 -37t-12.5 -61v-120q0 -36 12.5 -61t33 -37t40.5 -16.5t42 -4.5q37 0 69 16t45 32z" />
    <glyph glyph-name="e" unicode="e" horiz-adv-x="523" 
d="M453 101v-65q-81 -47 -186 -47q-93 0 -155 47t-62 145v118q0 50 20.5 88.5t53.5 60t69 32.5t72 11q35 0 68 -8.5t66 -28t53.5 -60t20.5 -96.5v-86h-341v-32q0 -121 135 -121q75 0 126 42h60zM393 277v31q0 113 -128 113q-133 0 -133 -120v-24h261z" />
    <glyph glyph-name="f" unicode="f" horiz-adv-x="358" 
d="M264 0h-212v49l33 6q17 3 22 11.5t5 35.5v313h-87v65h87v74q0 73 41 109.5t109 36.5q60 0 111 -21l-8 -68h-37q-31 18 -61 18q-41 0 -57 -18.5t-16 -55.5v-75h127v-65h-127v-313q0 -26 7 -36t26 -12l37 -5v-49z" />
    <glyph glyph-name="g" unicode="g" horiz-adv-x="525" 
d="M325 -23h-115q-85 0 -120.5 25t-35.5 78q0 37 21 61.5t54 29.5q-36 17 -55.5 52.5t-19.5 77.5v10q0 50 20 87.5t52.5 56.5t65 27.5t65.5 8.5q112 0 153 -57q27 17 36 53h74v-53q-12 -16 -30.5 -28.5t-31.5 -17.5l-12 -4q16 -28 16 -73v-10q0 -48 -19 -83.5t-50.5 -54.5
t-65 -27.5t-70.5 -8.5q-17 0 -33.5 1.5t-22.5 1.5q-79 0 -79 -38q0 -24 19 -33.5t78 -9.5h112q67 0 106 -34.5t39 -96.5q0 -45 -19.5 -77t-53 -48t-68 -22.5t-74.5 -6.5q-41 0 -69.5 3t-65 13t-59 34.5t-27.5 62.5v48l52 15h30v-41q0 -65 139 -65q126 0 126 84q0 59 -62 59z
M380 296v24q0 40 -22.5 64.5t-47.5 31.5t-53 7q-47 0 -84 -24.5t-37 -78.5v-24q0 -53 37 -77t84 -24q28 0 53 6.5t47.5 30.5t22.5 64z" />
    <glyph glyph-name="h" unicode="h" horiz-adv-x="580" 
d="M556 0h-131v321q0 31 -13.5 51.5t-35 27.5t-32.5 9t-22 2q-81 0 -148 -55v-254q0 -26 7 -35t26 -13l27 -5v-49h-202v49l33 6q17 3 22 11.5t5 35.5v506q0 21 -5.5 29.5t-19.5 11.5l-20 5v46h127v-277q26 29 66.5 45.5t84.5 16.5q15 0 26 -1t35.5 -5t43 -14.5t37.5 -27.5
t29.5 -46.5t10.5 -68.5v-220q0 -27 4 -35.5t23 -12.5l22 -5v-49z" />
    <glyph glyph-name="i" unicode="i" horiz-adv-x="307" 
d="M257 0h-202v49l33 6q17 3 22 11.5t5 35.5v292q0 16 -4.5 22.5t-15.5 9.5l-28 8v46h130v-378q0 -26 7 -35t26 -13l27 -5v-49zM197 560h-93v93h93v-93z" />
    <glyph glyph-name="j" unicode="j" horiz-adv-x="280" 
d="M30 -191h-12l-43 22v49h55q39 0 61 22t22 63v429q0 16 -4.5 22.5t-15.5 9.5l-28 8v46h130v-515q0 -82 -40.5 -119t-124.5 -37zM195 560h-93v93h93v-93z" />
    <glyph glyph-name="k" unicode="k" horiz-adv-x="556" 
d="M526 0h-130l-133 226l-89 -87v-139h-142v49l33 6q17 3 22 11.5t5 35.5v514q0 28 -21 32l-24 6v46h127v-461l230 241h97v-47q-46 -17 -51 -22l-124 -131l122 -190q20 -30 44 -33l34 -5v-52z" />
    <glyph glyph-name="l" unicode="l" horiz-adv-x="282" 
d="M242 0h-202v49l33 6q17 3 22 11.5t5 35.5v501q0 27 -5 35.5t-25 12.5l-15 3v46h127v-598q0 -26 7 -35t26 -13l27 -5v-49z" />
    <glyph glyph-name="m" unicode="m" horiz-adv-x="880" 
d="M850 0h-131v316q0 48 -32.5 71t-76.5 23q-75 0 -123 -47v-261q0 -27 4 -35.5t23 -12.5l22 -5v-49h-131v317q0 50 -32.5 71.5t-73.5 21.5q-76 0 -125 -57v-251q0 -26 7 -35t26 -13l27 -5v-49h-202v49l33 6q17 3 22 11.5t5 35.5v271q0 24 -6 32.5t-24 12.5l-25 6v56h119
l11 -60q55 65 152 65q12 0 30.5 -2.5t51.5 -19t50 -44.5q74 66 179 66q24 0 51 -8.5t55.5 -26.5t46.5 -53t18 -81v-214q0 -27 4 -35.5t23 -12.5l22 -5v-49z" />
    <glyph glyph-name="n" unicode="n" horiz-adv-x="585" 
d="M556 0h-131v321q0 90 -103 90q-86 0 -148 -55v-254q0 -26 7 -35t26 -13l27 -5v-49h-202v49l33 6q17 3 22 11.5t5 35.5v271q0 24 -6 32.5t-24 12.5l-25 6v56h125l9 -58q27 27 68.5 45t85.5 18q15 0 26 -1t35.5 -5t43 -14.5t37.5 -27.5t29.5 -46.5t10.5 -68.5v-220
q0 -27 4 -35.5t23 -12.5l22 -5v-49z" />
    <glyph glyph-name="o" unicode="o" horiz-adv-x="526" 
d="M481 289v-98q0 -98 -63.5 -150t-154.5 -52t-154.5 52t-63.5 150v98q0 98 63.5 150t154.5 52t154.5 -52t63.5 -150zM399 189v102q0 130 -136 130t-136 -130v-102q0 -130 136 -130t136 130z" />
    <glyph glyph-name="p" unicode="p" horiz-adv-x="542" 
d="M200 -220h-173v46l20 5q16 4 21 12.5t5 33.5v506q0 24 -8.5 32.5t-31.5 15.5l-9 3v46h108l15 -45q5 6 16 15.5t50 25t85 15.5q30 0 61 -9t62 -28t51 -57t20 -89v-133q0 -40 -12.5 -72.5t-32.5 -52.5t-47 -33.5t-53 -19t-52 -5.5q-92 0 -141 45v-160q0 -25 5 -33.5
t21 -12.5l20 -5v-46zM410 182v120q0 33 -12 57t-27 35.5t-35.5 18t-31.5 7.5t-22 1q-37 0 -69 -16t-45 -32l-14 -16v-246q26 -26 64.5 -37.5t60.5 -11.5q14 0 31 3.5t42 13.5t41.5 37t16.5 66z" />
    <glyph glyph-name="q" unicode="q" horiz-adv-x="550" 
d="M388 111v246q-2 3 -5.5 7t-15.5 15t-25.5 19.5t-35.5 15.5t-46 7q-11 0 -22 -1t-31.5 -7.5t-35.5 -18t-27 -35.5t-12 -57v-120q0 -39 16.5 -66t41.5 -37t42 -13.5t31 -3.5q22 0 60.5 11.5t64.5 37.5zM514 -220h-171v46l17 3q18 4 23 12.5t5 35.5v160q-49 -45 -141 -45
q-26 0 -52 5.5t-53 19t-47 33.5t-32.5 52.5t-12.5 72.5v133q0 51 20 89t51 57t62 28t61 9q46 0 84 -14t52 -28l15 -14l15 45h108v-46l-9 -3q-23 -7 -31.5 -15.5t-8.5 -32.5v-506q0 -27 5 -35.5t23 -12.5l17 -3v-46z" />
    <glyph glyph-name="r" unicode="r" horiz-adv-x="457" 
d="M263 0h-218v50l27 5q19 4 23.5 12.5t4.5 34.5v276q0 25 -5.5 33t-25.5 12l-24 6v51h126l6 -123h5q55 78 86.5 100.5t62.5 22.5h96v-137h-61l-6 34q-2 12 -7 15t-23 3q-32 0 -59 -28q-45 -47 -67 -78.5t-22 -57.5v-129q0 -26 9.5 -36t30.5 -13l41 -6v-47z" />
    <glyph glyph-name="s" unicode="s" horiz-adv-x="483" 
d="M406 358h-60l-7 56q-42 17 -101 17q-104 0 -104 -63q0 -24 6.5 -36.5t40 -27.5t102.5 -28q155 -31 155 -130q0 -156 -208 -156q-37 0 -70 4.5t-48.5 9.5t-36.5 12.5t-23 8.5q2 72 4 108h61l8 -56q47 -21 111 -21q117 0 117 76q0 28 -7.5 40.5t-37.5 24.5t-101 28
q-151 33 -151 137q0 129 184 129q94 0 171 -30z" />
    <glyph glyph-name="t" unicode="t" horiz-adv-x="395" 
d="M360 82v-64q-58 -23 -110 -23q-138 0 -138 121v299h-87v65h87v96l62 19h20v-115h134v-65h-134v-297q0 -28 13 -40.5t45 -12.5q33 0 60 17h48z" />
    <glyph glyph-name="u" unicode="u" horiz-adv-x="585" 
d="M540 0h-112l-15 61q-2 -3 -6 -7.5t-18.5 -17t-32 -22t-46 -17t-60.5 -7.5q-12 0 -26.5 1.5t-43 10.5t-50 24.5t-38 48.5t-16.5 78v227q0 25 -8.5 33t-30.5 13l-15 3v51h136v-323q0 -97 98 -97q45 0 83.5 18t54.5 36l15 18v246q0 25 -9 34t-32 14l-14 3v51h137v-373
q0 -24 7 -32.5t28 -14.5l14 -4v-56z" />
    <glyph glyph-name="v" unicode="v" horiz-adv-x="513" 
d="M320 0h-120l-133 390q-10 29 -35 36l-22 6v48h128l122 -415h7l143 415h90v-41q-21 -15 -32 -45z" />
    <glyph glyph-name="w" unicode="w" horiz-adv-x="766" 
d="M618 0h-120l-90 259l-114 -259h-112l-116 394q-9 26 -35 32l-21 6v48h125l105 -405h12l119 271l-14 45q-3 15 -10.5 22.5t-25.5 12.5l-20 6v48h114l136 -405h8l104 405h93v-48q-23 -18 -30 -44z" />
    <glyph glyph-name="x" unicode="x" horiz-adv-x="514" 
d="M492 0h-119l-127 196l-79 -126l49 -23v-47h-194v45q36 15 45 21l134 174l-123 172q-3 2 -13 6t-23.5 9.5t-19.5 7.5v45h120l123 -196l79 122l-47 26v48h195v-45q-40 -16 -44 -22l-139 -173l129 -173q2 -3 10.5 -6.5t23.5 -8.5t20 -7v-45z" />
    <glyph glyph-name="y" unicode="y" horiz-adv-x="542" 
d="M246 -220h-109v45q40 16 49 30l59 145h-36l-126 378q-6 20 -14 27.5t-23 13.5l-30 6v55h135l117 -393h2l119 317q-9 10 -41 28v48h179v-45q-40 -19 -50 -31z" />
    <glyph glyph-name="z" unicode="z" horiz-adv-x="480" 
d="M417 0h-382v73l287 336h-153q-24 0 -33.5 -5.5t-14.5 -22.5l-8 -32h-56v131h360v-71l-280 -338h162q40 0 49 33l7 27h62v-131z" />
    <glyph glyph-name="braceleft" unicode="{" horiz-adv-x="376" 
d="M308 -150h-146v330q0 26 -19 36t-83 20v59q59 2 80.5 22t21.5 80v303h146v-47l-25 -3q-22 -2 -31 -12t-9 -36v-207q0 -44 -20.5 -73.5t-40.5 -37.5l-20 -7q81 -20 81 -97v-231q0 -25 9 -35t31 -13l25 -4v-47z" />
    <glyph glyph-name="bar" unicode="|" horiz-adv-x="455" 
d="M265 -150h-75v850h75v-850z" />
    <glyph glyph-name="braceright" unicode="}" horiz-adv-x="376" 
d="M231 -150h-146v47l25 3q22 2 31 12t9 36v207q0 26 8 48t18 34t23 21t19.5 11.5t11.5 3.5q-80 20 -80 97v231q0 25 -9 35t-31 13l-25 4v47h146v-330q0 -26 19 -36t83 -20v-59q-59 -2 -80.5 -22t-21.5 -80v-303z" />
    <glyph glyph-name="asciitilde" unicode="~" horiz-adv-x="590" 
d="M508 309v-58q-2 -3 -5.5 -8.5t-15.5 -20t-25.5 -25t-34.5 -19.5t-43 -9q-36 0 -68 20.5t-56 40.5t-40 20q-25 0 -42 -16t-22 -32l-4 -17h-54v59q2 3 5.5 8t15.5 18.5t25.5 23.5t34 18t41.5 8q30 0 55.5 -13t39.5 -28t32.5 -28t36.5 -13q25 0 43 18t23 36l5 17h53z" />
    <glyph glyph-name="uni007F" horiz-adv-x="0" 
 />
    <glyph glyph-name="uni00A0" unicode="&#xa0;" horiz-adv-x="250" 
 />
    <glyph glyph-name="exclamdown" unicode="&#xa1;" horiz-adv-x="360" 
d="M242 370h-106v110h106v-110zM242 -200h-106v116q0 43 6.5 134.5t13.5 161.5l6 71h53q7 -51 17 -176t10 -191v-116z" />
    <glyph glyph-name="cent" unicode="&#xa2;" horiz-adv-x="570" 
d="M322 -120h-57v110q-28 2 -53.5 7.5t-53 19t-47.5 32.5t-33 50.5t-13 71.5v138q0 45 19 80.5t50 55.5t63.5 31t67.5 14v99h57v-100q97 -7 166 -48l-7 -130h-69v77q-39 22 -90 27v-352q34 3 61.5 12.5t34.5 16.5h60v-63q-61 -29 -156 -38v-111zM265 62v355
q-21 -2 -39.5 -7.5t-37.5 -17t-30.5 -34.5t-11.5 -54v-125q0 -42 22.5 -69.5t46 -36t50.5 -11.5z" />
    <glyph glyph-name="sterling" unicode="&#xa3;" horiz-adv-x="560" 
d="M492 0h-464v60l49 8q22 4 27.5 14t5.5 43v181h-88v55h88v130q0 83 54 131.5t145 48.5q77 0 161 -30v-75h-52q-26 20 -50 25t-60 5q-44 0 -80 -25.5t-36 -79.5v-130h201v-55h-201v-186q0 -29 9.5 -39.5t32.5 -10.5h124q23 0 35.5 4.5t16 10t7.5 18.5l6 22h69v-125z" />
    <glyph glyph-name="currency" unicode="&#xa4;" horiz-adv-x="600" 
d="M478 57l-66 65q-51 -38 -113 -38q-64 0 -113 37l-64 -64l-42 42l64 64q-38 51 -38 114q0 62 38 113l-64 65l42 42l64 -65q51 37 113 37t113 -38l66 66l42 -42l-66 -66q37 -51 37 -112q0 -62 -37 -113l66 -65zM299 148q52 0 90 38.5t38 90.5t-38 90t-90 38t-90.5 -38
t-38.5 -90q0 -53 38 -91t91 -38z" />
    <glyph glyph-name="yen" unicode="&#xa5;" horiz-adv-x="590" 
d="M394 0h-202v50l22 5q19 4 27.5 13t8.5 33v122h-169v45h169v6l-50 89h-119v45h96l-99 184q-26 12 -55 22v46h211v-46q-38 -18 -53 -27l113 -233l113 226q-12 18 -51 33v47h211v-45q-51 -18 -55 -24l-102 -183h96v-45h-120l-51 -89v-6h171v-45h-171v-122q0 -23 10.5 -32.5
t32.5 -14.5l16 -4v-50z" />
    <glyph glyph-name="brokenbar" unicode="&#xa6;" horiz-adv-x="385" 
d="M248 -164h-93v317h93v-317zM248 404h-93v316h93v-316z" />
    <glyph glyph-name="section" unicode="&#xa7;" horiz-adv-x="660" 
d="M351 156q4 0 10 1.5t22.5 8t29 15.5t22.5 27t10 41q0 47 -34 76t-122 52q-4 0 -10 -1.5t-22.5 -8t-29 -15.5t-22.5 -27t-10 -41q0 -47 34 -76t122 -52zM195 11l5 -61q42 -29 120 -29q58 0 91.5 20.5t33.5 58.5q0 29 -34 49t-82.5 34.5t-97 34t-82.5 59t-34 97.5
q0 45 25.5 78.5t50.5 44.5l25 11q-54 21 -77.5 55t-23.5 69q0 150 210 150q115 0 190 -56l-4 -104h-66l-5 63q-12 11 -45.5 19t-69.5 8q-60 0 -92.5 -20t-32.5 -58q0 -29 33.5 -49t81 -35t95.5 -34.5t81.5 -59t33.5 -97.5q0 -29 -10.5 -53t-25.5 -38.5t-29.5 -24.5
t-25.5 -14l-10 -4q56 -22 78.5 -51t22.5 -72q0 -73 -54 -112t-151 -39q-122 0 -195 57l4 103h66z" />
    <glyph glyph-name="dieresis" unicode="&#xa8;" 
d="M158 560h-93v93h93v-93zM335 560h-93v93h93v-93z" />
    <glyph glyph-name="copyright" unicode="&#xa9;" horiz-adv-x="860" 
d="M592 213v-58q-88 -42 -161 -42q-30 0 -58.5 7.5t-58.5 25t-48.5 54t-18.5 87.5v56q0 51 16.5 87.5t44.5 55t58 26t65 7.5q57 0 101.5 -16.5t63.5 -34.5l-4 -109h-66l-5 68q-32 22 -90 22q-52 0 -75.5 -21t-23.5 -85v-56q0 -58 26.5 -81t72.5 -23q64 0 94 30h67zM811 334
v-54q0 -160 -100 -255.5t-281 -95.5t-281.5 95.5t-100.5 255.5v54q0 160 100.5 255.5t281.5 95.5t281 -95.5t100 -255.5zM736 283v48q0 289 -306 289q-307 0 -307 -289v-48q0 -289 307 -289q306 0 306 289z" />
    <glyph glyph-name="ordfeminine" unicode="&#xaa;" horiz-adv-x="520" 
d="M423 316h-69l-13 43q-5 -6 -14.5 -14.5t-42 -23t-68.5 -14.5q-49 0 -84.5 29.5t-35.5 82.5q0 48 32.5 76.5t90.5 28.5h112v24q0 77 -73 77q-41 0 -58.5 -12t-22.5 -36h-51q-3 30 -3 56q57 47 137 47q133 0 133 -132v-144q0 -17 6 -25t24 -16v-47zM331 416v58h-112
q-27 0 -42.5 -14t-15.5 -37q0 -30 18 -44t47 -14q32 0 58 12.5t36 25.5z" />
    <glyph glyph-name="guillemotleft" unicode="&#xab;" horiz-adv-x="600" 
d="M530 38l-40 -27h-7l-193 218v22l193 218h7l40 -27l-129 -202zM310 38l-40 -27h-6l-194 218v22l194 218h6l40 -27l-129 -202z" />
    <glyph glyph-name="logicalnot" unicode="&#xac;" horiz-adv-x="540" 
d="M440 181h-59l-5 69q-3 35 -40 35h-266v65h370v-169z" />
    <glyph glyph-name="uni00AD" unicode="&#xad;" horiz-adv-x="600" 
d="M525 220h-450v60h450v-60z" />
    <glyph glyph-name="registered" unicode="&#xae;" horiz-adv-x="860" 
d="M603 119h-88l-68 138h-78v-138h-107v41l19 6q16 5 16 25v237q0 19 -16 24l-19 7v46h213q38 0 65.5 -13t40 -33.5t18 -39t5.5 -35.5q0 -51 -25.5 -82t-67.5 -36l48 -77q10 -16 44 -25v-45zM369 316h109q29 0 45 18t16 50q0 29 -17.5 44t-46.5 15h-87q-19 0 -19 -23v-104z
M811 334v-54q0 -160 -100 -255.5t-281 -95.5t-281.5 95.5t-100.5 255.5v54q0 160 100.5 255.5t281.5 95.5t281 -95.5t100 -255.5zM736 283v48q0 289 -306 289q-307 0 -307 -289v-48q0 -289 307 -289q306 0 306 289z" />
    <glyph glyph-name="macron" unicode="&#xaf;" horiz-adv-x="350" 
d="M310 565h-270v60h270v-60z" />
    <glyph glyph-name="degree" unicode="&#xb0;" horiz-adv-x="402" 
d="M260 630v26q0 52 -61 52q-26 0 -43.5 -12.5t-17.5 -39.5v-26q0 -27 17.5 -40t43.5 -13q61 0 61 53zM329 654v-22q0 -55 -40.5 -82.5t-89.5 -27.5q-48 0 -88 27.5t-40 82.5v22q0 55 40 82.5t88 27.5q49 0 89.5 -27.5t40.5 -82.5z" />
    <glyph glyph-name="plusminus" unicode="&#xb1;" horiz-adv-x="600" 
d="M525 285h-190v-185h-70v185h-190v60h190v185h70v-185h190v-60zM526 21h-425v65h425v-65z" />
    <glyph glyph-name="twosuperior" unicode="&#xb2;" 
d="M350 480h-300v66q20 14 60.5 39.5t63.5 41.5t49.5 37.5t39 42t12.5 40.5v15q0 55 -70 55q-35 0 -52.5 -8t-31.5 -30h-58q-4 27 -4 54q59 44 146 44q19 0 38.5 -3.5t46 -14t43.5 -35.5t17 -62v-10q0 -26 -14.5 -53t-31.5 -46t-51 -44t-51 -35.5t-54 -33.5q27 5 51 5h74
q22 0 31 24h46v-89z" />
    <glyph glyph-name="threesuperior" unicode="&#xb3;" 
d="M348 611v-13q0 -37 -16 -63.5t-41 -39t-48 -17.5t-45 -5q-87 0 -146 44l4 54h58q14 -22 31.5 -30t52.5 -8q39 0 57 15.5t18 49.5v9q0 38 -35 41l-89 7v51h51q63 0 63 52v12q0 21 -16 34t-47 13q-34 0 -49 -7.5t-30 -30.5h-58q-4 27 -4 54q59 44 141 44q24 0 45.5 -4
t44 -15t35.5 -33.5t13 -54.5v-12q0 -24 -14.5 -41t-29.5 -21l-14 -5v-3q30 -3 49 -24.5t19 -52.5z" />
    <glyph glyph-name="acute" unicode="&#xb4;" horiz-adv-x="270" 
d="M116 525h-70l79 155h82v-16z" />
    <glyph glyph-name="mu" unicode="&#xb5;" horiz-adv-x="585" 
d="M540 0h-112l-15 61q-7 -7 -19.5 -18t-54.5 -29t-88 -18q-61 0 -93 32v-151q0 -26 5 -34t25 -14l15 -3v-46h-127v598q0 25 -8.5 33.5t-31.5 14.5l-14 3v51h136v-317q0 -97 98 -97q38 0 76 16.5t58 33.5l19 16v246q0 25 -9 33.5t-32 14.5l-14 3v51h137v-373
q0 -24 8.5 -32.5t30.5 -15.5l10 -3v-56z" />
    <glyph glyph-name="paragraph" unicode="&#xb6;" horiz-adv-x="698" 
d="M648 -140h-147v713q0 28 -13 38.5t-38 10.5h-9q-25 0 -38 -10.5t-13 -38.5v-713h-147v52l33 5q14 5 20 7.5t11.5 12.5t5.5 27v280h-39q-104 0 -172.5 59.5t-68.5 162.5q0 102 63.5 158.5t167.5 56.5h374v-56l-23 -6q-11 -3 -15.5 -5t-10.5 -6.5t-8.5 -13t-2.5 -21.5v-609
q0 -17 6 -26.5t13 -13t23 -8.5l28 -4v-52zM313 316v245q0 28 -9.5 38.5t-32.5 10.5q-76 0 -112 -39.5t-36 -103.5q0 -74 40 -112.5t115 -38.5h35z" />
    <glyph glyph-name="periodcentered" unicode="&#xb7;" horiz-adv-x="240" 
d="M170 246h-100v102h100v-102z" />
    <glyph glyph-name="cedilla" unicode="&#xb8;" horiz-adv-x="435" 
d="M234 -101h-75l-4 37l43 84h65l-41 -73h18q55 0 74 -22t19 -56q0 -48 -36.5 -72.5t-94.5 -24.5q-37 0 -100 12v55h36q30 -16 64 -16q69 0 69 42q0 17 -8 25.5t-29 8.5z" />
    <glyph glyph-name="onesuperior" unicode="&#xb9;" 
d="M337 480h-271v55l108 5v263h-102v47l111 20h61v-330l93 -5v-55z" />
    <glyph glyph-name="ordmasculine" unicode="&#xba;" horiz-adv-x="508" 
d="M408 536v-85q0 -39 -14.5 -68.5t-38.5 -45t-49 -22.5t-52 -7q-60 0 -107 34.5t-47 109.5v85q0 39 14.5 68.5t38.5 45t49 22.5t52 7q60 0 107 -34.5t47 -109.5zM346 454v80q0 46 -26 67.5t-66 21.5t-66 -21.5t-26 -67.5v-80q0 -89 92 -89t92 89z" />
    <glyph glyph-name="guillemotright" unicode="&#xbb;" horiz-adv-x="600" 
d="M117 11h-7l-40 27l129 202l-129 202l40 27h7l193 -218v-22zM336 11h-6l-40 27l129 202l-129 202l40 27h6l194 -218v-22z" />
    <glyph glyph-name="onequarter" unicode="&#xbc;" horiz-adv-x="877" 
d="M337 0h-55l316 680h56zM345 290h-271v55l108 5v263h-102v47l111 20h61v-330l93 -5v-55zM825 0h-175v37l32 4q14 1 19 12.5t5 42.5h-191v52l175 242h86v-237h56v-57h-56q0 -34 5.5 -44.5t23.5 -12.5l20 -3v-36zM706 153v155h-3l-111 -155h114z" />
    <glyph glyph-name="onehalf" unicode="&#xbd;" horiz-adv-x="929" 
d="M337 0h-55l316 680h56zM345 290h-271v55l108 5v263h-102v47l111 20h61v-330l93 -5v-55zM879 0h-300v66q20 14 60.5 39.5t63.5 41.5t49.5 37.5t39 42t12.5 40.5v15q0 55 -70 55q-35 0 -52.5 -8t-31.5 -30h-58q-4 27 -4 54q59 44 146 44q19 0 38.5 -3.5t46 -14t43.5 -35.5
t17 -62v-10q0 -26 -14.5 -53t-31.5 -46t-51 -44t-51 -35.5t-54 -33.5q27 5 51 5h74q22 0 31 24h46v-89z" />
    <glyph glyph-name="threequarters" unicode="&#xbe;" horiz-adv-x="911" 
d="M357 0h-55l316 680h56zM859 0h-175v37l32 4q14 1 19 12.5t5 42.5h-191v52l175 242h86v-237h56v-57h-56q0 -34 5.5 -44.5t23.5 -12.5l20 -3v-36zM740 153v155h-3l-111 -155h114zM382 421v-13q0 -37 -16 -63.5t-41 -39t-48 -17.5t-45 -5q-87 0 -146 44l4 54h58
q14 -22 31.5 -30t52.5 -8q39 0 57 15.5t18 49.5v9q0 38 -35 41l-89 7v51h51q63 0 63 52v12q0 21 -16 34t-47 13q-34 0 -49 -7.5t-30 -30.5h-58q-4 27 -4 54q59 44 141 44q24 0 45.5 -4t44 -15t35.5 -33.5t13 -54.5v-12q0 -24 -14.5 -41t-29.5 -21l-14 -5v-3q30 -3 49 -24.5
t19 -52.5z" />
    <glyph glyph-name="questiondown" unicode="&#xbf;" horiz-adv-x="450" 
d="M350 -56h63q7 -43 7 -85q-86 -66 -193 -66q-99 0 -148 41.5t-49 128.5q0 40 15.5 71t39 51t47.5 37t43 40t24 50l11 91h64q12 -65 12 -88q0 -35 -17 -62.5t-41.5 -47t-49 -38t-41.5 -45t-17 -59.5q0 -47 26 -68.5t87 -21.5q48 0 73 15t44 56zM296 370h-106v110h106v-110z
" />
    <glyph glyph-name="Agrave" unicode="&#xc0;" horiz-adv-x="651" 
d="M434 255l-100 356h-10l-106 -356h216zM639 0h-234v48l33 6q33 6 33 35q0 13 -25 97h-241q-24 -86 -24 -93q0 -34 33 -39l33 -6v-48h-235v48l26 6q35 7 43 34l185 592h129l175 -592q4 -16 12.5 -22.5t28.5 -11.5l28 -6v-48zM377 715h-70l-91 139v16h82z" />
    <glyph glyph-name="Aacute" unicode="&#xc1;" horiz-adv-x="651" 
d="M434 255l-100 356h-10l-106 -356h216zM639 0h-234v48l33 6q33 6 33 35q0 13 -25 97h-241q-24 -86 -24 -93q0 -34 33 -39l33 -6v-48h-235v48l26 6q35 7 43 34l185 592h129l175 -592q4 -16 12.5 -22.5t28.5 -11.5l28 -6v-48zM363 730h-70l79 155h82v-16z" />
    <glyph glyph-name="Acircumflex" unicode="&#xc2;" horiz-adv-x="651" 
d="M434 255l-100 356h-10l-106 -356h216zM639 0h-234v48l33 6q33 6 33 35q0 13 -25 97h-241q-24 -86 -24 -93q0 -34 33 -39l33 -6v-48h-235v48l26 6q35 7 43 34l185 592h129l175 -592q4 -16 12.5 -22.5t28.5 -11.5l28 -6v-48zM488 705h-75l-83 91l-82 -91h-75v25l120 120h75
l120 -120v-25z" />
    <glyph glyph-name="Atilde" unicode="&#xc3;" horiz-adv-x="651" 
d="M434 255l-100 356h-10l-106 -356h216zM639 0h-234v48l33 6q33 6 33 35q0 13 -25 97h-241q-24 -86 -24 -93q0 -34 33 -39l33 -6v-48h-235v48l26 6q35 7 43 34l185 592h129l175 -592q4 -16 12.5 -22.5t28.5 -11.5l28 -6v-48zM510 815v-21q-1 -4 -2.5 -9.5t-8.5 -20.5
t-17 -26.5t-29 -21t-43 -9.5q-29 0 -73 28.5t-65 28.5q-22 0 -35.5 -13t-16.5 -27l-2 -13h-58v22l2.5 10t10 22t20 28.5t33.5 22.5t49 10q35 0 76 -28.5t56 -28.5q19 0 31.5 11.5t15.5 23.5l2 11h54z" />
    <glyph glyph-name="Adieresis" unicode="&#xc4;" horiz-adv-x="651" 
d="M434 255l-100 356h-10l-106 -356h216zM639 0h-234v48l33 6q33 6 33 35q0 13 -25 97h-241q-24 -86 -24 -93q0 -34 33 -39l33 -6v-48h-235v48l26 6q35 7 43 34l185 592h129l175 -592q4 -16 12.5 -22.5t28.5 -11.5l28 -6v-48zM287 730h-93v93h93v-93zM464 730h-93v93h93v-93
z" />
    <glyph glyph-name="Aring" unicode="&#xc5;" horiz-adv-x="651" 
d="M446 750v-14q0 -55 -43 -83l167 -565q4 -16 12.5 -22.5t28.5 -11.5l28 -6v-48h-234v48l33 6q33 6 33 35q0 13 -25 97h-241q-24 -86 -24 -93q0 -34 33 -39l33 -6v-48h-235v48l26 6q35 7 43 34l176 564q-45 28 -45 84v14q0 49 34 76t82 27q49 0 83.5 -27t34.5 -76zM434 255
l-100 356h-10l-106 -356h216zM384 734v18q0 23 -16 36.5t-40 13.5t-39.5 -13.5t-15.5 -36.5v-18q0 -23 15.5 -37t39.5 -14q25 0 40.5 13.5t15.5 37.5z" />
    <glyph glyph-name="AE" unicode="&#xc6;" horiz-adv-x="951" 
d="M472 244v367h-51l-160 -367h211zM247 0h-235v48l34 7q16 4 23.5 10.5t14.5 20.5l279 594h502v-122h-56l-7 21q-6 18 -14.5 25t-32.5 7h-157q-22 0 -31.5 -10t-9.5 -38v-190h133q28 0 34.5 4t12.5 21l8 23h46v-160h-46l-8 23q-6 17 -12.5 21t-34.5 4h-133v-192
q0 -28 9.5 -38t31.5 -10h178q24 0 33 7t14 24l7 22h56v-122h-472v50l32 5q16 2 21 11t5 35v74h-240q-36 -82 -36 -94q0 -25 20 -28l31 -5v-48z" />
    <glyph glyph-name="Ccedilla" unicode="&#xc7;" horiz-adv-x="610" 
d="M321 -101h-75l-4 37l28 55q-97 10 -158.5 69t-61.5 181v185q0 134 74.5 199.5t189.5 65.5q117 0 218 -54q-1 -94 -7 -141h-77v88q-47 32 -134 32q-179 0 -179 -183v-190q0 -179 179 -179q90 0 153 50h65v-72q-38 -21 -95 -35.5t-104 -16.5l-24 -43h18q55 0 74 -22t19 -56
q0 -48 -36.5 -72.5t-94.5 -24.5q-37 0 -100 12v55h36q30 -16 64 -16q69 0 69 42q0 17 -8 25.5t-29 8.5z" />
    <glyph glyph-name="Egrave" unicode="&#xc8;" horiz-adv-x="587" 
d="M523 0h-468v50l23 5q19 4 27.5 13t8.5 33v478q0 24 -10 33t-32 14l-17 4v50h457v-123h-58l-6 21q-6 18 -15 25t-33 7h-165q-22 0 -29 -9.5t-7 -38.5v-188h127q29 0 37.5 4.5t13.5 20.5l7 23h49v-161h-49l-8 23q-5 16 -13.5 20.5t-36.5 4.5h-127v-191q0 -29 7 -38.5
t29 -9.5h176q24 0 33.5 7t14.5 24l6 22h58v-123zM378 725h-70l-91 139v16h82z" />
    <glyph glyph-name="Eacute" unicode="&#xc9;" horiz-adv-x="587" 
d="M523 0h-468v50l23 5q19 4 27.5 13t8.5 33v478q0 24 -10 33t-32 14l-17 4v50h457v-123h-58l-6 21q-6 18 -15 25t-33 7h-165q-22 0 -29 -9.5t-7 -38.5v-188h127q29 0 37.5 4.5t13.5 20.5l7 23h49v-161h-49l-8 23q-5 16 -13.5 20.5t-36.5 4.5h-127v-191q0 -29 7 -38.5
t29 -9.5h176q24 0 33.5 7t14.5 24l6 22h58v-123zM282 725h-70l79 155h82v-16z" />
    <glyph glyph-name="Ecircumflex" unicode="&#xca;" horiz-adv-x="587" 
d="M523 0h-468v50l23 5q19 4 27.5 13t8.5 33v478q0 24 -10 33t-32 14l-17 4v50h457v-123h-58l-6 21q-6 18 -15 25t-33 7h-165q-22 0 -29 -9.5t-7 -38.5v-188h127q29 0 37.5 4.5t13.5 20.5l7 23h49v-161h-49l-8 23q-5 16 -13.5 20.5t-36.5 4.5h-127v-191q0 -29 7 -38.5
t29 -9.5h176q24 0 33.5 7t14.5 24l6 22h58v-123zM459 735h-75l-83 91l-82 -91h-75v25l120 120h75l120 -120v-25z" />
    <glyph glyph-name="Edieresis" unicode="&#xcb;" horiz-adv-x="587" 
d="M523 0h-468v50l23 5q19 4 27.5 13t8.5 33v478q0 24 -10 33t-32 14l-17 4v50h457v-123h-58l-6 21q-6 18 -15 25t-33 7h-165q-22 0 -29 -9.5t-7 -38.5v-188h127q29 0 37.5 4.5t13.5 20.5l7 23h49v-161h-49l-8 23q-5 16 -13.5 20.5t-36.5 4.5h-127v-191q0 -29 7 -38.5
t29 -9.5h176q24 0 33.5 7t14.5 24l6 22h58v-123zM239 753h-93v93h93v-93zM416 753h-93v93h93v-93z" />
    <glyph glyph-name="Igrave" unicode="&#xcc;" horiz-adv-x="372" 
d="M288 0h-203v50l23 5q19 4 27.5 13t8.5 33v478q0 24 -10 33t-32 14l-17 4v50h203v-50l-17 -4q-22 -5 -32 -14t-10 -33v-478q0 -24 8.5 -33t27.5 -13l23 -5v-50zM224 725h-70l-91 139v16h82z" />
    <glyph glyph-name="Iacute" unicode="&#xcd;" horiz-adv-x="372" 
d="M288 0h-203v50l23 5q19 4 27.5 13t8.5 33v478q0 24 -10 33t-32 14l-17 4v50h203v-50l-17 -4q-22 -5 -32 -14t-10 -33v-478q0 -24 8.5 -33t27.5 -13l23 -5v-50zM224 725h-70l79 155h82v-16z" />
    <glyph glyph-name="Icircumflex" unicode="&#xce;" horiz-adv-x="372" 
d="M288 0h-203v50l23 5q19 4 27.5 13t8.5 33v478q0 24 -10 33t-32 14l-17 4v50h203v-50l-17 -4q-22 -5 -32 -14t-10 -33v-478q0 -24 8.5 -33t27.5 -13l23 -5v-50zM358 735h-75l-83 91l-82 -91h-75v25l120 120h75l120 -120v-25z" />
    <glyph glyph-name="Idieresis" unicode="&#xcf;" horiz-adv-x="372" 
d="M288 0h-203v50l23 5q19 4 27.5 13t8.5 33v478q0 24 -10 33t-32 14l-17 4v50h203v-50l-17 -4q-22 -5 -32 -14t-10 -33v-478q0 -24 8.5 -33t27.5 -13l23 -5v-50zM128 760h-93v93h93v-93zM305 760h-93v93h93v-93z" />
    <glyph glyph-name="Eth" unicode="&#xd0;" horiz-adv-x="670" 
d="M346 0h-272v50l23 5q19 4 27.5 13t8.5 33v187h-89v68h89v223q0 24 -10 33t-32 14l-17 4v50h296q123 0 193.5 -87.5t70.5 -258.5q0 -50 -9 -96.5t-30.5 -90.5t-53.5 -76t-82 -51.5t-113 -19.5zM269 75h79q40 0 73.5 12.5t62.5 40.5t45.5 80.5t16.5 125.5q0 139 -45.5 205
t-139.5 66h-92q-51 0 -51 -48v-201h113v-68h-113v-164q0 -49 51 -49z" />
    <glyph glyph-name="Ntilde" unicode="&#xd1;" horiz-adv-x="715" 
d="M602 0h-79l-330 551v-450q0 -24 8.5 -33t27.5 -13l23 -5v-50h-199v50l23 5q19 4 28 13t9 33v478q0 23 -9.5 32.5t-31.5 14.5l-17 4v50h154l313 -522v421q0 24 -10 33t-32 14l-17 4v50h198v-50l-17 -4q-22 -5 -32 -14t-10 -33v-579zM536 849v-21q-1 -4 -2.5 -9.5
t-8.5 -20.5t-17 -26.5t-29 -21t-43 -9.5q-29 0 -73 28.5t-65 28.5q-22 0 -35.5 -13t-16.5 -27l-2 -13h-58v22l2.5 10t10 22t20 28.5t33.5 22.5t49 10q35 0 76 -28.5t56 -28.5q19 0 31.5 11.5t15.5 23.5l2 11h54z" />
    <glyph glyph-name="Ograve" unicode="&#xd2;" horiz-adv-x="641" 
d="M501 243v198q0 175 -182 175q-179 0 -179 -175v-198q0 -98 46.5 -138.5t132.5 -40.5q87 0 134.5 40t47.5 139zM586 433v-187q0 -71 -22.5 -123t-61.5 -80t-84.5 -41t-98.5 -13t-97.5 13t-83.5 41t-61 80t-22 123v187q0 133 74 195.5t190 62.5q75 0 133 -24t96 -83.5
t38 -150.5zM397 725h-70l-91 139v16h82z" />
    <glyph glyph-name="Oacute" unicode="&#xd3;" horiz-adv-x="641" 
d="M501 243v198q0 175 -182 175q-179 0 -179 -175v-198q0 -98 46.5 -138.5t132.5 -40.5q87 0 134.5 40t47.5 139zM586 433v-187q0 -71 -22.5 -123t-61.5 -80t-84.5 -41t-98.5 -13t-97.5 13t-83.5 41t-61 80t-22 123v187q0 133 74 195.5t190 62.5q75 0 133 -24t96 -83.5
t38 -150.5zM321 725h-70l79 155h82v-16z" />
    <glyph glyph-name="Ocircumflex" unicode="&#xd4;" horiz-adv-x="641" 
d="M501 243v198q0 175 -182 175q-179 0 -179 -175v-198q0 -98 46.5 -138.5t132.5 -40.5q87 0 134.5 40t47.5 139zM586 433v-187q0 -71 -22.5 -123t-61.5 -80t-84.5 -41t-98.5 -13t-97.5 13t-83.5 41t-61 80t-22 123v187q0 133 74 195.5t190 62.5q75 0 133 -24t96 -83.5
t38 -150.5zM477 735h-75l-83 91l-82 -91h-75v25l120 120h75l120 -120v-25z" />
    <glyph glyph-name="Otilde" unicode="&#xd5;" horiz-adv-x="641" 
d="M501 243v198q0 175 -182 175q-179 0 -179 -175v-198q0 -98 46.5 -138.5t132.5 -40.5q87 0 134.5 40t47.5 139zM586 433v-187q0 -71 -22.5 -123t-61.5 -80t-84.5 -41t-98.5 -13t-97.5 13t-83.5 41t-61 80t-22 123v187q0 133 74 195.5t190 62.5q75 0 133 -24t96 -83.5
t38 -150.5zM505 849v-21q-1 -4 -2.5 -9.5t-8.5 -20.5t-17 -26.5t-29 -21t-43 -9.5q-29 0 -73 28.5t-65 28.5q-22 0 -35.5 -13t-15.5 -27l-3 -13h-58v22l2.5 10t10 22t20 28.5t33.5 22.5t49 10q35 0 76 -28.5t56 -28.5q19 0 31.5 11.5t14.5 23.5l3 11h54z" />
    <glyph glyph-name="Odieresis" unicode="&#xd6;" horiz-adv-x="641" 
d="M501 243v198q0 175 -182 175q-179 0 -179 -175v-198q0 -98 46.5 -138.5t132.5 -40.5q87 0 134.5 40t47.5 139zM586 433v-187q0 -71 -22.5 -123t-61.5 -80t-84.5 -41t-98.5 -13t-97.5 13t-83.5 41t-61 80t-22 123v187q0 133 74 195.5t190 62.5q75 0 133 -24t96 -83.5
t38 -150.5zM278 760h-93v93h93v-93zM455 760h-93v93h93v-93z" />
    <glyph glyph-name="multiply" unicode="&#xd7;" horiz-adv-x="600" 
d="M480 111h-71l-107 127h-4l-107 -127h-71v22l142 156l-142 158v22h70l109 -132h2l109 132h70v-22l-142 -158l142 -156v-22z" />
    <glyph glyph-name="Oslash" unicode="&#xd8;" horiz-adv-x="641" 
d="M156 -100h-56l59 128q-104 65 -104 218v187q0 133 74 195.5t190 62.5q74 0 133 -25l43 94h55l-54 -119q90 -67 90 -208v-187q0 -71 -22.5 -123t-61.5 -80t-84.5 -41t-98.5 -13q-60 0 -114 18zM192 100l228 496q-41 20 -101 20q-179 0 -179 -175v-198q0 -100 52 -143z
M501 243v198q0 80 -40 125l-225 -491q33 -11 83 -11q87 0 134.5 40t47.5 139z" />
    <glyph glyph-name="Ugrave" unicode="&#xd9;" horiz-adv-x="727" 
d="M534 243v336q0 24 -10 33t-32 14l-17 4v50h203v-50l-17 -4q-22 -5 -32 -14t-10 -33v-338q0 -71 -21 -122t-58 -78.5t-80.5 -39.5t-96.5 -12q-52 0 -95.5 12t-80.5 39.5t-57.5 78.5t-20.5 122v338q0 24 -10 33t-32 14l-17 4v50h203v-50l-17 -4q-22 -5 -32 -14t-10 -33
v-336q0 -47 13 -82t31 -53t43.5 -28.5t43.5 -13t38 -2.5q171 0 171 179zM435 725h-70l-91 139v16h82z" />
    <glyph glyph-name="Uacute" unicode="&#xda;" horiz-adv-x="727" 
d="M534 243v336q0 24 -10 33t-32 14l-17 4v50h203v-50l-17 -4q-22 -5 -32 -14t-10 -33v-338q0 -71 -21 -122t-58 -78.5t-80.5 -39.5t-96.5 -12q-52 0 -95.5 12t-80.5 39.5t-57.5 78.5t-20.5 122v338q0 24 -10 33t-32 14l-17 4v50h203v-50l-17 -4q-22 -5 -32 -14t-10 -33
v-336q0 -47 13 -82t31 -53t43.5 -28.5t43.5 -13t38 -2.5q171 0 171 179zM372 725h-70l79 155h82v-16z" />
    <glyph glyph-name="Ucircumflex" unicode="&#xdb;" horiz-adv-x="727" 
d="M534 243v336q0 24 -10 33t-32 14l-17 4v50h203v-50l-17 -4q-22 -5 -32 -14t-10 -33v-338q0 -71 -21 -122t-58 -78.5t-80.5 -39.5t-96.5 -12q-52 0 -95.5 12t-80.5 39.5t-57.5 78.5t-20.5 122v338q0 24 -10 33t-32 14l-17 4v50h203v-50l-17 -4q-22 -5 -32 -14t-10 -33
v-336q0 -47 13 -82t31 -53t43.5 -28.5t43.5 -13t38 -2.5q171 0 171 179zM520 735h-75l-83 91l-82 -91h-75v25l120 120h75l120 -120v-25z" />
    <glyph glyph-name="Udieresis" unicode="&#xdc;" horiz-adv-x="727" 
d="M534 243v336q0 24 -10 33t-32 14l-17 4v50h203v-50l-17 -4q-22 -5 -32 -14t-10 -33v-338q0 -71 -21 -122t-58 -78.5t-80.5 -39.5t-96.5 -12q-52 0 -95.5 12t-80.5 39.5t-57.5 78.5t-20.5 122v338q0 24 -10 33t-32 14l-17 4v50h203v-50l-17 -4q-22 -5 -32 -14t-10 -33
v-336q0 -47 13 -82t31 -53t43.5 -28.5t43.5 -13t38 -2.5q171 0 171 179zM320 760h-93v93h93v-93zM497 760h-93v93h93v-93z" />
    <glyph glyph-name="Yacute" unicode="&#xdd;" horiz-adv-x="634" 
d="M416 0h-203v50l23 5q19 4 27.5 13t8.5 33v173l-192 338q-16 10 -55 22v46h211v-46q-38 -18 -53 -27l133 -253l135 251q-27 19 -53 28v47h211v-45q-51 -18 -55 -24l-197 -337v-173q0 -24 8.5 -33t27.5 -13l23 -5v-50zM316 725h-70l79 155h82v-16z" />
    <glyph glyph-name="Thorn" unicode="&#xde;" horiz-adv-x="584" 
d="M199 217h128q59 0 93 33.5t34 96.5q0 133 -127 133h-128v-263zM258 0h-203v50l23 5q19 4 27.5 13t8.5 33v478q0 24 -10 33t-32 14l-17 4v50h203v-50l-17 -4q-22 -5 -32 -14t-10 -33v-29h135q106 0 158 -53t52 -150q0 -87 -57 -143.5t-153 -56.5h-135v-46q0 -24 8.5 -33
t27.5 -13l23 -5v-50z" />
    <glyph glyph-name="germandbls" unicode="&#xdf;" horiz-adv-x="618" 
d="M553 202v-63q0 -64 -44.5 -106.5t-133.5 -42.5q-72 0 -125 11v75h52q41 -16 73 -16q46 0 72 23.5t26 68.5v40q0 117 -123 117h-64v68l71 5q49 3 74.5 33t25.5 81q0 121 -126 121q-142 0 -142 -150v-467h-141v51l23 6q13 4 19.5 7t12 13t5.5 27v363q0 101 61 160.5
t162 59.5q96 0 153 -50t57 -134q0 -127 -105 -154v-2q59 -12 88 -45.5t29 -99.5z" />
    <glyph glyph-name="agrave" unicode="&#xe0;" horiz-adv-x="518" 
d="M478 0h-96l-20 48q-7 -7 -19.5 -16.5t-55 -26t-88.5 -16.5q-60 0 -105.5 36t-45.5 111q0 64 43 102.5t118 38.5h148v46q0 51 -26.5 74.5t-83.5 23.5q-31 0 -52.5 -6t-32.5 -19t-15 -23t-9 -27h-65q-3 48 -3 79q79 64 178 64q191 0 191 -166v-216q0 -30 5.5 -41.5
t20.5 -16.5l13 -3v-46zM357 111v104h-135q-43 0 -67.5 -19t-24.5 -55q0 -82 90 -82q35 0 69.5 13t50.5 26zM308 525h-70l-91 139v16h82z" />
    <glyph glyph-name="aacute" unicode="&#xe1;" horiz-adv-x="518" 
d="M478 0h-96l-20 48q-7 -7 -19.5 -16.5t-55 -26t-88.5 -16.5q-60 0 -105.5 36t-45.5 111q0 64 43 102.5t118 38.5h148v46q0 51 -26.5 74.5t-83.5 23.5q-31 0 -52.5 -6t-32.5 -19t-15 -23t-9 -27h-65q-3 48 -3 79q79 64 178 64q191 0 191 -166v-216q0 -30 5.5 -41.5
t20.5 -16.5l13 -3v-46zM357 111v104h-135q-43 0 -67.5 -19t-24.5 -55q0 -82 90 -82q35 0 69.5 13t50.5 26zM289 525h-70l79 155h82v-16z" />
    <glyph glyph-name="acircumflex" unicode="&#xe2;" horiz-adv-x="518" 
d="M478 0h-96l-20 48q-7 -7 -19.5 -16.5t-55 -26t-88.5 -16.5q-60 0 -105.5 36t-45.5 111q0 64 43 102.5t118 38.5h148v46q0 51 -26.5 74.5t-83.5 23.5q-31 0 -52.5 -6t-32.5 -19t-15 -23t-9 -27h-65q-3 48 -3 79q79 64 178 64q191 0 191 -166v-216q0 -30 5.5 -41.5
t20.5 -16.5l13 -3v-46zM357 111v104h-135q-43 0 -67.5 -19t-24.5 -55q0 -82 90 -82q35 0 69.5 13t50.5 26zM431 535h-75l-83 91l-82 -91h-75v25l120 120h75l120 -120v-25z" />
    <glyph glyph-name="atilde" unicode="&#xe3;" horiz-adv-x="518" 
d="M478 0h-96l-20 48q-7 -7 -19.5 -16.5t-55 -26t-88.5 -16.5q-60 0 -105.5 36t-45.5 111q0 64 43 102.5t118 38.5h148v46q0 51 -26.5 74.5t-83.5 23.5q-31 0 -52.5 -6t-32.5 -19t-15 -23t-9 -27h-65q-3 48 -3 79q79 64 178 64q191 0 191 -166v-216q0 -30 5.5 -41.5
t20.5 -16.5l13 -3v-46zM357 111v104h-135q-43 0 -67.5 -19t-24.5 -55q0 -82 90 -82q35 0 69.5 13t50.5 26zM439 649v-21q-1 -4 -2.5 -9.5t-8.5 -20.5t-17 -26.5t-29 -21t-43 -9.5q-29 0 -73 28.5t-65 28.5q-22 0 -35.5 -13t-15.5 -27l-3 -13h-58v22l2.5 10t10 22t20 28.5
t33.5 22.5t49 10q35 0 76 -28.5t56 -28.5q19 0 31.5 11.5t14.5 23.5l3 11h54z" />
    <glyph glyph-name="adieresis" unicode="&#xe4;" horiz-adv-x="518" 
d="M478 0h-96l-20 48q-7 -7 -19.5 -16.5t-55 -26t-88.5 -16.5q-60 0 -105.5 36t-45.5 111q0 64 43 102.5t118 38.5h148v46q0 51 -26.5 74.5t-83.5 23.5q-31 0 -52.5 -6t-32.5 -19t-15 -23t-9 -27h-65q-3 48 -3 79q79 64 178 64q191 0 191 -166v-216q0 -30 5.5 -41.5
t20.5 -16.5l13 -3v-46zM357 111v104h-135q-43 0 -67.5 -19t-24.5 -55q0 -82 90 -82q35 0 69.5 13t50.5 26zM212 560h-93v93h93v-93zM389 560h-93v93h93v-93z" />
    <glyph glyph-name="aring" unicode="&#xe5;" horiz-adv-x="518" 
d="M478 0h-96l-20 48q-7 -7 -19.5 -16.5t-55 -26t-88.5 -16.5q-60 0 -105.5 36t-45.5 111q0 64 43 102.5t118 38.5h148v46q0 51 -26.5 74.5t-83.5 23.5q-31 0 -52.5 -6t-32.5 -19t-15 -23t-9 -27h-65q-3 48 -3 79q79 64 178 64q191 0 191 -166v-216q0 -30 5.5 -41.5
t20.5 -16.5l13 -3v-46zM357 111v104h-135q-43 0 -67.5 -19t-24.5 -55q0 -82 90 -82q35 0 69.5 13t50.5 26zM319 634v18q0 23 -16 36.5t-40 13.5t-39.5 -13.5t-15.5 -36.5v-18q0 -23 15.5 -37t39.5 -14q25 0 40.5 13.5t15.5 37.5zM381 650v-14q0 -49 -34.5 -76t-83.5 -27
q-48 0 -82 27t-34 76v14q0 49 34 76t82 27q49 0 83.5 -27t34.5 -76z" />
    <glyph glyph-name="ae" unicode="&#xe6;" horiz-adv-x="812" 
d="M733 96v-71q-75 -36 -165 -36q-50 0 -98.5 18.5t-78.5 58.5q-67 -77 -185 -77q-61 0 -111 36.5t-50 110.5q0 64 43 102.5t118 38.5h148v46q0 51 -26.5 74.5t-83.5 23.5q-31 0 -52.5 -6t-32.5 -19t-15 -23t-9 -27h-65q-3 48 -3 79q79 64 178 64q114 0 155 -63
q58 65 164 65q27 0 52.5 -4.5t52.5 -18t47 -34t33 -55.5t13 -81v-83h-331v-35q0 -39 17 -65.5t43.5 -37.5t44.5 -14.5t32 -3.5q68 0 105 37h60zM682 277v31q0 35 -12.5 59t-33 34.5t-38 14.5t-34.5 4q-16 0 -31.5 -2.5t-42 -12.5t-43 -36.5t-16.5 -67.5v-24h251zM354 135v80
h-135q-43 0 -67.5 -19t-24.5 -55q0 -82 90 -82q27 0 50.5 8t39 19t26.5 22t16 19z" />
    <glyph glyph-name="ccedilla" unicode="&#xe7;" horiz-adv-x="500" 
d="M275 -101h-75l-4 37l27 55q-34 3 -62.5 13t-56 30t-43.5 55t-16 82v138q0 49 21 86.5t54.5 57t68 29t69.5 9.5q109 0 192 -50l-7 -120h-64l-5 73q-54 27 -116 27q-29 0 -56 -7.5t-51.5 -36.5t-24.5 -76v-122q0 -35 13 -60t34.5 -37t42 -16.5t42.5 -4.5q44 0 77.5 10.5
t44.5 20.5h60v-63q-63 -31 -154 -39l-23 -43h18q55 0 74 -22t19 -56q0 -48 -36.5 -72.5t-94.5 -24.5q-37 0 -100 12v55h36q30 -16 64 -16q69 0 69 42q0 17 -8 25.5t-29 8.5z" />
    <glyph glyph-name="egrave" unicode="&#xe8;" horiz-adv-x="523" 
d="M453 101v-65q-81 -47 -186 -47q-93 0 -155 47t-62 145v118q0 50 20.5 88.5t53.5 60t69 32.5t72 11q35 0 68 -8.5t66 -28t53.5 -60t20.5 -96.5v-86h-341v-32q0 -121 135 -121q75 0 126 42h60zM393 277v31q0 113 -128 113q-133 0 -133 -120v-24h261zM343 525h-70l-91 139
v16h82z" />
    <glyph glyph-name="eacute" unicode="&#xe9;" horiz-adv-x="523" 
d="M453 101v-65q-81 -47 -186 -47q-93 0 -155 47t-62 145v118q0 50 20.5 88.5t53.5 60t69 32.5t72 11q35 0 68 -8.5t66 -28t53.5 -60t20.5 -96.5v-86h-341v-32q0 -121 135 -121q75 0 126 42h60zM393 277v31q0 113 -128 113q-133 0 -133 -120v-24h261zM297 525h-70l79 155h82
v-16z" />
    <glyph glyph-name="ecircumflex" unicode="&#xea;" horiz-adv-x="523" 
d="M453 101v-65q-81 -47 -186 -47q-93 0 -155 47t-62 145v118q0 50 20.5 88.5t53.5 60t69 32.5t72 11q35 0 68 -8.5t66 -28t53.5 -60t20.5 -96.5v-86h-341v-32q0 -121 135 -121q75 0 126 42h60zM393 277v31q0 113 -128 113q-133 0 -133 -120v-24h261zM423 535h-75l-83 91
l-82 -91h-75v25l120 120h75l120 -120v-25z" />
    <glyph glyph-name="edieresis" unicode="&#xeb;" horiz-adv-x="523" 
d="M453 101v-65q-81 -47 -186 -47q-93 0 -155 47t-62 145v118q0 50 20.5 88.5t53.5 60t69 32.5t72 11q35 0 68 -8.5t66 -28t53.5 -60t20.5 -96.5v-86h-341v-32q0 -121 135 -121q75 0 126 42h60zM393 277v31q0 113 -128 113q-133 0 -133 -120v-24h261zM226 560h-93v93h93v-93
zM403 560h-93v93h93v-93z" />
    <glyph glyph-name="igrave" unicode="&#xec;" horiz-adv-x="307" 
d="M257 0h-202v49l33 6q17 3 22 11.5t5 35.5v292q0 16 -4.5 22.5t-15.5 9.5l-28 8v46h130v-378q0 -26 7 -35t26 -13l27 -5v-49zM210 525h-70l-91 139v16h82z" />
    <glyph glyph-name="iacute" unicode="&#xed;" horiz-adv-x="307" 
d="M257 0h-202v49l33 6q17 3 22 11.5t5 35.5v292q0 16 -4.5 22.5t-15.5 9.5l-28 8v46h130v-378q0 -26 7 -35t26 -13l27 -5v-49zM186 525h-70l79 155h82v-16z" />
    <glyph glyph-name="icircumflex" unicode="&#xee;" horiz-adv-x="307" 
d="M257 0h-202v49l33 6q17 3 22 11.5t5 35.5v292q0 16 -4.5 22.5t-15.5 9.5l-28 8v46h130v-378q0 -26 7 -35t26 -13l27 -5v-49zM315 535h-75l-83 91l-82 -91h-75v25l120 120h75l120 -120v-25z" />
    <glyph glyph-name="idieresis" unicode="&#xef;" horiz-adv-x="307" 
d="M257 0h-202v49l33 6q17 3 22 11.5t5 35.5v292q0 16 -4.5 22.5t-15.5 9.5l-28 8v46h130v-378q0 -26 7 -35t26 -13l27 -5v-49zM115 560h-93v93h93v-93zM290 560h-93v93h93v-93z" />
    <glyph glyph-name="eth" unicode="&#xf0;" horiz-adv-x="560" 
d="M463 301v-109q0 -89 -56 -146t-152 -57q-90 0 -150.5 50.5t-60.5 142.5v108q0 98 58 148t139 50q65 0 117 -18q-18 58 -49 105l-140 -38v55l107 29q-35 40 -74 76h101q32 -30 53 -54l107 29v-55l-73 -20q73 -115 73 -296zM382 193v96q0 48 -7 102q-45 27 -118 27
q-20 0 -40 -5.5t-41.5 -19t-35.5 -42t-14 -68.5v-95q0 -31 9 -55.5t22.5 -38t32 -22t33.5 -11t31 -2.5q128 0 128 134z" />
    <glyph glyph-name="ntilde" unicode="&#xf1;" horiz-adv-x="585" 
d="M556 0h-131v321q0 90 -103 90q-86 0 -148 -55v-254q0 -26 7 -35t26 -13l27 -5v-49h-202v49l33 6q17 3 22 11.5t5 35.5v271q0 24 -6 32.5t-24 12.5l-25 6v56h125l9 -58q27 27 68.5 45t85.5 18q15 0 26 -1t35.5 -5t43 -14.5t37.5 -27.5t29.5 -46.5t10.5 -68.5v-220
q0 -27 4 -35.5t23 -12.5l22 -5v-49zM465 649v-21q-1 -4 -2.5 -9.5t-8.5 -20.5t-17 -26.5t-29 -21t-43 -9.5q-29 0 -73 28.5t-65 28.5q-22 0 -35.5 -13t-15.5 -27l-3 -13h-58v22l2.5 10t10 22t20 28.5t33.5 22.5t49 10q35 0 76 -28.5t56 -28.5q19 0 31.5 11.5t14.5 23.5l3 11
h54z" />
    <glyph glyph-name="ograve" unicode="&#xf2;" horiz-adv-x="526" 
d="M481 289v-98q0 -98 -63.5 -150t-154.5 -52t-154.5 52t-63.5 150v98q0 98 63.5 150t154.5 52t154.5 -52t63.5 -150zM399 189v102q0 130 -136 130t-136 -130v-102q0 -130 136 -130t136 130zM328 525h-70l-91 139v16h82z" />
    <glyph glyph-name="oacute" unicode="&#xf3;" horiz-adv-x="526" 
d="M481 289v-98q0 -98 -63.5 -150t-154.5 -52t-154.5 52t-63.5 150v98q0 98 63.5 150t154.5 52t154.5 -52t63.5 -150zM399 189v102q0 130 -136 130t-136 -130v-102q0 -130 136 -130t136 130zM262 525h-70l79 155h82v-16z" />
    <glyph glyph-name="ocircumflex" unicode="&#xf4;" horiz-adv-x="526" 
d="M481 289v-98q0 -98 -63.5 -150t-154.5 -52t-154.5 52t-63.5 150v98q0 98 63.5 150t154.5 52t154.5 -52t63.5 -150zM399 189v102q0 130 -136 130t-136 -130v-102q0 -130 136 -130t136 130zM420 535h-75l-83 91l-82 -91h-75v25l120 120h75l120 -120v-25z" />
    <glyph glyph-name="otilde" unicode="&#xf5;" horiz-adv-x="526" 
d="M446 649v-21q-1 -4 -2.5 -9.5t-8.5 -20.5t-17 -26.5t-29 -21t-43 -9.5q-29 0 -73 28.5t-65 28.5q-22 0 -35.5 -13t-16.5 -27l-2 -13h-58v22l2.5 10t10 22t20 28.5t33.5 22.5t49 10q35 0 76 -28.5t56 -28.5q19 0 31.5 11.5t15.5 23.5l2 11h54zM481 289v-98
q0 -98 -63.5 -150t-154.5 -52t-154.5 52t-63.5 150v98q0 98 63.5 150t154.5 52t154.5 -52t63.5 -150zM399 189v102q0 130 -136 130t-136 -130v-102q0 -130 136 -130t136 130z" />
    <glyph glyph-name="odieresis" unicode="&#xf6;" horiz-adv-x="526" 
d="M481 289v-98q0 -98 -63.5 -150t-154.5 -52t-154.5 52t-63.5 150v98q0 98 63.5 150t154.5 52t154.5 -52t63.5 -150zM399 189v102q0 130 -136 130t-136 -130v-102q0 -130 136 -130t136 130zM221 560h-93v93h93v-93zM398 560h-93v93h93v-93z" />
    <glyph glyph-name="divide" unicode="&#xf7;" horiz-adv-x="600" 
d="M339 428h-80v87h80v-87zM339 35h-80v87h80v-87zM525 247h-450v60h450v-60z" />
    <glyph glyph-name="oslash" unicode="&#xf8;" horiz-adv-x="526" 
d="M148 -66h-54l40 86q-89 54 -89 169v98q0 98 63.5 150t154.5 52q42 0 84 -13l35 74h54l-44 -94q89 -55 89 -169v-98q0 -98 -63.5 -150t-154.5 -52q-42 0 -84 13zM400 187v102q0 66 -40 99l-151 -324q26 -7 54 -7q18 0 36 3.5t43.5 15t41.5 40t16 71.5zM166 87l151 324
q-25 8 -54 8q-14 0 -27 -1.5t-34 -9t-36.5 -20.5t-27 -38.5t-11.5 -60.5v-102q0 -68 39 -100z" />
    <glyph glyph-name="ugrave" unicode="&#xf9;" horiz-adv-x="585" 
d="M540 0h-112l-15 61q-2 -3 -6 -7.5t-18.5 -17t-32 -22t-46 -17t-60.5 -7.5q-12 0 -26.5 1.5t-43 10.5t-50 24.5t-38 48.5t-16.5 78v227q0 25 -8.5 33t-30.5 13l-15 3v51h136v-323q0 -97 98 -97q45 0 83.5 18t54.5 36l15 18v246q0 25 -9 34t-32 14l-14 3v51h137v-373
q0 -24 7 -32.5t28 -14.5l14 -4v-56zM367 525h-70l-91 139v16h82z" />
    <glyph glyph-name="uacute" unicode="&#xfa;" horiz-adv-x="585" 
d="M540 0h-112l-15 61q-2 -3 -6 -7.5t-18.5 -17t-32 -22t-46 -17t-60.5 -7.5q-12 0 -26.5 1.5t-43 10.5t-50 24.5t-38 48.5t-16.5 78v227q0 25 -8.5 33t-30.5 13l-15 3v51h136v-323q0 -97 98 -97q45 0 83.5 18t54.5 36l15 18v246q0 25 -9 34t-32 14l-14 3v51h137v-373
q0 -24 7 -32.5t28 -14.5l14 -4v-56zM271 525h-70l79 155h82v-16z" />
    <glyph glyph-name="ucircumflex" unicode="&#xfb;" horiz-adv-x="585" 
d="M540 0h-112l-15 61q-2 -3 -6 -7.5t-18.5 -17t-32 -22t-46 -17t-60.5 -7.5q-12 0 -26.5 1.5t-43 10.5t-50 24.5t-38 48.5t-16.5 78v227q0 25 -8.5 33t-30.5 13l-15 3v51h136v-323q0 -97 98 -97q45 0 83.5 18t54.5 36l15 18v246q0 25 -9 34t-32 14l-14 3v51h137v-373
q0 -24 7 -32.5t28 -14.5l14 -4v-56zM447 535h-75l-83 91l-82 -91h-75v25l120 120h75l120 -120v-25z" />
    <glyph glyph-name="udieresis" unicode="&#xfc;" horiz-adv-x="585" 
d="M540 0h-112l-15 61q-2 -3 -6 -7.5t-18.5 -17t-32 -22t-46 -17t-60.5 -7.5q-12 0 -26.5 1.5t-43 10.5t-50 24.5t-38 48.5t-16.5 78v227q0 25 -8.5 33t-30.5 13l-15 3v51h136v-323q0 -97 98 -97q45 0 83.5 18t54.5 36l15 18v246q0 25 -9 34t-32 14l-14 3v51h137v-373
q0 -24 7 -32.5t28 -14.5l14 -4v-56zM232 560h-93v93h93v-93zM409 560h-93v93h93v-93z" />
    <glyph glyph-name="yacute" unicode="&#xfd;" horiz-adv-x="542" 
d="M246 -220h-109v45q40 16 49 30l59 145h-36l-126 378q-6 20 -14 27.5t-23 13.5l-30 6v55h135l117 -393h2l119 317q-9 10 -41 28v48h179v-45q-40 -19 -50 -31zM283 525h-70l79 155h82v-16z" />
    <glyph glyph-name="thorn" unicode="&#xfe;" horiz-adv-x="550" 
d="M429 182v120q0 33 -12 57t-27 35.5t-35.5 18t-31.5 7.5t-22 1q-37 0 -69 -16t-46 -32l-13 -16v-246q26 -26 64.5 -37.5t60.5 -11.5q14 0 31 3.5t42 13.5t41.5 37t16.5 66zM219 -220h-173v46l20 5q16 4 21 12.5t5 33.5v727q0 25 -5 32.5t-26 13.5l-18 5v46h130v-263
q5 6 15.5 15t47.5 23.5t81 14.5q30 0 61 -9t62 -28t51 -57t20 -89v-133q0 -40 -12.5 -72.5t-32.5 -52.5t-47 -33.5t-53 -19t-52 -5.5q-92 0 -141 45v-160q0 -25 5 -33.5t21 -12.5l20 -5v-46z" />
    <glyph glyph-name="ydieresis" unicode="&#xff;" horiz-adv-x="542" 
d="M246 -220h-109v45q40 16 49 30l59 145h-36l-126 378q-6 20 -14 27.5t-23 13.5l-30 6v55h135l117 -393h2l119 317q-9 10 -41 28v48h179v-45q-40 -19 -50 -31zM227 560h-93v93h93v-93zM404 560h-93v93h93v-93z" />
    <glyph glyph-name="Amacron" unicode="&#x100;" horiz-adv-x="651" 
d="M434 255l-100 356h-10l-106 -356h216zM639 0h-234v48l33 6q33 6 33 35q0 13 -25 97h-241q-24 -86 -24 -93q0 -34 33 -39l33 -6v-48h-235v48l26 6q35 7 43 34l185 592h129l175 -592q4 -16 12.5 -22.5t28.5 -11.5l28 -6v-48zM463 715h-270v60h270v-60z" />
    <glyph glyph-name="amacron" unicode="&#x101;" horiz-adv-x="518" 
d="M478 0h-96l-20 48q-7 -7 -19.5 -16.5t-55 -26t-88.5 -16.5q-60 0 -105.5 36t-45.5 111q0 64 43 102.5t118 38.5h148v46q0 51 -26.5 74.5t-83.5 23.5q-31 0 -52.5 -6t-32.5 -19t-15 -23t-9 -27h-65q-3 48 -3 79q79 64 178 64q191 0 191 -166v-216q0 -30 5.5 -41.5
t20.5 -16.5l13 -3v-46zM357 111v104h-135q-43 0 -67.5 -19t-24.5 -55q0 -82 90 -82q35 0 69.5 13t50.5 26zM394 565h-270v60h270v-60z" />
    <glyph glyph-name="Abreve" unicode="&#x102;" horiz-adv-x="651" 
d="M434 255l-100 356h-10l-106 -356h216zM639 0h-234v48l33 6q33 6 33 35q0 13 -25 97h-241q-24 -86 -24 -93q0 -34 33 -39l33 -6v-48h-235v48l26 6q35 7 43 34l185 592h129l175 -592q4 -16 12.5 -22.5t28.5 -11.5l28 -6v-48zM465 861v-18q0 -35 -13 -60.5t-29.5 -37.5
t-38.5 -19.5t-34 -8.5t-22 -1t-22 1t-34 8.5t-38.5 19.5t-29.5 37.5t-13 60.5v18h67v-22q0 -30 18.5 -46.5t51.5 -16.5t51.5 16.5t18.5 46.5v22h67z" />
    <glyph glyph-name="abreve" unicode="&#x103;" horiz-adv-x="518" 
d="M478 0h-96l-20 48q-7 -7 -19.5 -16.5t-55 -26t-88.5 -16.5q-60 0 -105.5 36t-45.5 111q0 64 43 102.5t118 38.5h148v46q0 51 -26.5 74.5t-83.5 23.5q-31 0 -52.5 -6t-32.5 -19t-15 -23t-9 -27h-65q-3 48 -3 79q79 64 178 64q191 0 191 -166v-216q0 -30 5.5 -41.5
t20.5 -16.5l13 -3v-46zM357 111v104h-135q-43 0 -67.5 -19t-24.5 -55q0 -82 90 -82q35 0 69.5 13t50.5 26zM396 671v-18q0 -35 -13 -60.5t-29.5 -37.5t-38.5 -19.5t-34 -8.5t-22 -1t-22 1t-34 8.5t-38.5 19.5t-29.5 37.5t-13 60.5v18h67v-22q0 -30 18.5 -46.5t51.5 -16.5
t51.5 16.5t18.5 46.5v22h67z" />
    <glyph glyph-name="Aogonek" unicode="&#x104;" horiz-adv-x="651" 
d="M649 -226l-43 -22h-36q-40 0 -65.5 23t-25.5 63q0 85 108 162h-182v48l33 6q33 6 33 35q0 13 -25 97h-241q-24 -86 -24 -93q0 -34 33 -39l33 -6v-48h-235v48l26 6q35 7 43 34l185 592h129l175 -592q4 -16 12.5 -22.5t28.5 -11.5l28 -6v-48q-49 -49 -66 -79.5t-17 -60.5
q0 -49 54 -49h39v-37zM434 255l-100 356h-10l-106 -356h216z" />
    <glyph glyph-name="aogonek" unicode="&#x105;" horiz-adv-x="518" 
d="M489 -226l-43 -22h-36q-40 0 -65.5 23t-25.5 63q0 85 108 162q-51 0 -67 46q-7 -6 -19.5 -15.5t-54.5 -25.5t-87 -16q-60 0 -105.5 36t-45.5 111q0 64 43 102.5t118 38.5h148v46q0 51 -26.5 74.5t-83.5 23.5q-31 0 -52.5 -6t-32.5 -19t-15 -23t-9 -27h-65q-3 48 -3 79
q79 64 178 64q191 0 191 -166v-216q0 -30 5.5 -41.5t20.5 -16.5l13 -3v-46q-48 -49 -65 -79.5t-17 -60.5q0 -49 54 -49h39v-37zM357 109v106h-135q-43 0 -67.5 -19t-24.5 -55q0 -82 90 -82q35 0 69 12.5t51 24.5z" />
    <glyph glyph-name="Cacute" unicode="&#x106;" horiz-adv-x="583" 
d="M532 114v-72q-111 -53 -218 -53q-42 0 -78 7t-71 25t-60 46t-40 72.5t-15 101.5v185q0 134 74.5 199.5t189.5 65.5q117 0 218 -54q-1 -99 -7 -145h-74l-3 92q-47 32 -134 32q-179 0 -179 -183v-190q0 -179 179 -179q90 0 153 50h65zM336 715h-70l79 155h82v-16z" />
    <glyph glyph-name="cacute" unicode="&#x107;" horiz-adv-x="500" 
d="M440 92v-63q-82 -40 -182 -40q-28 0 -55 4t-56.5 16.5t-51 32t-36 53t-14.5 76.5v138q0 49 21 86.5t54.5 57t68 29t69.5 9.5q109 0 192 -50l-7 -120h-64l-5 73q-54 27 -116 27q-29 0 -56 -7.5t-51.5 -36.5t-24.5 -76v-122q0 -35 13 -60t34.5 -37t42 -16.5t42.5 -4.5
q44 0 77.5 10.5t44.5 20.5h60zM295 525h-70l79 155h82v-16z" />
    <glyph glyph-name="Ccircumflex" unicode="&#x108;" horiz-adv-x="583" 
d="M532 114v-72q-111 -53 -218 -53q-42 0 -78 7t-71 25t-60 46t-40 72.5t-15 101.5v185q0 134 74.5 199.5t189.5 65.5q117 0 218 -54q-1 -99 -7 -145h-74l-3 92q-47 32 -134 32q-179 0 -179 -183v-190q0 -179 179 -179q90 0 153 50h65zM472 735h-75l-83 91l-82 -91h-75v25
l120 120h75l120 -120v-25z" />
    <glyph glyph-name="ccircumflex" unicode="&#x109;" horiz-adv-x="500" 
d="M440 92v-63q-82 -40 -182 -40q-28 0 -55 4t-56.5 16.5t-51 32t-36 53t-14.5 76.5v138q0 49 21 86.5t54.5 57t68 29t69.5 9.5q109 0 192 -50l-7 -120h-64l-5 73q-54 27 -116 27q-29 0 -56 -7.5t-51.5 -36.5t-24.5 -76v-122q0 -35 13 -60t34.5 -37t42 -16.5t42.5 -4.5
q44 0 77.5 10.5t44.5 20.5h60zM417 535h-75l-83 91l-82 -91h-75v25l120 120h75l120 -120v-25z" />
    <glyph glyph-name="Cdotaccent" unicode="&#x10a;" horiz-adv-x="583" 
d="M532 114v-72q-111 -53 -218 -53q-42 0 -78 7t-71 25t-60 46t-40 72.5t-15 101.5v185q0 134 74.5 199.5t189.5 65.5q117 0 218 -54q-1 -99 -7 -145h-74l-3 92q-47 32 -134 32q-179 0 -179 -183v-190q0 -179 179 -179q90 0 153 50h65zM368 753h-93v93h93v-93z" />
    <glyph glyph-name="cdotaccent" unicode="&#x10b;" horiz-adv-x="500" 
d="M440 92v-63q-82 -40 -182 -40q-28 0 -55 4t-56.5 16.5t-51 32t-36 53t-14.5 76.5v138q0 49 21 86.5t54.5 57t68 29t69.5 9.5q109 0 192 -50l-7 -120h-64l-5 73q-54 27 -116 27q-29 0 -56 -7.5t-51.5 -36.5t-24.5 -76v-122q0 -35 13 -60t34.5 -37t42 -16.5t42.5 -4.5
q44 0 77.5 10.5t44.5 20.5h60zM306 560h-93v93h93v-93z" />
    <glyph glyph-name="Ccaron" unicode="&#x10c;" horiz-adv-x="583" 
d="M532 114v-72q-111 -53 -218 -53q-42 0 -78 7t-71 25t-60 46t-40 72.5t-15 101.5v185q0 134 74.5 199.5t189.5 65.5q117 0 218 -54q-1 -99 -7 -145h-74l-3 92q-47 32 -134 32q-179 0 -179 -183v-190q0 -179 179 -179q90 0 153 50h65zM349 735h-75l-120 120v25h75l82 -91
l83 91h75v-25z" />
    <glyph glyph-name="ccaron" unicode="&#x10d;" horiz-adv-x="500" 
d="M440 92v-63q-82 -40 -182 -40q-28 0 -55 4t-56.5 16.5t-51 32t-36 53t-14.5 76.5v138q0 49 21 86.5t54.5 57t68 29t69.5 9.5q109 0 192 -50l-7 -120h-64l-5 73q-54 27 -116 27q-29 0 -56 -7.5t-51.5 -36.5t-24.5 -76v-122q0 -35 13 -60t34.5 -37t42 -16.5t42.5 -4.5
q44 0 77.5 10.5t44.5 20.5h60zM287 535h-75l-120 120v25h75l82 -91l83 91h75v-25z" />
    <glyph glyph-name="Dcaron" unicode="&#x10e;" horiz-adv-x="665" 
d="M235 70h94q86 0 142 62t56 202q0 142 -47.5 209t-142.5 67h-102q-22 0 -29 -7t-7 -31v-463q0 -28 6.5 -33.5t29.5 -5.5zM327 0h-272v50l23 5q19 4 27.5 13t8.5 33v478q0 24 -10 33t-32 14l-17 4v50h291q125 0 197 -85.5t72 -260.5q0 -50 -9 -96.5t-30.5 -90.5t-53.5 -76
t-82 -51.5t-113 -19.5zM360 715h-75l-120 120v25h75l82 -91l83 91h75v-25z" />
    <glyph glyph-name="dcaron" unicode="&#x10f;" horiz-adv-x="659" 
d="M518 0h-105l-18 45q-5 -6 -16 -15.5t-50 -25t-85 -15.5q-30 0 -61 9t-62 28t-51 57t-20 89v133q0 40 12.5 72.5t32.5 52.5t47 33.5t53 19t52 5.5q92 0 141 -45v160q0 27 -5 35.5t-25 12.5l-15 3v46h126v-603q0 -24 6 -32.5t24 -13.5l19 -5v-46zM388 123v246
q-49 49 -125 49q-23 0 -43.5 -5t-41.5 -17t-33.5 -37t-12.5 -61v-120q0 -36 12.5 -61t33 -37t40.5 -16.5t42 -4.5q37 0 69 16t45 32zM609 525h-56l17 96q0 18 -10 22v57h79v-65z" />
    <glyph glyph-name="Dcroat" unicode="&#x110;" horiz-adv-x="665" 
d="M327 0h-272v50l23 5q19 4 27.5 13t8.5 33v194h-70v60h70v224q0 24 -10 33t-32 14l-17 4v50h291q125 0 197 -85.5t72 -260.5q0 -50 -9 -96.5t-30.5 -90.5t-53.5 -76t-82 -51.5t-113 -19.5zM235 70h94q86 0 142 62t56 202q0 142 -47.5 209t-142.5 67h-102q-22 0 -29 -7
t-7 -31v-217h115v-60h-115v-186q0 -28 6.5 -33.5t29.5 -5.5z" />
    <glyph glyph-name="dcroat" unicode="&#x111;" horiz-adv-x="550" 
d="M518 0h-105l-18 45q-5 -6 -16 -15.5t-50 -25t-85 -15.5q-30 0 -61 9t-62 28t-51 57t-20 89v133q0 40 12.5 72.5t32.5 52.5t47 33.5t53 19t52 5.5q92 0 141 -45v99h-108v60h108q0 28 -5 36.5t-25 12.5l-15 3v46h126v-98h81v-60h-81v-445q0 -24 6 -32.5t24 -13.5l19 -5v-46
zM388 123v246q-49 49 -125 49q-23 0 -43.5 -5t-41.5 -17t-33.5 -37t-12.5 -61v-120q0 -36 12.5 -61t33 -37t40.5 -16.5t42 -4.5q37 0 69 16t45 32z" />
    <glyph glyph-name="Emacron" unicode="&#x112;" horiz-adv-x="587" 
d="M523 0h-468v50l23 5q19 4 27.5 13t8.5 33v478q0 24 -10 33t-32 14l-17 4v50h457v-123h-58l-6 21q-6 18 -15 25t-33 7h-165q-22 0 -29 -9.5t-7 -38.5v-188h127q29 0 37.5 4.5t13.5 20.5l7 23h49v-161h-49l-8 23q-5 16 -13.5 20.5t-36.5 4.5h-127v-191q0 -29 7 -38.5
t29 -9.5h176q24 0 33.5 7t14.5 24l6 22h58v-123zM428 765h-270v60h270v-60z" />
    <glyph glyph-name="emacron" unicode="&#x113;" horiz-adv-x="523" 
d="M453 101v-65q-81 -47 -186 -47q-93 0 -155 47t-62 145v118q0 50 20.5 88.5t53.5 60t69 32.5t72 11q35 0 68 -8.5t66 -28t53.5 -60t20.5 -96.5v-86h-341v-32q0 -121 135 -121q75 0 126 42h60zM393 277v31q0 113 -128 113q-133 0 -133 -120v-24h261zM396 565h-270v60h270
v-60z" />
    <glyph glyph-name="Ebreve" unicode="&#x114;" horiz-adv-x="587" 
d="M523 0h-468v50l23 5q19 4 27.5 13t8.5 33v478q0 24 -10 33t-32 14l-17 4v50h457v-123h-58l-6 21q-6 18 -15 25t-33 7h-165q-22 0 -29 -9.5t-7 -38.5v-188h127q29 0 37.5 4.5t13.5 20.5l7 23h49v-161h-49l-8 23q-5 16 -13.5 20.5t-36.5 4.5h-127v-191q0 -29 7 -38.5
t29 -9.5h176q24 0 33.5 7t14.5 24l6 22h58v-123zM430 871v-18q0 -35 -13 -60.5t-29.5 -37.5t-38.5 -19.5t-34 -8.5t-22 -1t-22 1t-34 8.5t-38.5 19.5t-29.5 37.5t-13 60.5v18h67v-22q0 -30 18.5 -46.5t51.5 -16.5t51.5 16.5t18.5 46.5v22h67z" />
    <glyph glyph-name="ebreve" unicode="&#x115;" horiz-adv-x="523" 
d="M453 101v-65q-81 -47 -186 -47q-93 0 -155 47t-62 145v118q0 50 20.5 88.5t53.5 60t69 32.5t72 11q35 0 68 -8.5t66 -28t53.5 -60t20.5 -96.5v-86h-341v-32q0 -121 135 -121q75 0 126 42h60zM393 277v31q0 113 -128 113q-133 0 -133 -120v-24h261zM398 671v-18
q0 -35 -13 -60.5t-29.5 -37.5t-38.5 -19.5t-34 -8.5t-22 -1t-22 1t-34 8.5t-38.5 19.5t-29.5 37.5t-13 60.5v18h67v-22q0 -30 18.5 -46.5t51.5 -16.5t51.5 16.5t18.5 46.5v22h67z" />
    <glyph glyph-name="Edotaccent" unicode="&#x116;" horiz-adv-x="587" 
d="M523 0h-468v50l23 5q19 4 27.5 13t8.5 33v478q0 24 -10 33t-32 14l-17 4v50h457v-123h-58l-6 21q-6 18 -15 25t-33 7h-165q-22 0 -29 -9.5t-7 -38.5v-188h127q29 0 37.5 4.5t13.5 20.5l7 23h49v-161h-49l-8 23q-5 16 -13.5 20.5t-36.5 4.5h-127v-191q0 -29 7 -38.5
t29 -9.5h176q24 0 33.5 7t14.5 24l6 22h58v-123zM340 760h-93v93h93v-93z" />
    <glyph glyph-name="edotaccent" unicode="&#x117;" horiz-adv-x="523" 
d="M453 101v-65q-81 -47 -186 -47q-93 0 -155 47t-62 145v118q0 50 20.5 88.5t53.5 60t69 32.5t72 11q35 0 68 -8.5t66 -28t53.5 -60t20.5 -96.5v-86h-341v-32q0 -121 135 -121q75 0 126 42h60zM393 277v31q0 113 -128 113q-133 0 -133 -120v-24h261zM308 560h-93v93h93v-93
z" />
    <glyph glyph-name="Eogonek" unicode="&#x118;" horiz-adv-x="587" 
d="M532 -226l-43 -22h-36q-40 0 -65.5 23t-25.5 63q0 85 108 162h-415v50l23 5q19 4 27.5 13t8.5 33v478q0 24 -10 33t-32 14l-17 4v50h457v-123h-58l-6 21q-6 18 -15 25t-33 7h-165q-22 0 -29 -9.5t-7 -38.5v-188h127q29 0 37.5 4.5t13.5 20.5l7 23h49v-161h-49l-8 23
q-5 16 -13.5 20.5t-36.5 4.5h-127v-191q0 -29 7 -38.5t29 -9.5h176q24 0 33.5 7t14.5 24l6 22h58v-123h-2q-48 -49 -65 -79.5t-17 -60.5q0 -49 54 -49h39v-37z" />
    <glyph glyph-name="eogonek" unicode="&#x119;" horiz-adv-x="523" 
d="M326 -226l-43 -22h-36q-40 0 -65.5 23t-25.5 63q0 80 93 152q-87 4 -143 51t-56 140v118q0 50 20.5 88.5t53.5 60t69 32.5t72 11q35 0 68 -8.5t66 -28t53.5 -60t20.5 -96.5v-86h-341v-32q0 -121 135 -121q75 0 126 42h60v-65q-58 -35 -147 -45q-43 -45 -58 -73.5
t-15 -57.5q0 -49 54 -49h39v-37zM393 277v31q0 113 -128 113q-133 0 -133 -120v-24h261z" />
    <glyph glyph-name="Ecaron" unicode="&#x11a;" horiz-adv-x="587" 
d="M523 0h-468v50l23 5q19 4 27.5 13t8.5 33v478q0 24 -10 33t-32 14l-17 4v50h457v-123h-58l-6 21q-6 18 -15 25t-33 7h-165q-22 0 -29 -9.5t-7 -38.5v-188h127q29 0 37.5 4.5t13.5 20.5l7 23h49v-161h-49l-8 23q-5 16 -13.5 20.5t-36.5 4.5h-127v-191q0 -29 7 -38.5
t29 -9.5h176q24 0 33.5 7t14.5 24l6 22h58v-123zM331 735h-75l-120 120v25h75l82 -91l83 91h75v-25z" />
    <glyph glyph-name="ecaron" unicode="&#x11b;" horiz-adv-x="523" 
d="M453 101v-65q-81 -47 -186 -47q-93 0 -155 47t-62 145v118q0 50 20.5 88.5t53.5 60t69 32.5t72 11q35 0 68 -8.5t66 -28t53.5 -60t20.5 -96.5v-86h-341v-32q0 -121 135 -121q75 0 126 42h60zM393 277v31q0 113 -128 113q-133 0 -133 -120v-24h261zM299 535h-75l-120 120
v25h75l82 -91l83 91h75v-25z" />
    <glyph glyph-name="Gcircumflex" unicode="&#x11c;" horiz-adv-x="630" 
d="M560 0h-61l-22 47h-4q-23 -26 -69 -42t-90 -16q-42 0 -78 7t-71 25t-60 46t-40 72.5t-15 101.5v185q0 134 74.5 199.5t189.5 65.5q130 0 244 -64l-3 -137h-81v86q-58 40 -160 40q-33 0 -63 -9.5t-57 -29.5t-43 -57t-16 -87v-190q0 -47 14 -82t33.5 -53t46.5 -28.5t46 -13
t39 -2.5q49 0 93 22.5t66 59.5v110l-82 10v64h169v-330zM472 735h-75l-83 91l-82 -91h-75v25l120 120h75l120 -120v-25z" />
    <glyph glyph-name="gcircumflex" unicode="&#x11d;" horiz-adv-x="520" 
d="M325 -23h-115q-85 0 -120.5 25t-35.5 78q0 37 21 61.5t54 29.5q-36 17 -55.5 52.5t-19.5 77.5v10q0 50 20 87.5t52.5 56.5t65 27.5t65.5 8.5q112 0 153 -57q27 17 36 53h74v-53q-12 -16 -30.5 -28.5t-31.5 -17.5l-12 -4q16 -28 16 -73v-10q0 -48 -19 -83.5t-50.5 -54.5
t-65 -27.5t-70.5 -8.5q-17 0 -33.5 1.5t-22.5 1.5q-79 0 -79 -38q0 -24 19 -33.5t78 -9.5h112q67 0 106 -34.5t39 -96.5q0 -45 -19.5 -77t-53 -48t-68 -22.5t-74.5 -6.5q-41 0 -69.5 3t-65 13t-59 34.5t-27.5 62.5v48l52 15h30v-41q0 -65 139 -65q126 0 126 84q0 59 -62 59z
M380 296v24q0 40 -22.5 64.5t-47.5 31.5t-53 7q-47 0 -84 -24.5t-37 -78.5v-24q0 -53 37 -77t84 -24q28 0 53 6.5t47.5 30.5t22.5 64zM430 535h-75l-83 91l-82 -91h-75v25l120 120h75l120 -120v-25z" />
    <glyph glyph-name="Gbreve" unicode="&#x11e;" horiz-adv-x="630" 
d="M560 0h-61l-22 47h-4q-23 -26 -69 -42t-90 -16q-42 0 -78 7t-71 25t-60 46t-40 72.5t-15 101.5v185q0 134 74.5 199.5t189.5 65.5q130 0 244 -64l-3 -137h-81v86q-58 40 -160 40q-33 0 -63 -9.5t-57 -29.5t-43 -57t-16 -87v-190q0 -47 14 -82t33.5 -53t46.5 -28.5t46 -13
t39 -2.5q49 0 93 22.5t66 59.5v110l-82 10v64h169v-330zM452 871v-18q0 -35 -13 -60.5t-29.5 -37.5t-38.5 -19.5t-34 -8.5t-22 -1t-22 1t-34 8.5t-38.5 19.5t-29.5 37.5t-13 60.5v18h67v-22q0 -30 18.5 -46.5t51.5 -16.5t51.5 16.5t18.5 46.5v22h67z" />
    <glyph glyph-name="gbreve" unicode="&#x11f;" horiz-adv-x="520" 
d="M325 -23h-115q-85 0 -120.5 25t-35.5 78q0 37 21 61.5t54 29.5q-36 17 -55.5 52.5t-19.5 77.5v10q0 50 20 87.5t52.5 56.5t65 27.5t65.5 8.5q112 0 153 -57q27 17 36 53h74v-53q-12 -16 -30.5 -28.5t-31.5 -17.5l-12 -4q16 -28 16 -73v-10q0 -48 -19 -83.5t-50.5 -54.5
t-65 -27.5t-70.5 -8.5q-17 0 -33.5 1.5t-22.5 1.5q-79 0 -79 -38q0 -24 19 -33.5t78 -9.5h112q67 0 106 -34.5t39 -96.5q0 -45 -19.5 -77t-53 -48t-68 -22.5t-74.5 -6.5q-41 0 -69.5 3t-65 13t-59 34.5t-27.5 62.5v48l52 15h30v-41q0 -65 139 -65q126 0 126 84q0 59 -62 59z
M380 296v24q0 40 -22.5 64.5t-47.5 31.5t-53 7q-47 0 -84 -24.5t-37 -78.5v-24q0 -53 37 -77t84 -24q28 0 53 6.5t47.5 30.5t22.5 64zM409 671v-18q0 -35 -13 -60.5t-29.5 -37.5t-38.5 -19.5t-34 -8.5t-22 -1t-22 1t-34 8.5t-38.5 19.5t-29.5 37.5t-13 60.5v18h67v-22
q0 -30 18.5 -46.5t51.5 -16.5t51.5 16.5t18.5 46.5v22h67z" />
    <glyph glyph-name="Gdotaccent" unicode="&#x120;" horiz-adv-x="630" 
d="M560 0h-61l-22 47h-4q-23 -26 -69 -42t-90 -16q-42 0 -78 7t-71 25t-60 46t-40 72.5t-15 101.5v185q0 134 74.5 199.5t189.5 65.5q130 0 244 -64l-3 -137h-81v86q-58 40 -160 40q-33 0 -63 -9.5t-57 -29.5t-43 -57t-16 -87v-190q0 -47 14 -82t33.5 -53t46.5 -28.5t46 -13
t39 -2.5q49 0 93 22.5t66 59.5v110l-82 10v64h169v-330zM361 760h-93v93h93v-93z" />
    <glyph glyph-name="gdotaccent" unicode="&#x121;" horiz-adv-x="520" 
d="M325 -23h-115q-85 0 -120.5 25t-35.5 78q0 37 21 61.5t54 29.5q-36 17 -55.5 52.5t-19.5 77.5v10q0 50 20 87.5t52.5 56.5t65 27.5t65.5 8.5q112 0 153 -57q27 17 36 53h74v-53q-12 -16 -30.5 -28.5t-31.5 -17.5l-12 -4q16 -28 16 -73v-10q0 -48 -19 -83.5t-50.5 -54.5
t-65 -27.5t-70.5 -8.5q-17 0 -33.5 1.5t-22.5 1.5q-79 0 -79 -38q0 -24 19 -33.5t78 -9.5h112q67 0 106 -34.5t39 -96.5q0 -45 -19.5 -77t-53 -48t-68 -22.5t-74.5 -6.5q-41 0 -69.5 3t-65 13t-59 34.5t-27.5 62.5v48l52 15h30v-41q0 -65 139 -65q126 0 126 84q0 59 -62 59z
M380 296v24q0 40 -22.5 64.5t-47.5 31.5t-53 7q-47 0 -84 -24.5t-37 -78.5v-24q0 -53 37 -77t84 -24q28 0 53 6.5t47.5 30.5t22.5 64zM319 560h-93v93h93v-93z" />
    <glyph glyph-name="Gcommaaccent" unicode="&#x122;" horiz-adv-x="630" 
d="M560 0h-61l-22 47h-4q-23 -26 -69 -42t-90 -16q-42 0 -78 7t-71 25t-60 46t-40 72.5t-15 101.5v185q0 134 74.5 199.5t189.5 65.5q130 0 244 -64l-3 -137h-81v86q-58 40 -160 40q-33 0 -63 -9.5t-57 -29.5t-43 -57t-16 -87v-190q0 -47 14 -82t33.5 -53t46.5 -28.5t46 -13
t39 -2.5q49 0 93 22.5t66 59.5v110l-82 10v64h169v-330zM318 -275h-56l40 126q0 18 -10 19l-23 3v77h99v-95z" />
    <glyph glyph-name="gcommaaccent" unicode="&#x123;" horiz-adv-x="520" 
d="M325 -23h-115q-85 0 -120.5 25t-35.5 78q0 37 21 61.5t54 29.5q-36 17 -55.5 52.5t-19.5 77.5v10q0 50 20 87.5t52.5 56.5t65 27.5t65.5 8.5q112 0 153 -57q27 17 36 53h74v-53q-12 -16 -30.5 -28.5t-31.5 -17.5l-12 -4q16 -28 16 -73v-10q0 -48 -19 -83.5t-50.5 -54.5
t-65 -27.5t-70.5 -8.5q-17 0 -33.5 1.5t-22.5 1.5q-79 0 -79 -38q0 -24 19 -33.5t78 -9.5h112q67 0 106 -34.5t39 -96.5q0 -45 -19.5 -77t-53 -48t-68 -22.5t-74.5 -6.5q-41 0 -69.5 3t-65 13t-59 34.5t-27.5 62.5v48l52 15h30v-41q0 -65 139 -65q126 0 126 84q0 59 -62 59z
M380 296v24q0 40 -22.5 64.5t-47.5 31.5t-53 7q-47 0 -84 -24.5t-37 -78.5v-24q0 -53 37 -77t84 -24q28 0 53 6.5t47.5 30.5t22.5 64zM308 528h-99v95l50 130h56l-40 -126q0 -18 10 -19l23 -3v-77z" />
    <glyph glyph-name="Hcircumflex" unicode="&#x124;" horiz-adv-x="727" 
d="M672 0h-202v50l22 5q19 4 27.5 13t8.5 33v203h-329v-203q0 -23 10 -32.5t32 -14.5l16 -4v-50h-202v50l23 5q19 4 27.5 13t8.5 33v478q0 24 -10 33t-32 14l-17 4v50h202v-51l-21 -4q-19 -3 -28 -12.5t-9 -33.5v-207h329v207q0 23 -9.5 32.5t-31.5 14.5l-17 4v50h202v-51
l-22 -4q-19 -3 -28 -12.5t-9 -33.5v-478q0 -23 10.5 -32.5t32.5 -14.5l16 -4v-50zM521 735h-75l-83 91l-82 -91h-75v25l120 120h75l120 -120v-25z" />
    <glyph glyph-name="hcircumflex" unicode="&#x125;" horiz-adv-x="580" 
d="M556 0h-131v321q0 31 -13.5 51.5t-35 27.5t-32.5 9t-22 2q-81 0 -148 -55v-254q0 -26 7 -35t26 -13l27 -5v-49h-202v49l33 6q17 3 22 11.5t5 35.5v506q0 21 -5.5 29.5t-19.5 11.5l-20 5v46h127v-277q26 29 66.5 45.5t84.5 16.5q15 0 26 -1t35.5 -5t43 -14.5t37.5 -27.5
t29.5 -46.5t10.5 -68.5v-220q0 -27 4 -35.5t23 -12.5l22 -5v-49zM291 753h-75l-83 91l-82 -91h-75v25l120 120h75l120 -120v-25z" />
    <glyph glyph-name="Hbar" unicode="&#x126;" horiz-adv-x="727" 
d="M672 0h-202v50l22 5q19 4 27.5 13t8.5 33v203h-329v-203q0 -23 10 -32.5t32 -14.5l16 -4v-50h-202v50l23 5q19 4 27.5 13t8.5 33v379h-60v60h60v39q0 24 -10 33t-32 14l-17 4v50h202v-51l-21 -4q-19 -3 -28 -12.5t-9 -33.5v-39h329v39q0 23 -9.5 32.5t-31.5 14.5l-17 4
v50h202v-51l-22 -4q-19 -3 -28 -12.5t-9 -33.5v-39h60v-60h-60v-379q0 -23 10.5 -32.5t32.5 -14.5l16 -4v-50zM528 372v108h-329v-108h329z" />
    <glyph glyph-name="hbar" unicode="&#x127;" horiz-adv-x="580" 
d="M556 0h-131v321q0 31 -13.5 51.5t-35 27.5t-32.5 9t-22 2q-81 0 -148 -55v-254q0 -26 7 -35t26 -13l27 -5v-49h-202v49l33 6q17 3 22 11.5t5 35.5v433h-92v60h92v13q0 21 -5.5 29.5t-19.5 11.5l-20 5v46h127v-105h96v-60h-96v-112q26 29 66.5 45.5t84.5 16.5q15 0 26 -1
t35.5 -5t43 -14.5t37.5 -27.5t29.5 -46.5t10.5 -68.5v-220q0 -27 4 -35.5t23 -12.5l22 -5v-49z" />
    <glyph glyph-name="Itilde" unicode="&#x128;" horiz-adv-x="372" 
d="M288 0h-203v50l23 5q19 4 27.5 13t8.5 33v478q0 24 -10 33t-32 14l-17 4v50h203v-50l-17 -4q-22 -5 -32 -14t-10 -33v-478q0 -24 8.5 -33t27.5 -13l23 -5v-50zM361 849v-21q-1 -4 -2.5 -9.5t-8.5 -20.5t-17 -26.5t-29 -21t-43 -9.5q-29 0 -73 28.5t-65 28.5
q-22 0 -35.5 -13t-15.5 -27l-3 -13h-58v22l2.5 10t10 22t20 28.5t33.5 22.5t49 10q35 0 76 -28.5t56 -28.5q19 0 31.5 11.5t14.5 23.5l3 11h54z" />
    <glyph glyph-name="itilde" unicode="&#x129;" horiz-adv-x="307" 
d="M257 0h-202v49l33 6q17 3 22 11.5t5 35.5v292q0 16 -4.5 22.5t-15.5 9.5l-28 8v46h130v-378q0 -26 7 -35t26 -13l27 -5v-49zM283 639v-31q-1 -3 -2 -7.5t-7 -16t-14 -20.5t-23 -16t-34 -7q-24 0 -60.5 18.5t-52.5 18.5q-15 0 -25 -8t-12 -16l-2 -9h-58v32q1 3 2.5 7
t8.5 15t16.5 19t26 15t36.5 7q30 0 66 -18.5t46 -18.5q12 0 20.5 9t10.5 18l3 9h54z" />
    <glyph glyph-name="Imacron" unicode="&#x12a;" horiz-adv-x="372" 
d="M288 0h-203v50l23 5q19 4 27.5 13t8.5 33v478q0 24 -10 33t-32 14l-17 4v50h203v-50l-17 -4q-22 -5 -32 -14t-10 -33v-478q0 -24 8.5 -33t27.5 -13l23 -5v-50zM321 765h-270v60h270v-60z" />
    <glyph glyph-name="imacron" unicode="&#x12b;" horiz-adv-x="307" 
d="M257 0h-202v49l33 6q17 3 22 11.5t5 35.5v292q0 16 -4.5 22.5t-15.5 9.5l-28 8v46h130v-378q0 -26 7 -35t26 -13l27 -5v-49zM293 565h-270v60h270v-60z" />
    <glyph glyph-name="Ibreve" unicode="&#x12c;" horiz-adv-x="372" 
d="M288 0h-203v50l23 5q19 4 27.5 13t8.5 33v478q0 24 -10 33t-32 14l-17 4v50h203v-50l-17 -4q-22 -5 -32 -14t-10 -33v-478q0 -24 8.5 -33t27.5 -13l23 -5v-50zM323 871v-18q0 -35 -13 -60.5t-29.5 -37.5t-38.5 -19.5t-34 -8.5t-22 -1t-22 1t-34 8.5t-38.5 19.5
t-29.5 37.5t-13 60.5v18h67v-22q0 -30 18.5 -46.5t51.5 -16.5t51.5 16.5t18.5 46.5v22h67z" />
    <glyph glyph-name="ibreve" unicode="&#x12d;" horiz-adv-x="307" 
d="M291 671v-18q0 -35 -13 -60.5t-29.5 -37.5t-38.5 -19.5t-34 -8.5t-22 -1t-22 1t-34 8.5t-38.5 19.5t-29.5 37.5t-13 60.5v18h67v-22q0 -30 18.5 -46.5t51.5 -16.5t51.5 16.5t18.5 46.5v22h67zM257 0h-202v49l33 6q17 3 22 11.5t5 35.5v292q0 16 -4.5 22.5t-15.5 9.5
l-28 8v46h130v-378q0 -26 7 -35t26 -13l27 -5v-49z" />
    <glyph glyph-name="Iogonek" unicode="&#x12e;" horiz-adv-x="372" 
d="M299 -226l-43 -22h-36q-40 0 -65.5 23t-25.5 63q0 85 108 162h-152v50l23 5q19 4 27.5 13t8.5 33v478q0 24 -10 33t-32 14l-17 4v50h203v-50l-17 -4q-22 -5 -32 -14t-10 -33v-478q0 -24 8.5 -33t27.5 -13l23 -5v-50q-48 -49 -65 -79.5t-17 -60.5q0 -49 54 -49h39v-37z
" />
    <glyph glyph-name="iogonek" unicode="&#x12f;" horiz-adv-x="307" 
d="M239 -226l-43 -22h-36q-40 0 -65.5 23t-25.5 63q0 85 108 162h-122v49l33 6q17 3 22 11.5t5 35.5v292q0 16 -4.5 22.5t-15.5 9.5l-28 8v46h130v-378q0 -26 7 -35t26 -13l27 -5v-49h-29q-48 -49 -65 -79.5t-17 -60.5q0 -49 54 -49h39v-37zM197 560h-93v93h93v-93z" />
    <glyph glyph-name="Idotaccent" unicode="&#x130;" horiz-adv-x="372" 
d="M288 0h-203v50l23 5q19 4 27.5 13t8.5 33v478q0 24 -10 33t-32 14l-17 4v50h203v-50l-17 -4q-22 -5 -32 -14t-10 -33v-478q0 -24 8.5 -33t27.5 -13l23 -5v-50zM232 760h-93v93h93v-93z" />
    <glyph glyph-name="dotlessi" unicode="&#x131;" horiz-adv-x="307" 
d="M257 0h-202v49l33 6q17 3 22 11.5t5 35.5v292q0 16 -4.5 22.5t-15.5 9.5l-28 8v46h130v-378q0 -26 7 -35t26 -13l27 -5v-49z" />
    <glyph glyph-name="IJ" unicode="&#x132;" horiz-adv-x="737" 
d="M420 0h-22l-43 22v49h65q51 0 75 27t24 88v393q0 25 -8 34.5t-30 12.5l-31 4v50h212v-51l-23 -4q-18 -3 -26.5 -12.5t-8.5 -33.5v-393q0 -101 -43.5 -143.5t-140.5 -42.5zM288 0h-203v50l23 5q19 4 27.5 13t8.5 33v478q0 24 -10 33t-32 14l-17 4v50h203v-50l-17 -4
q-22 -5 -32 -14t-10 -33v-478q0 -24 8.5 -33t27.5 -13l23 -5v-50z" />
    <glyph glyph-name="ij" unicode="&#x133;" horiz-adv-x="587" 
d="M257 0h-202v49l33 6q17 3 22 11.5t5 35.5v292q0 16 -4.5 22.5t-15.5 9.5l-28 8v46h130v-378q0 -26 7 -35t26 -13l27 -5v-49zM197 560h-93v93h93v-93zM337 -191h-12l-43 22v49h55q39 0 61 22t22 63v429q0 16 -4.5 22.5t-15.5 9.5l-28 8v46h130v-515q0 -82 -40.5 -119
t-124.5 -37zM502 560h-93v93h93v-93z" />
    <glyph glyph-name="Jcircumflex" unicode="&#x134;" horiz-adv-x="525" 
d="M307 189v390q0 25 -8 34.5t-30 12.5l-31 4v50h212v-51l-23 -4q-18 -3 -26.5 -12.5t-8.5 -33.5v-391q0 -96 -56.5 -147.5t-147.5 -51.5q-45 0 -91 11t-72 28v91h58q11 -23 38 -39t67 -16q119 0 119 125zM501 735h-75l-83 91l-82 -91h-75v25l120 120h75l120 -120v-25z" />
    <glyph glyph-name="jcircumflex" unicode="&#x135;" horiz-adv-x="280" 
d="M298 535h-75l-83 91l-82 -91h-75v25l120 120h75l120 -120v-25zM30 -191h-12l-43 22v49h55q39 0 60.5 22t21.5 63v429q0 16 -4.5 22.5t-15.5 9.5l-28 8v46h130v-515q0 -82 -40 -119t-124 -37z" />
    <glyph glyph-name="Kcommaaccent" unicode="&#x136;" horiz-adv-x="659" 
d="M639 0h-136l-199 330l-106 -120v-109q0 -24 8.5 -33t27.5 -13l23 -5v-50h-203v50l23 5q19 4 27.5 13t8.5 33v478q0 24 -10 33t-32 14l-17 4v50h203v-50l-17 -4q-22 -5 -32 -14t-10 -33v-266l254 297q-16 11 -54 23v47h214v-48q-40 -15 -68 -35l-184 -209l212 -320l67 -16
v-52zM332 -275h-56l40 126q0 18 -10 19l-23 3v77h99v-95z" />
    <glyph glyph-name="kcommaaccent" unicode="&#x137;" horiz-adv-x="556" 
d="M526 0h-130l-133 226l-89 -87v-139h-142v49l33 6q17 3 22 11.5t5 35.5v514q0 28 -21 32l-24 6v46h127v-461l230 241h97v-47q-46 -17 -51 -22l-124 -131l122 -190q20 -30 44 -33l34 -5v-52zM281 -275h-56l40 126q0 18 -10 19l-23 3v77h99v-95z" />
    <glyph glyph-name="kgreenlandic" unicode="&#x138;" horiz-adv-x="556" 
d="M526 0h-130l-133 226l-89 -87v-139h-142v49l33 6q17 3 22 11.5t5 35.5v294q0 28 -21 32l-24 6v46h127v-241l230 241h97v-47q-46 -17 -51 -22l-124 -131l122 -190q20 -30 44 -33l34 -5v-52z" />
    <glyph glyph-name="Lacute" unicode="&#x139;" horiz-adv-x="520" 
d="M500 0h-445v55l22 5q19 4 27.5 13t8.5 33v473q0 24 -10 33t-32 14l-17 4v50h203v-50l-17 -4q-22 -5 -32 -14t-10 -33v-471q0 -18 7.5 -26.5t16 -10t27.5 -1.5h135q33 0 43.5 7t14.5 24l6 22h52v-123zM193 725h-70l79 155h82v-16z" />
    <glyph glyph-name="lacute" unicode="&#x13a;" horiz-adv-x="282" 
d="M242 0h-202v49l33 6q17 3 22 11.5t5 35.5v501q0 27 -5 35.5t-25 12.5l-15 3v46h127v-598q0 -26 7 -35t26 -13l27 -5v-49zM191 753h-70l79 155h82v-16z" />
    <glyph glyph-name="Lcommaaccent" unicode="&#x13b;" horiz-adv-x="520" 
d="M500 0h-445v55l22 5q19 4 27.5 13t8.5 33v473q0 24 -10 33t-32 14l-17 4v50h203v-50l-17 -4q-22 -5 -32 -14t-10 -33v-471q0 -18 7.5 -26.5t16 -10t27.5 -1.5h135q33 0 43.5 7t14.5 24l6 22h52v-123zM263 -275h-56l40 126q0 18 -10 19l-23 3v77h99v-95z" />
    <glyph glyph-name="lcommaaccent" unicode="&#x13c;" horiz-adv-x="282" 
d="M242 0h-202v49l33 6q17 3 22 11.5t5 35.5v501q0 27 -5 35.5t-25 12.5l-15 3v46h127v-598q0 -26 7 -35t26 -13l27 -5v-49zM144 -275h-56l40 126q0 18 -10 19l-23 3v77h99v-95z" />
    <glyph glyph-name="Lcaron" unicode="&#x13d;" horiz-adv-x="520" 
d="M500 0h-445v55l22 5q19 4 27.5 13t8.5 33v473q0 24 -10 33t-32 14l-17 4v50h203v-50l-17 -4q-22 -5 -32 -14t-10 -33v-471q0 -18 7.5 -26.5t16 -10t27.5 -1.5h135q33 0 43.5 7t14.5 24l6 22h52v-123zM437 455h-56l40 126q0 18 -10 19l-23 3v77h99v-95z" />
    <glyph glyph-name="lcaron" unicode="&#x13e;" horiz-adv-x="370" 
d="M242 0h-202v49l33 6q17 3 22 11.5t5 35.5v501q0 27 -5 35.5t-25 12.5l-15 3v46h127v-598q0 -26 7 -35t26 -13l27 -5v-49zM320 525h-56l17 96q0 18 -10 22v57h79v-65z" />
    <glyph glyph-name="Ldot" unicode="&#x13f;" horiz-adv-x="520" 
d="M500 0h-445v55l22 5q19 4 27.5 13t8.5 33v473q0 24 -10 33t-32 14l-17 4v50h203v-50l-17 -4q-22 -5 -32 -14t-10 -33v-471q0 -18 7.5 -26.5t16 -10t27.5 -1.5h135q33 0 43.5 7t14.5 24l6 22h52v-123zM420 296h-100v102h100v-102z" />
    <glyph glyph-name="ldot" unicode="&#x140;" horiz-adv-x="432" 
d="M242 0h-202v49l33 6q17 3 22 11.5t5 35.5v501q0 27 -5 35.5t-25 12.5l-15 3v46h127v-598q0 -26 7 -35t26 -13l27 -5v-49zM382 246h-100v102h100v-102z" />
    <glyph glyph-name="Lslash" unicode="&#x141;" horiz-adv-x="520" 
d="M198 579v-201h152v-66h-152v-204q0 -18 7.5 -26.5t16 -10t27.5 -1.5h135q33 0 43.5 7t14.5 24l6 22h52v-123h-445v55l22 5q19 4 27.5 13t8.5 33v206h-103v66h103v201q0 24 -10 33t-32 14l-17 4v50h203v-50l-17 -4q-22 -5 -32 -14t-10 -33z" />
    <glyph glyph-name="lslash" unicode="&#x142;" horiz-adv-x="282" 
d="M242 0h-202v49l38 6q15 4 18.5 11.5t3.5 35.5v213h-100v66h100v222q0 27 -5 35.5t-25 12.5l-15 3v46h127v-319h100v-66h-100v-213q0 -25 5.5 -35t20.5 -13l34 -5v-49z" />
    <glyph glyph-name="Nacute" unicode="&#x143;" horiz-adv-x="715" 
d="M602 0h-79l-330 551v-450q0 -24 8.5 -33t27.5 -13l23 -5v-50h-199v50l23 5q19 4 28 13t9 33v478q0 23 -9.5 32.5t-31.5 14.5l-17 4v50h154l313 -522v421q0 24 -10 33t-32 14l-17 4v50h198v-50l-17 -4q-22 -5 -32 -14t-10 -33v-579zM352 725h-70l79 155h82v-16z" />
    <glyph glyph-name="nacute" unicode="&#x144;" horiz-adv-x="585" 
d="M556 0h-131v321q0 90 -103 90q-86 0 -148 -55v-254q0 -26 7 -35t26 -13l27 -5v-49h-202v49l33 6q17 3 22 11.5t5 35.5v271q0 24 -6 32.5t-24 12.5l-25 6v56h125l9 -58q27 27 68.5 45t85.5 18q15 0 26 -1t35.5 -5t43 -14.5t37.5 -27.5t29.5 -46.5t10.5 -68.5v-220
q0 -27 4 -35.5t23 -12.5l22 -5v-49zM287 525h-70l79 155h82v-16z" />
    <glyph glyph-name="Ncommaaccent" unicode="&#x145;" horiz-adv-x="715" 
d="M602 0h-79l-330 551v-450q0 -24 8.5 -33t27.5 -13l23 -5v-50h-199v50l23 5q19 4 28 13t9 33v478q0 23 -9.5 32.5t-31.5 14.5l-17 4v50h154l313 -522v421q0 24 -10 33t-32 14l-17 4v50h198v-50l-17 -4q-22 -5 -32 -14t-10 -33v-579zM360 -275h-56l40 126q0 18 -10 19
l-23 3v77h99v-95z" />
    <glyph glyph-name="ncommaaccent" unicode="&#x146;" horiz-adv-x="585" 
d="M556 0h-131v321q0 90 -103 90q-86 0 -148 -55v-254q0 -26 7 -35t26 -13l27 -5v-49h-202v49l33 6q17 3 22 11.5t5 35.5v271q0 24 -6 32.5t-24 12.5l-25 6v56h125l9 -58q27 27 68.5 45t85.5 18q15 0 26 -1t35.5 -5t43 -14.5t37.5 -27.5t29.5 -46.5t10.5 -68.5v-220
q0 -27 4 -35.5t23 -12.5l22 -5v-49zM326 -275h-56l40 126q0 18 -10 19l-23 3v77h99v-95z" />
    <glyph glyph-name="Ncaron" unicode="&#x147;" horiz-adv-x="715" 
d="M602 0h-79l-330 551v-450q0 -24 8.5 -33t27.5 -13l23 -5v-50h-199v50l23 5q19 4 28 13t9 33v478q0 23 -9.5 32.5t-31.5 14.5l-17 4v50h154l313 -522v421q0 24 -10 33t-32 14l-17 4v50h198v-50l-17 -4q-22 -5 -32 -14t-10 -33v-579zM395 735h-75l-120 120v25h75l82 -91
l83 91h75v-25z" />
    <glyph glyph-name="ncaron" unicode="&#x148;" horiz-adv-x="585" 
d="M556 0h-131v321q0 90 -103 90q-86 0 -148 -55v-254q0 -26 7 -35t26 -13l27 -5v-49h-202v49l33 6q17 3 22 11.5t5 35.5v271q0 24 -6 32.5t-24 12.5l-25 6v56h125l9 -58q27 27 68.5 45t85.5 18q15 0 26 -1t35.5 -5t43 -14.5t37.5 -27.5t29.5 -46.5t10.5 -68.5v-220
q0 -27 4 -35.5t23 -12.5l22 -5v-49zM330 535h-75l-120 120v25h75l82 -91l83 91h75v-25z" />
    <glyph glyph-name="napostrophe" unicode="&#x149;" horiz-adv-x="585" 
d="M556 0h-131v321q0 90 -103 90q-86 0 -148 -55v-254q0 -26 7 -35t26 -13l27 -5v-49h-202v49l33 6q17 3 22 11.5t5 35.5v271q0 24 -6 32.5t-24 12.5l-25 6v56h125l9 -58q27 27 68.5 45t85.5 18q15 0 26 -1t35.5 -5t43 -14.5t37.5 -27.5t29.5 -46.5t10.5 -68.5v-220
q0 -27 4 -35.5t23 -12.5l22 -5v-49zM9 525h-56l17 96q0 18 -10 22v57h79v-65z" />
    <glyph glyph-name="Eng" unicode="&#x14a;" horiz-adv-x="715" 
d="M438 -191h-12l-43 22v49h55q39 0 61.5 22t22.5 63v40l-329 546v-450q0 -23 10.5 -32.5t32.5 -14.5l16 -4v-50h-197v50l22 5q19 4 27.5 13t8.5 33v478q0 23 -9.5 32.5t-31.5 14.5l-17 4v50h154l313 -522v421q0 24 -10 33t-32 14l-17 4v50h197v-51l-21 -4q-19 -3 -28 -12.5
t-9 -33.5v-614q0 -82 -40 -119t-124 -37z" />
    <glyph glyph-name="eng" unicode="&#x14b;" horiz-adv-x="585" 
d="M343 -191h-12l-43 22v49h55q39 0 60.5 22t21.5 63v356q0 90 -103 90q-86 0 -148 -55v-254q0 -26 7 -35t26 -13l27 -5v-49h-202v49l33 6q17 3 22 11.5t5 35.5v271q0 24 -6 32.5t-24 12.5l-25 6v56h125l9 -58q27 27 68.5 45t85.5 18q15 0 26 -1t35.5 -5t43 -14.5
t37.5 -27.5t29.5 -46.5t10.5 -68.5v-357q0 -82 -40 -119t-124 -37z" />
    <glyph glyph-name="Omacron" unicode="&#x14c;" horiz-adv-x="641" 
d="M501 243v198q0 175 -182 175q-179 0 -179 -175v-198q0 -98 46.5 -138.5t132.5 -40.5q87 0 134.5 40t47.5 139zM586 433v-187q0 -71 -22.5 -123t-61.5 -80t-84.5 -41t-98.5 -13t-97.5 13t-83.5 41t-61 80t-22 123v187q0 133 74 195.5t190 62.5q75 0 133 -24t96 -83.5
t38 -150.5zM455 765h-270v60h270v-60z" />
    <glyph glyph-name="omacron" unicode="&#x14d;" horiz-adv-x="526" 
d="M481 289v-98q0 -98 -63.5 -150t-154.5 -52t-154.5 52t-63.5 150v98q0 98 63.5 150t154.5 52t154.5 -52t63.5 -150zM399 189v102q0 130 -136 130t-136 -130v-102q0 -130 136 -130t136 130zM398 565h-270v60h270v-60z" />
    <glyph glyph-name="Obreve" unicode="&#x14e;" horiz-adv-x="641" 
d="M501 243v198q0 175 -182 175q-179 0 -179 -175v-198q0 -98 46.5 -138.5t132.5 -40.5q87 0 134.5 40t47.5 139zM586 433v-187q0 -71 -22.5 -123t-61.5 -80t-84.5 -41t-98.5 -13t-97.5 13t-83.5 41t-61 80t-22 123v187q0 133 74 195.5t190 62.5q75 0 133 -24t96 -83.5
t38 -150.5zM457 871v-18q0 -35 -13 -60.5t-29.5 -37.5t-38.5 -19.5t-34 -8.5t-22 -1t-22 1t-34 8.5t-38.5 19.5t-29.5 37.5t-13 60.5v18h67v-22q0 -30 18.5 -46.5t51.5 -16.5t51.5 16.5t18.5 46.5v22h67z" />
    <glyph glyph-name="obreve" unicode="&#x14f;" horiz-adv-x="526" 
d="M400 671v-18q0 -35 -13 -60.5t-29.5 -37.5t-38.5 -19.5t-34 -8.5t-22 -1t-22 1t-34 8.5t-38.5 19.5t-29.5 37.5t-13 60.5v18h67v-22q0 -30 18.5 -46.5t51.5 -16.5t51.5 16.5t18.5 46.5v22h67zM481 289v-98q0 -98 -63.5 -150t-154.5 -52t-154.5 52t-63.5 150v98
q0 98 63.5 150t154.5 52t154.5 -52t63.5 -150zM399 189v102q0 130 -136 130t-136 -130v-102q0 -130 136 -130t136 130z" />
    <glyph glyph-name="Ohungarumlaut" unicode="&#x150;" horiz-adv-x="641" 
d="M501 243v198q0 175 -182 175q-179 0 -179 -175v-198q0 -98 46.5 -138.5t132.5 -40.5q87 0 134.5 40t47.5 139zM586 433v-187q0 -71 -22.5 -123t-61.5 -80t-84.5 -41t-98.5 -13t-97.5 13t-83.5 41t-61 80t-22 123v187q0 133 74 195.5t190 62.5q75 0 133 -24t96 -83.5
t38 -150.5zM267 725h-68l72 175h87v-16zM425 725h-68l72 175h87v-16z" />
    <glyph glyph-name="ohungarumlaut" unicode="&#x151;" horiz-adv-x="526" 
d="M481 289v-98q0 -98 -63.5 -150t-154.5 -52t-154.5 52t-63.5 150v98q0 98 63.5 150t154.5 52t154.5 -52t63.5 -150zM399 189v102q0 130 -136 130t-136 -130v-102q0 -130 136 -130t136 130zM209 525h-68l72 175h87v-16zM367 525h-68l72 175h87v-16z" />
    <glyph glyph-name="OE" unicode="&#x152;" horiz-adv-x="985" 
d="M915 0h-505q-46 -11 -91 -11q-53 0 -97.5 13t-83.5 41t-61 80t-22 123v187q0 133 74 195.5t190 62.5q46 0 90 -11h485v-122h-56l-7 21q-4 13 -6.5 18.5t-12.5 9.5t-28 4h-256q58 -66 58 -178v-60h133q25 0 33.5 4.5t13.5 20.5l8 23h46v-160h-46l-8 23q-5 16 -13.5 20.5
t-33.5 4.5h-133v-63q0 -111 -58 -177h277q26 0 34 6.5t13 24.5l7 22h56v-122zM501 243v198q0 175 -182 175q-179 0 -179 -175v-198q0 -98 46.5 -138.5t132.5 -40.5q87 0 134.5 40t47.5 139z" />
    <glyph glyph-name="oe" unicode="&#x153;" horiz-adv-x="867" 
d="M793 96v-71q-75 -36 -175 -36q-123 0 -180 85q-58 -85 -175 -85q-91 0 -154.5 52t-63.5 150v98q0 98 63.5 150t154.5 52q117 0 174 -84q57 84 177 84q35 0 68 -8.5t66 -28t53.5 -60t20.5 -96.5v-86h-341v-32q0 -39 17 -65.5t43.5 -37.5t44.5 -14.5t32 -3.5q70 0 115 37
h60zM400 189v102q0 43 -16 71.5t-41.5 40t-43.5 15t-36 3.5q-14 0 -27 -1.5t-34 -9t-36.5 -20.5t-27 -38.5t-11.5 -60.5v-102q0 -35 11.5 -60.5t27 -38.5t36.5 -20.5t34 -9t27 -1.5q18 0 36 3.5t43.5 15t41.5 40t16 71.5zM742 277v31q0 35 -14 59t-36.5 34.5t-41 14.5
t-36.5 4q-16 0 -31.5 -2.5t-42 -12.5t-43 -36.5t-16.5 -67.5v-24h261z" />
    <glyph glyph-name="Racute" unicode="&#x154;" horiz-adv-x="631" 
d="M198 335h101q48 0 82.5 13.5t51 36t23.5 44.5t7 46q0 27 -5.5 48t-19.5 42.5t-44 33t-74 11.5h-93q-29 0 -29 -28v-247zM586 0h-138l-119 265h-131v-164q0 -24 8.5 -33t27.5 -13l23 -5v-50h-203v50l23 5q19 4 27.5 13t8.5 33v478q0 18 -4.5 25.5t-16.5 11.5l-37 11v53
h284q102 0 158 -56t56 -149q0 -151 -146 -197l98 -190q14 -26 45 -30l36 -5v-53zM310 725h-70l79 155h82v-16z" />
    <glyph glyph-name="racute" unicode="&#x155;" horiz-adv-x="457" 
d="M263 0h-218v50l27 5q19 4 23.5 12.5t4.5 34.5v276q0 25 -5.5 33t-25.5 12l-24 6v51h126l6 -123h5q55 78 86.5 100.5t62.5 22.5h96v-137h-61l-6 34q-2 12 -7 15t-23 3q-32 0 -59 -28q-45 -47 -67 -78.5t-22 -57.5v-129q0 -26 9.5 -36t30.5 -13l41 -6v-47zM223 525h-70
l79 155h82v-16z" />
    <glyph glyph-name="Rcommaaccent" unicode="&#x156;" horiz-adv-x="631" 
d="M198 335h101q48 0 82.5 13.5t51 36t23.5 44.5t7 46q0 27 -5.5 48t-19.5 42.5t-44 33t-74 11.5h-93q-29 0 -29 -28v-247zM586 0h-138l-119 265h-131v-164q0 -24 8.5 -33t27.5 -13l23 -5v-50h-203v50l23 5q19 4 27.5 13t8.5 33v478q0 18 -4.5 25.5t-16.5 11.5l-37 11v53
h284q102 0 158 -56t56 -149q0 -151 -146 -197l98 -190q14 -26 45 -30l36 -5v-53zM318 -275h-56l40 126q0 18 -10 19l-23 3v77h99v-95z" />
    <glyph glyph-name="rcommaaccent" unicode="&#x157;" horiz-adv-x="457" 
d="M263 0h-218v50l27 5q19 4 23.5 12.5t4.5 34.5v276q0 25 -5.5 33t-25.5 12l-24 6v51h126l6 -123h5q55 78 86.5 100.5t62.5 22.5h96v-137h-61l-6 34q-2 12 -7 15t-23 3q-32 0 -59 -28q-45 -47 -67 -78.5t-22 -57.5v-129q0 -26 9.5 -36t30.5 -13l41 -6v-47zM146 -275h-56
l40 126q0 18 -10 19l-23 3v77h99v-95z" />
    <glyph glyph-name="Rcaron" unicode="&#x158;" horiz-adv-x="631" 
d="M198 335h101q48 0 82.5 13.5t51 36t23.5 44.5t7 46q0 27 -5.5 48t-19.5 42.5t-44 33t-74 11.5h-93q-29 0 -29 -28v-247zM586 0h-138l-119 265h-131v-164q0 -24 8.5 -33t27.5 -13l23 -5v-50h-203v50l23 5q19 4 27.5 13t8.5 33v478q0 18 -4.5 25.5t-16.5 11.5l-37 11v53
h284q102 0 158 -56t56 -149q0 -151 -146 -197l98 -190q14 -26 45 -30l36 -5v-53zM353 735h-75l-120 120v25h75l82 -91l83 91h75v-25z" />
    <glyph glyph-name="rcaron" unicode="&#x159;" horiz-adv-x="457" 
d="M263 0h-218v50l27 5q19 4 23.5 12.5t4.5 34.5v276q0 25 -5.5 33t-25.5 12l-24 6v51h126l6 -123h5q55 78 86.5 100.5t62.5 22.5h96v-137h-61l-6 34q-2 12 -7 15t-23 3q-32 0 -59 -28q-45 -47 -67 -78.5t-22 -57.5v-129q0 -26 9.5 -36t30.5 -13l41 -6v-47zM266 535h-75
l-120 120v25h75l82 -91l83 91h75v-25z" />
    <glyph glyph-name="Sacute" unicode="&#x15a;" horiz-adv-x="565" 
d="M490 500h-73l-6 86q-21 13 -57.5 21.5t-65.5 8.5q-146 0 -146 -100q0 -47 38.5 -75.5t93 -43.5t109.5 -34t93.5 -61.5t38.5 -111.5q0 -94 -60 -147t-173 -53q-130 0 -228 54q0 47 2 81.5t4 45.5l2 11h70l10 -87q51 -30 140 -30q66 0 107 31.5t41 85.5q0 48 -38.5 78.5
t-93 48.5t-109.5 37.5t-93.5 59t-38.5 99.5q0 186 228 186q118 0 211 -52q0 -47 -1.5 -81.5t-2.5 -45.5zM320 725h-70l79 155h82v-16z" />
    <glyph glyph-name="sacute" unicode="&#x15b;" horiz-adv-x="483" 
d="M406 358h-60l-7 56q-42 17 -101 17q-104 0 -104 -63q0 -24 6.5 -36.5t40 -27.5t102.5 -28q155 -31 155 -130q0 -156 -208 -156q-37 0 -70 4.5t-48.5 9.5t-36.5 12.5t-23 8.5q2 72 4 108h61l8 -56q47 -21 111 -21q117 0 117 76q0 28 -7.5 40.5t-37.5 24.5t-101 28
q-151 33 -151 137q0 129 184 129q94 0 171 -30zM286 525h-70l79 155h82v-16z" />
    <glyph glyph-name="Scircumflex" unicode="&#x15c;" horiz-adv-x="565" 
d="M490 500h-73l-6 86q-21 13 -57.5 21.5t-65.5 8.5q-146 0 -146 -100q0 -47 38.5 -75.5t93 -43.5t109.5 -34t93.5 -61.5t38.5 -111.5q0 -94 -60 -147t-173 -53q-130 0 -228 54q0 47 2 81.5t4 45.5l2 11h70l10 -87q51 -30 140 -30q66 0 107 31.5t41 85.5q0 48 -38.5 78.5
t-93 48.5t-109.5 37.5t-93.5 59t-38.5 99.5q0 186 228 186q118 0 211 -52q0 -47 -1.5 -81.5t-2.5 -45.5zM440 735h-75l-83 91l-82 -91h-75v25l120 120h75l120 -120v-25z" />
    <glyph glyph-name="scircumflex" unicode="&#x15d;" horiz-adv-x="483" 
d="M406 358h-60l-7 56q-42 17 -101 17q-104 0 -104 -63q0 -24 6.5 -36.5t40 -27.5t102.5 -28q155 -31 155 -130q0 -156 -208 -156q-37 0 -70 4.5t-48.5 9.5t-36.5 12.5t-23 8.5q2 72 4 108h61l8 -56q47 -21 111 -21q117 0 117 76q0 28 -7.5 40.5t-37.5 24.5t-101 28
q-151 33 -151 137q0 129 184 129q94 0 171 -30zM399 535h-75l-83 91l-82 -91h-75v25l120 120h75l120 -120v-25z" />
    <glyph glyph-name="Scedilla" unicode="&#x15e;" horiz-adv-x="565" 
d="M299 -101h-75l-4 37l28 55q-111 7 -194 53q0 47 2 81.5t4 45.5l2 11h70l10 -87q51 -30 140 -30q66 0 107 31.5t41 85.5q0 48 -38.5 78.5t-93 48.5t-109.5 37.5t-93.5 59t-38.5 99.5q0 186 228 186q118 0 211 -52q0 -47 -1.5 -81.5t-2.5 -45.5l-2 -12h-73l-6 86
q-21 13 -57.5 21.5t-65.5 8.5q-146 0 -146 -100q0 -47 38.5 -75.5t93 -43.5t109.5 -34t93.5 -61.5t38.5 -111.5q0 -88 -52.5 -140t-150.5 -59l-25 -44h18q55 0 74 -22t19 -56q0 -48 -36.5 -72.5t-94.5 -24.5q-37 0 -100 12v55h36q30 -16 64 -16q69 0 69 42q0 17 -8 25.5
t-29 8.5z" />
    <glyph glyph-name="scedilla" unicode="&#x15f;" horiz-adv-x="483" 
d="M258 -101h-75l-4 37l28 55q-25 1 -47.5 4t-40 7.5t-28.5 8t-23.5 8.5t-15.5 6q2 72 4 108h61l8 -56q47 -21 111 -21q117 0 117 76q0 28 -7.5 40.5t-37.5 24.5t-101 28q-151 33 -151 137q0 129 184 129q94 0 171 -30l-5 -103h-60l-7 56q-42 17 -101 17q-104 0 -104 -63
q0 -24 6.5 -36.5t40 -27.5t102.5 -28q155 -31 155 -130q0 -139 -167 -154l-25 -45h18q55 0 74 -22t19 -56q0 -48 -36.5 -72.5t-94.5 -24.5q-37 0 -100 12v55h36q30 -16 64 -16q69 0 69 42q0 17 -8 25.5t-29 8.5z" />
    <glyph glyph-name="Scaron" unicode="&#x160;" horiz-adv-x="565" 
d="M490 500h-73l-6 86q-21 13 -57.5 21.5t-65.5 8.5q-146 0 -146 -100q0 -47 38.5 -75.5t93 -43.5t109.5 -34t93.5 -61.5t38.5 -111.5q0 -94 -60 -147t-173 -53q-130 0 -228 54q0 47 2 81.5t4 45.5l2 11h70l10 -87q51 -30 140 -30q66 0 107 31.5t41 85.5q0 48 -38.5 78.5
t-93 48.5t-109.5 37.5t-93.5 59t-38.5 99.5q0 186 228 186q118 0 211 -52q0 -47 -1.5 -81.5t-2.5 -45.5zM316 735h-75l-120 120v25h75l82 -91l83 91h75v-25z" />
    <glyph glyph-name="scaron" unicode="&#x161;" horiz-adv-x="536" 
d="M422 358h-60l-7 56q-43 17 -101 17q-104 0 -104 -63q0 -24 6.5 -36.5t40 -27.5t102.5 -28q155 -31 155 -130q0 -156 -208 -156q-37 0 -70 4.5t-48.5 9.5t-36.5 12.5t-23 8.5q2 72 4 108h61l8 -56q47 -21 111 -21q117 0 117 76q0 28 -7.5 40.5t-37.5 24.5t-101 28
q-151 33 -151 137q0 129 184 129q94 0 171 -30zM315 535h-75l-120 120v25h75l82 -91l83 91h75v-25z" />
    <glyph glyph-name="Tcommaaccent" unicode="&#x162;" horiz-adv-x="538" 
d="M370 0h-203v50l23 5q19 4 27.5 13t8.5 33v472l-2 37h-92q-28 0 -38 -7t-15 -25l-6 -21h-48v123h488v-123h-48l-7 21q-4 13 -7.5 18t-14 9.5t-30.5 4.5h-93l-2 -37v-472q0 -24 8.5 -33t27.5 -13l23 -5v-50zM272 -275h-56l40 126q0 18 -10 19l-23 3v77h99v-95z" />
    <glyph glyph-name="tcommaaccent" unicode="&#x163;" horiz-adv-x="390" 
d="M355 82v-64q-58 -23 -110 -23q-138 0 -138 121v299h-87v65h87v96l62 19h20v-115h134v-65h-134v-297q0 -28 13 -40.5t45 -12.5q33 0 60 17h48zM238 -275h-56l40 126q0 18 -10 19l-23 3v77h99v-95z" />
    <glyph glyph-name="Tcaron" unicode="&#x164;" horiz-adv-x="538" 
d="M370 0h-203v50l23 5q19 4 27.5 13t8.5 33v472l-2 37h-92q-28 0 -38 -7t-15 -25l-6 -21h-48v123h488v-123h-48l-7 21q-4 13 -7.5 18t-14 9.5t-30.5 4.5h-93l-2 -37v-472q0 -24 8.5 -33t27.5 -13l23 -5v-50zM306 735h-75l-120 120v25h75l82 -91l83 91h75v-25z" />
    <glyph glyph-name="tcaron" unicode="&#x165;" horiz-adv-x="375" 
d="M355 82v-64q-58 -23 -110 -23q-138 0 -138 121v299h-87v65h87v96l62 19h20v-115h134v-65h-134v-297q0 -28 13 -40.5t45 -12.5q33 0 60 17h48zM321 525h-56l17 96q0 18 -10 22v57h79v-65z" />
    <glyph glyph-name="Tbar" unicode="&#x166;" horiz-adv-x="538" 
d="M370 0h-203v50l23 5q19 4 27.5 13t8.5 33v185h-92v60h92v227l-2 37h-92q-28 0 -38 -7t-15 -25l-6 -21h-48v123h488v-123h-48l-7 21q-4 13 -7.5 18t-14 9.5t-30.5 4.5h-93l-2 -37v-227h93v-60h-93v-185q0 -24 8.5 -33t27.5 -13l23 -5v-50z" />
    <glyph glyph-name="tbar" unicode="&#x167;" horiz-adv-x="390" 
d="M355 82v-64q-58 -23 -110 -23q-138 0 -138 121v117h-87v65h87v117h-87v65h87v96l62 19h20v-115h134v-65h-134v-117h134v-65h-134v-115q0 -28 13 -40.5t45 -12.5q33 0 60 17h48z" />
    <glyph glyph-name="Utilde" unicode="&#x168;" horiz-adv-x="727" 
d="M534 243v336q0 24 -10 33t-32 14l-17 4v50h203v-50l-17 -4q-22 -5 -32 -14t-10 -33v-338q0 -71 -21 -122t-58 -78.5t-80.5 -39.5t-96.5 -12q-52 0 -95.5 12t-80.5 39.5t-57.5 78.5t-20.5 122v338q0 24 -10 33t-32 14l-17 4v50h203v-50l-17 -4q-22 -5 -32 -14t-10 -33
v-336q0 -47 13 -82t31 -53t43.5 -28.5t43.5 -13t38 -2.5q171 0 171 179zM537 849v-21q-1 -4 -2.5 -9.5t-8.5 -20.5t-17 -26.5t-29 -21t-43 -9.5q-29 0 -73 28.5t-65 28.5q-22 0 -35.5 -13t-15.5 -27l-3 -13h-58v22l2.5 10t10 22t20 28.5t33.5 22.5t49 10q35 0 76 -28.5
t56 -28.5q19 0 31.5 11.5t14.5 23.5l3 11h54z" />
    <glyph glyph-name="utilde" unicode="&#x169;" horiz-adv-x="585" 
d="M540 0h-112l-15 61q-2 -3 -6 -7.5t-18.5 -17t-32 -22t-46 -17t-60.5 -7.5q-12 0 -26.5 1.5t-43 10.5t-50 24.5t-38 48.5t-16.5 78v227q0 25 -8.5 33t-30.5 13l-15 3v51h136v-323q0 -97 98 -97q45 0 83.5 18t54.5 36l15 18v246q0 25 -9 34t-32 14l-14 3v51h137v-373
q0 -24 7 -32.5t28 -14.5l14 -4v-56zM467 649v-21q-1 -4 -2.5 -9.5t-8.5 -20.5t-17 -26.5t-29 -21t-43 -9.5q-29 0 -73 28.5t-65 28.5q-22 0 -35.5 -13t-15.5 -27l-3 -13h-58v22l2.5 10t10 22t20 28.5t33.5 22.5t49 10q35 0 76 -28.5t56 -28.5q19 0 31.5 11.5t14.5 23.5l3 11
h54z" />
    <glyph glyph-name="Umacron" unicode="&#x16a;" horiz-adv-x="727" 
d="M534 243v336q0 24 -10 33t-32 14l-17 4v50h203v-50l-17 -4q-22 -5 -32 -14t-10 -33v-338q0 -71 -21 -122t-58 -78.5t-80.5 -39.5t-96.5 -12q-52 0 -95.5 12t-80.5 39.5t-57.5 78.5t-20.5 122v338q0 24 -10 33t-32 14l-17 4v50h203v-50l-17 -4q-22 -5 -32 -14t-10 -33
v-336q0 -47 13 -82t31 -53t43.5 -28.5t43.5 -13t38 -2.5q171 0 171 179zM498 765h-270v60h270v-60z" />
    <glyph glyph-name="umacron" unicode="&#x16b;" horiz-adv-x="585" 
d="M540 0h-112l-15 61q-2 -3 -6 -7.5t-18.5 -17t-32 -22t-46 -17t-60.5 -7.5q-12 0 -26.5 1.5t-43 10.5t-50 24.5t-38 48.5t-16.5 78v227q0 25 -8.5 33t-30.5 13l-15 3v51h136v-323q0 -97 98 -97q45 0 83.5 18t54.5 36l15 18v246q0 25 -9 34t-32 14l-14 3v51h137v-373
q0 -24 7 -32.5t28 -14.5l14 -4v-56zM428 565h-270v60h270v-60z" />
    <glyph glyph-name="Ubreve" unicode="&#x16c;" horiz-adv-x="727" 
d="M534 243v336q0 24 -10 33t-32 14l-17 4v50h203v-50l-17 -4q-22 -5 -32 -14t-10 -33v-338q0 -71 -21 -122t-58 -78.5t-80.5 -39.5t-96.5 -12q-52 0 -95.5 12t-80.5 39.5t-57.5 78.5t-20.5 122v338q0 24 -10 33t-32 14l-17 4v50h203v-50l-17 -4q-22 -5 -32 -14t-10 -33
v-336q0 -47 13 -82t31 -53t43.5 -28.5t43.5 -13t38 -2.5q171 0 171 179zM500 871v-18q0 -35 -13 -60.5t-29.5 -37.5t-38.5 -19.5t-34 -8.5t-22 -1t-22 1t-34 8.5t-38.5 19.5t-29.5 37.5t-13 60.5v18h67v-22q0 -30 18.5 -46.5t51.5 -16.5t51.5 16.5t18.5 46.5v22h67z" />
    <glyph glyph-name="ubreve" unicode="&#x16d;" horiz-adv-x="585" 
d="M540 0h-112l-15 61q-2 -3 -6 -7.5t-18.5 -17t-32 -22t-46 -17t-60.5 -7.5q-12 0 -26.5 1.5t-43 10.5t-50 24.5t-38 48.5t-16.5 78v227q0 25 -8.5 33t-30.5 13l-15 3v51h136v-323q0 -97 98 -97q45 0 83.5 18t54.5 36l15 18v246q0 25 -9 34t-32 14l-14 3v51h137v-373
q0 -24 7 -32.5t28 -14.5l14 -4v-56zM432 671v-18q0 -35 -13 -60.5t-29.5 -37.5t-38.5 -19.5t-34 -8.5t-22 -1t-22 1t-34 8.5t-38.5 19.5t-29.5 37.5t-13 60.5v18h67v-22q0 -30 18.5 -46.5t51.5 -16.5t51.5 16.5t18.5 46.5v22h67z" />
    <glyph glyph-name="Uring" unicode="&#x16e;" horiz-adv-x="727" 
d="M534 243v336q0 24 -10 33t-32 14l-17 4v50h203v-50l-17 -4q-22 -5 -32 -14t-10 -33v-338q0 -71 -21 -122t-58 -78.5t-80.5 -39.5t-96.5 -12q-52 0 -95.5 12t-80.5 39.5t-57.5 78.5t-20.5 122v338q0 24 -10 33t-32 14l-17 4v50h203v-50l-17 -4q-22 -5 -32 -14t-10 -33
v-336q0 -47 13 -82t31 -53t43.5 -28.5t43.5 -13t38 -2.5q171 0 171 179zM418 834v18q0 23 -16 36.5t-40 13.5t-39.5 -13.5t-15.5 -36.5v-18q0 -23 15.5 -37t39.5 -14q25 0 40.5 13.5t15.5 37.5zM480 850v-14q0 -49 -34.5 -76t-83.5 -27q-48 0 -82 27t-34 76v14q0 49 34 76
t82 27q49 0 83.5 -27t34.5 -76z" />
    <glyph glyph-name="uring" unicode="&#x16f;" horiz-adv-x="585" 
d="M540 0h-112l-15 61q-2 -3 -6 -7.5t-18.5 -17t-32 -22t-46 -17t-60.5 -7.5q-12 0 -26.5 1.5t-43 10.5t-50 24.5t-38 48.5t-16.5 78v227q0 25 -8.5 33t-30.5 13l-15 3v51h136v-323q0 -97 98 -97q45 0 83.5 18t54.5 36l15 18v246q0 25 -9 34t-32 14l-14 3v51h137v-373
q0 -24 7 -32.5t28 -14.5l14 -4v-56zM347 634v18q0 23 -16 36.5t-40 13.5t-39.5 -13.5t-15.5 -36.5v-18q0 -23 15.5 -37t39.5 -14q25 0 40.5 13.5t15.5 37.5zM409 650v-14q0 -49 -34.5 -76t-83.5 -27q-48 0 -82 27t-34 76v14q0 49 34 76t82 27q49 0 83.5 -27t34.5 -76z" />
    <glyph glyph-name="Uhungarumlaut" unicode="&#x170;" horiz-adv-x="727" 
d="M534 243v336q0 24 -10 33t-32 14l-17 4v50h203v-50l-17 -4q-22 -5 -32 -14t-10 -33v-338q0 -71 -21 -122t-58 -78.5t-80.5 -39.5t-96.5 -12q-52 0 -95.5 12t-80.5 39.5t-57.5 78.5t-20.5 122v338q0 24 -10 33t-32 14l-17 4v50h203v-50l-17 -4q-22 -5 -32 -14t-10 -33
v-336q0 -47 13 -82t31 -53t43.5 -28.5t43.5 -13t38 -2.5q171 0 171 179zM311 725h-68l72 175h87v-16zM469 725h-68l72 175h87v-16z" />
    <glyph glyph-name="uhungarumlaut" unicode="&#x171;" horiz-adv-x="585" 
d="M540 0h-112l-15 61q-2 -3 -6 -7.5t-18.5 -17t-32 -22t-46 -17t-60.5 -7.5q-12 0 -26.5 1.5t-43 10.5t-50 24.5t-38 48.5t-16.5 78v227q0 25 -8.5 33t-30.5 13l-15 3v51h136v-323q0 -97 98 -97q45 0 83.5 18t54.5 36l15 18v246q0 25 -9 34t-32 14l-14 3v51h137v-373
q0 -24 7 -32.5t28 -14.5l14 -4v-56zM189 525h-68l72 175h87v-16zM347 525h-68l72 175h87v-16z" />
    <glyph glyph-name="Uogonek" unicode="&#x172;" horiz-adv-x="727" 
d="M400 -226l-43 -22h-36q-40 0 -65.5 23t-25.5 63q0 81 95 153q-216 19 -216 250v338q0 24 -10 33t-32 14l-17 4v50h203v-50l-17 -4q-22 -5 -32 -14t-10 -33v-336q0 -47 13 -82t31 -53t43.5 -28.5t43.5 -13t38 -2.5q171 0 171 179v336q0 24 -10 33t-32 14l-17 4v50h203v-50
l-17 -4q-22 -5 -32 -14t-10 -33v-338q0 -69 -19.5 -118.5t-54.5 -77t-76 -40.5t-91 -15q-41 -44 -56 -73t-15 -57q0 -49 54 -49h39v-37z" />
    <glyph glyph-name="uogonek" unicode="&#x173;" horiz-adv-x="585" 
d="M551 -226l-43 -22h-36q-40 0 -65.5 23t-25.5 63q0 85 108 162q-31 0 -51 16.5t-25 44.5q-2 -3 -6 -7.5t-18.5 -17t-32 -22t-46 -17t-60.5 -7.5q-12 0 -26.5 1.5t-43 10.5t-50 24.5t-38 48.5t-16.5 78v227q0 25 -8.5 33t-30.5 13l-15 3v51h136v-323q0 -97 98 -97
q45 0 83.5 18t54.5 36l15 18v246q0 25 -9 34t-32 14l-14 3v51h137v-373q0 -24 7 -32.5t28 -14.5l14 -4v-56q-48 -49 -65 -79.5t-17 -60.5q0 -49 54 -49h39v-37z" />
    <glyph glyph-name="Wcircumflex" unicode="&#x174;" horiz-adv-x="922" 
d="M719 0h-139l-117 434h-7l-111 -434h-138l-128 590q-8 35 -42 39l-27 3v48h234v-48l-27 -3q-44 -4 -44 -42q0 -4 2 -14l103 -492h11l135 498h77l146 -498h11l110 526q-14 11 -61 27v46h205v-45q-50 -19 -58 -29zM618 735h-75l-83 91l-82 -91h-75v25l120 120h75l120 -120
v-25z" />
    <glyph glyph-name="wcircumflex" unicode="&#x175;" horiz-adv-x="766" 
d="M618 0h-120l-90 259l-114 -259h-112l-116 394q-9 26 -35 32l-21 6v48h125l105 -405h12l119 271l-14 45q-3 15 -10.5 22.5t-25.5 12.5l-20 6v48h114l136 -405h8l104 405h93v-48q-23 -18 -30 -44zM543 535h-75l-83 91l-82 -91h-75v25l120 120h75l120 -120v-25z" />
    <glyph glyph-name="Ycircumflex" unicode="&#x176;" horiz-adv-x="634" 
d="M416 0h-203v50l23 5q19 4 27.5 13t8.5 33v173l-192 338q-16 10 -55 22v46h211v-46q-38 -18 -53 -27l133 -253l135 251q-27 19 -53 28v47h211v-45q-51 -18 -55 -24l-197 -337v-173q0 -24 8.5 -33t27.5 -13l23 -5v-50zM474 735h-75l-83 91l-82 -91h-75v25l120 120h75
l120 -120v-25z" />
    <glyph glyph-name="ycircumflex" unicode="&#x177;" horiz-adv-x="542" 
d="M246 -220h-109v45q40 16 49 30l59 145h-36l-126 378q-6 20 -14 27.5t-23 13.5l-30 6v55h135l117 -393h2l119 317q-9 10 -41 28v48h179v-45q-40 -19 -50 -31zM428 535h-75l-83 91l-82 -91h-75v25l120 120h75l120 -120v-25z" />
    <glyph glyph-name="Ydieresis" unicode="&#x178;" horiz-adv-x="634" 
d="M416 0h-203v50l23 5q19 4 27.5 13t8.5 33v173l-192 338q-16 10 -55 22v46h211v-46q-38 -18 -53 -27l133 -253l135 251q-27 19 -53 28v47h211v-45q-51 -18 -55 -24l-197 -337v-173q0 -24 8.5 -33t27.5 -13l23 -5v-50zM274 760h-93v93h93v-93zM451 760h-93v93h93v-93z" />
    <glyph glyph-name="Zacute" unicode="&#x179;" horiz-adv-x="558" 
d="M508 0h-468v72l360 534h-226q-36 0 -42 -23l-9 -36h-61v133h446v-71l-363 -535h249q25 0 36 7.5t15 23.5l6 22h57v-127zM324 725h-70l79 155h82v-16z" />
    <glyph glyph-name="zacute" unicode="&#x17a;" horiz-adv-x="480" 
d="M417 0h-382v73l287 336h-153q-24 0 -33.5 -5.5t-14.5 -22.5l-8 -32h-56v131h360v-71l-280 -338h162q40 0 49 33l7 27h62v-131zM285 525h-70l79 155h82v-16z" />
    <glyph glyph-name="Zdotaccent" unicode="&#x17b;" horiz-adv-x="558" 
d="M508 0h-468v72l360 534h-226q-36 0 -42 -23l-9 -36h-61v133h446v-71l-363 -535h249q25 0 36 7.5t15 23.5l6 22h57v-127zM325 760h-93v93h93v-93z" />
    <glyph glyph-name="zdotaccent" unicode="&#x17c;" horiz-adv-x="480" 
d="M417 0h-382v73l287 336h-153q-24 0 -33.5 -5.5t-14.5 -22.5l-8 -32h-56v131h360v-71l-280 -338h162q40 0 49 33l7 27h62v-131zM286 560h-93v93h93v-93z" />
    <glyph glyph-name="Zcaron" unicode="&#x17d;" horiz-adv-x="558" 
d="M508 0h-468v72l360 534h-226q-36 0 -42 -23l-9 -36h-61v133h446v-71l-363 -535h249q25 0 36 7.5t15 23.5l6 22h57v-127zM332 735h-75l-120 120v25h75l82 -91l83 91h75v-25z" />
    <glyph glyph-name="zcaron" unicode="&#x17e;" horiz-adv-x="480" 
d="M417 0h-382v73l287 336h-153q-24 0 -33.5 -5.5t-14.5 -22.5l-8 -32h-56v131h360v-71l-280 -338h162q40 0 49 33l7 27h62v-131zM277 535h-75l-120 120v25h75l82 -91l83 91h75v-25z" />
    <glyph glyph-name="longs" unicode="&#x17f;" horiz-adv-x="358" 
d="M264 0h-212v49l33 6q17 3 22 11.5t5 35.5v313h-87v65h87v74q0 73 41 109.5t109 36.5q60 0 111 -21l-8 -68h-37q-31 18 -61 18q-41 0 -57 -18.5t-16 -55.5v-453q0 -26 7 -36t26 -12l37 -5v-49z" />
    <glyph glyph-name="florin" unicode="&#x192;" horiz-adv-x="440" 
d="M115 -189h-42q-6 11 -13 26.5t-10 20.5v24h33q46 0 74.5 26.5t28.5 69.5v437h-98v65h98v77q0 76 46 119.5t129 43.5h25l24 -46v-25h-32q-57 0 -83.5 -25t-26.5 -67v-77h126v-65h-126v-437q0 -64 -38.5 -115.5t-114.5 -51.5z" />
    <glyph glyph-name="AEacute" unicode="&#x1fc;" horiz-adv-x="951" 
d="M472 244v367h-51l-160 -367h211zM547 715h-70l79 155h82v-16zM12 0v48l34 7q16 4 23.5 10.5t14.5 20.5l279 594h502v-122h-56l-7 21q-6 18 -14.5 25t-32.5 7h-157q-22 0 -31.5 -10t-9.5 -38v-190h133q28 0 34.5 4t12.5 21l8 23h46v-160h-46l-8 23q-6 17 -12.5 21t-34.5 4
h-133v-192q0 -28 9.5 -38t31.5 -10h178q24 0 33 7t14 24l7 22h56v-122h-472v50l32 5q16 2 21 11t5 35v74h-240q-36 -82 -36 -94q0 -25 20 -28l31 -5v-48h-235z" />
    <glyph glyph-name="aeacute" unicode="&#x1fd;" horiz-adv-x="812" 
d="M733 96v-71q-75 -36 -165 -36q-50 0 -98.5 18.5t-78.5 58.5q-67 -77 -185 -77q-61 0 -111 36.5t-50 110.5q0 64 43 102.5t118 38.5h148v46q0 51 -26.5 74.5t-83.5 23.5q-31 0 -52.5 -6t-32.5 -19t-15 -23t-9 -27h-65q-3 48 -3 79q79 64 178 64q114 0 155 -63
q58 65 164 65q27 0 52.5 -4.5t52.5 -18t47 -34t33 -55.5t13 -81v-83h-331v-35q0 -39 17 -65.5t43.5 -37.5t44.5 -14.5t32 -3.5q68 0 105 37h60zM682 277v31q0 35 -12.5 59t-33 34.5t-38 14.5t-34.5 4q-16 0 -31.5 -2.5t-42 -12.5t-43 -36.5t-16.5 -67.5v-24h251zM354 135v80
h-135q-43 0 -67.5 -19t-24.5 -55q0 -82 90 -82q27 0 50.5 8t39 19t26.5 22t16 19zM434 525h-70l79 155h82v-16z" />
    <glyph glyph-name="Oslashacute" unicode="&#x1fe;" horiz-adv-x="641" 
d="M156 -100h-56l59 128q-104 65 -104 218v187q0 133 74 195.5t190 62.5q74 0 133 -25l43 94h55l-54 -119q90 -67 90 -208v-187q0 -71 -22.5 -123t-61.5 -80t-84.5 -41t-98.5 -13q-60 0 -114 18zM192 100l228 496q-41 20 -101 20q-179 0 -179 -175v-198q0 -100 52 -143z
M501 243v198q0 80 -40 125l-225 -491q33 -11 83 -11q87 0 134.5 40t47.5 139zM364 725h-70l79 155h82v-16z" />
    <glyph glyph-name="oslashacute" unicode="&#x1ff;" horiz-adv-x="526" 
d="M148 -66h-54l40 86q-89 54 -89 169v98q0 98 63.5 150t154.5 52q42 0 84 -13l35 74h54l-44 -94q89 -55 89 -169v-98q0 -98 -63.5 -150t-154.5 -52q-42 0 -84 13zM400 187v102q0 66 -40 99l-151 -324q26 -7 54 -7q18 0 36 3.5t43.5 15t41.5 40t16 71.5zM166 87l151 324
q-25 8 -54 8q-14 0 -27 -1.5t-34 -9t-36.5 -20.5t-27 -38.5t-11.5 -60.5v-102q0 -68 39 -100zM291 525h-70l79 155h82v-16z" />
    <glyph glyph-name="Scommaaccent" unicode="&#x218;" horiz-adv-x="565" 
d="M490 500h-73l-6 86q-21 13 -57.5 21.5t-65.5 8.5q-146 0 -146 -100q0 -47 38.5 -75.5t93 -43.5t109.5 -34t93.5 -61.5t38.5 -111.5q0 -94 -60 -147t-173 -53q-130 0 -228 54q0 47 2 81.5t4 45.5l2 11h70l10 -87q51 -30 140 -30q66 0 107 31.5t41 85.5q0 48 -38.5 78.5
t-93 48.5t-109.5 37.5t-93.5 59t-38.5 99.5q0 186 228 186q118 0 211 -52q0 -47 -1.5 -81.5t-2.5 -45.5zM282 -275h-56l40 126q0 18 -10 19l-23 3v77h99v-95z" />
    <glyph glyph-name="scommaaccent" unicode="&#x219;" horiz-adv-x="483" 
d="M406 358h-60l-7 56q-42 17 -101 17q-104 0 -104 -63q0 -24 6.5 -36.5t40 -27.5t102.5 -28q155 -31 155 -130q0 -156 -208 -156q-37 0 -70 4.5t-48.5 9.5t-36.5 12.5t-23 8.5q2 72 4 108h61l8 -56q47 -21 111 -21q117 0 117 76q0 28 -7.5 40.5t-37.5 24.5t-101 28
q-151 33 -151 137q0 129 184 129q94 0 171 -30zM244 -275h-56l40 126q0 18 -10 19l-23 3v77h99v-95z" />
    <glyph glyph-name="uni021A" unicode="&#x21a;" horiz-adv-x="538" 
d="M370 0h-203v50l23 5q19 4 27.5 13t8.5 33v472l-2 37h-92q-28 0 -38 -7t-15 -25l-6 -21h-48v123h488v-123h-48l-7 21q-4 13 -7.5 18t-14 9.5t-30.5 4.5h-93l-2 -37v-472q0 -24 8.5 -33t27.5 -13l23 -5v-50zM272 -275h-56l40 126q0 18 -10 19l-23 3v77h99v-95z" />
    <glyph glyph-name="uni021B" unicode="&#x21b;" horiz-adv-x="390" 
d="M355 82v-64q-58 -23 -110 -23q-138 0 -138 121v299h-87v65h87v96l62 19h20v-115h134v-65h-134v-297q0 -28 13 -40.5t45 -12.5q33 0 60 17h48zM198 -275h-56l40 126q0 18 -10 19l-23 3v77h99v-95z" />
    <glyph glyph-name="circumflex" unicode="&#x2c6;" horiz-adv-x="355" 
d="M335 535h-75l-83 91l-82 -91h-75v25l120 120h75l120 -120v-25z" />
    <glyph glyph-name="caron" unicode="&#x2c7;" horiz-adv-x="355" 
d="M215 535h-75l-120 120v25h75l82 -91l83 91h75v-25z" />
    <glyph glyph-name="uni02C9" unicode="&#x2c9;" horiz-adv-x="350" 
d="M310 565h-270v60h270v-60z" />
    <glyph glyph-name="breve" unicode="&#x2d8;" horiz-adv-x="390" 
d="M332 671v-18q0 -35 -13 -60.5t-29.5 -37.5t-38.5 -19.5t-34 -8.5t-22 -1t-22 1t-34 8.5t-38.5 19.5t-29.5 37.5t-13 60.5v18h67v-22q0 -30 18.5 -46.5t51.5 -16.5t51.5 16.5t18.5 46.5v22h67z" />
    <glyph glyph-name="dotaccent" unicode="&#x2d9;" horiz-adv-x="263" 
d="M178 560h-93v93h93v-93z" />
    <glyph glyph-name="ring" unicode="&#x2da;" 
d="M255 634v18q0 23 -16 36.5t-40 13.5t-39.5 -13.5t-15.5 -36.5v-18q0 -23 15.5 -37t39.5 -14q25 0 40.5 13.5t15.5 37.5zM317 650v-14q0 -49 -34.5 -76t-83.5 -27q-48 0 -82 27t-34 76v14q0 49 34 76t82 27q49 0 83.5 -27t34.5 -76z" />
    <glyph glyph-name="ogonek" unicode="&#x2db;" horiz-adv-x="420" 
d="M320 -226l-43 -22h-36q-40 0 -65.5 23t-25.5 63q0 85 108 162h51q-48 -49 -65 -79.5t-17 -60.5q0 -49 54 -49h39v-37z" />
    <glyph glyph-name="tilde" unicode="&#x2dc;" horiz-adv-x="450" 
d="M390 649v-21q-1 -4 -2.5 -9.5t-8.5 -20.5t-17 -26.5t-29 -21t-43 -9.5q-29 0 -73 28.5t-65 28.5q-22 0 -35.5 -13t-16.5 -27l-2 -13h-58v22l2.5 10t10 22t20 28.5t33.5 22.5t49 10q35 0 76 -28.5t56 -28.5q19 0 31.5 11.5t15.5 23.5l2 11h54z" />
    <glyph glyph-name="hungarumlaut" unicode="&#x2dd;" horiz-adv-x="480" 
d="M171 525h-68l72 175h87v-16zM329 525h-68l72 175h87v-16z" />
    <glyph glyph-name="uni037E" unicode="&#x37e;" horiz-adv-x="238" 
d="M120 -143h-56l40 126q0 18 -10 19l-23 3v77h99v-95zM170 378h-100v102h100v-102z" />
    <glyph glyph-name="tonos" unicode="&#x384;" horiz-adv-x="330" 
d="M171 525h-71l72 195h90v-16z" />
    <glyph glyph-name="dieresistonos" unicode="&#x385;" horiz-adv-x="510" 
d="M158 560h-93v93h93v-93zM445 560h-93v93h93v-93zM263 560h-71l67 195h90v-16z" />
    <glyph glyph-name="anoteleia" unicode="&#x387;" horiz-adv-x="240" 
d="M170 246h-100v102h100v-102z" />
    <glyph glyph-name="uni03A9" unicode="&#x3a9;" horiz-adv-x="760" 
d="M698 0h-248v143q5 2 20.5 8t24.5 9.5t25 12.5t26 17.5t22 23.5t19 32t12 41.5t5 53.5v93q0 80 -62 131.5t-151 51.5t-151 -51.5t-62 -131.5v-93q0 -29 5 -53.5t12 -41.5t19 -32t22 -23.5t26 -17.5t25 -12.5t24.5 -9.5t20.5 -8v-143h-248v106h61l1 -16q2 -25 29 -25h97v24
q-70 27 -124.5 87t-54.5 155v105q0 105 81 182.5t217 77.5t217 -77.5t81 -182.5v-105q0 -95 -54.5 -155t-124.5 -87v-24h97q27 0 29 25l1 16h61v-106z" />
    <glyph glyph-name="pi" unicode="&#x3c0;" horiz-adv-x="600" 
d="M550 61v-61q-74 0 -107 31.5t-33 102.5v276h-218v-410h-131v53l19 4q20 4 25 12.5t5 34.5v306h-60v70h500v-70h-60v-276q0 -44 13.5 -57t46.5 -16z" />
    <glyph glyph-name="Wgrave" unicode="&#x1e80;" horiz-adv-x="922" 
d="M719 0h-139l-117 434h-7l-111 -434h-138l-128 590q-8 35 -42 39l-27 3v48h234v-48l-27 -3q-44 -4 -44 -42q0 -4 2 -14l103 -492h11l135 498h77l146 -498h11l110 526q-14 11 -61 27v46h205v-45q-50 -19 -58 -29zM492 715h-70l-91 139v16h82z" />
    <glyph glyph-name="wgrave" unicode="&#x1e81;" horiz-adv-x="766" 
d="M618 0h-120l-90 259l-114 -259h-112l-116 394q-9 26 -35 32l-21 6v48h125l105 -405h12l119 271l-14 45q-3 15 -10.5 22.5t-25.5 12.5l-20 6v48h114l136 -405h8l104 405h93v-48q-23 -18 -30 -44zM417 515h-70l-91 139v16h82z" />
    <glyph glyph-name="Wacute" unicode="&#x1e82;" horiz-adv-x="922" 
d="M719 0h-139l-117 434h-7l-111 -434h-138l-128 590q-8 35 -42 39l-27 3v48h234v-48l-27 -3q-44 -4 -44 -42q0 -4 2 -14l103 -492h11l135 498h77l146 -498h11l110 526q-14 11 -61 27v46h205v-45q-50 -19 -58 -29zM509 705h-70l79 155h82v-16z" />
    <glyph glyph-name="wacute" unicode="&#x1e83;" horiz-adv-x="766" 
d="M618 0h-120l-90 259l-114 -259h-112l-116 394q-9 26 -35 32l-21 6v48h125l105 -405h12l119 271l-14 45q-3 15 -10.5 22.5t-25.5 12.5l-20 6v48h114l136 -405h8l104 405h93v-48q-23 -18 -30 -44zM384 525h-70l79 155h82v-16z" />
    <glyph glyph-name="Wdieresis" unicode="&#x1e84;" horiz-adv-x="922" 
d="M719 0h-139l-117 434h-7l-111 -434h-138l-128 590q-8 35 -42 39l-27 3v48h234v-48l-27 -3q-44 -4 -44 -42q0 -4 2 -14l103 -492h11l135 498h77l146 -498h11l110 526q-14 11 -61 27v46h205v-45q-50 -19 -58 -29zM419 720h-93v93h93v-93zM596 720h-93v93h93v-93z" />
    <glyph glyph-name="wdieresis" unicode="&#x1e85;" horiz-adv-x="766" 
d="M618 0h-120l-90 259l-114 -259h-112l-116 394q-9 26 -35 32l-21 6v48h125l105 -405h12l119 271l-14 45q-3 15 -10.5 22.5t-25.5 12.5l-20 6v48h114l136 -405h8l104 405h93v-48q-23 -18 -30 -44zM353 560h-93v93h93v-93zM530 560h-93v93h93v-93z" />
    <glyph glyph-name="Ygrave" unicode="&#x1ef2;" horiz-adv-x="634" 
d="M416 0h-203v50l23 5q19 4 27.5 13t8.5 33v173l-192 338q-16 10 -55 22v46h211v-46q-38 -18 -53 -27l133 -253l135 251q-27 19 -53 28v47h211v-45q-51 -18 -55 -24l-197 -337v-173q0 -24 8.5 -33t27.5 -13l23 -5v-50zM354 725h-70l-91 139v16h82z" />
    <glyph glyph-name="ygrave" unicode="&#x1ef3;" horiz-adv-x="542" 
d="M246 -220h-109v45q40 16 49 30l59 145h-36l-126 378q-6 20 -14 27.5t-23 13.5l-30 6v55h135l117 -393h2l119 317q-9 10 -41 28v48h179v-45q-40 -19 -50 -31zM302 525h-70l-91 139v16h82z" />
    <glyph glyph-name="figuredash" unicode="&#x2012;" horiz-adv-x="530" 
d="M455 218h-380v66h380v-66z" />
    <glyph glyph-name="endash" unicode="&#x2013;" horiz-adv-x="530" 
d="M455 218h-380v66h380v-66z" />
    <glyph glyph-name="emdash" unicode="&#x2014;" horiz-adv-x="810" 
d="M735 218h-660v66h660v-66z" />
    <glyph glyph-name="quoteleft" unicode="&#x2018;" horiz-adv-x="244" 
d="M164 455h-99v95l50 130h56l-40 -126q0 -18 10 -19l23 -3v-77z" />
    <glyph glyph-name="quoteright" unicode="&#x2019;" horiz-adv-x="244" 
d="M129 455h-56l40 126q0 18 -10 19l-23 3v77h99v-95z" />
    <glyph glyph-name="quotesinglbase" unicode="&#x201a;" horiz-adv-x="281" 
d="M156 -143h-56l40 126q0 18 -10 19l-23 3v77h99v-95z" />
    <glyph glyph-name="quotedblleft" unicode="&#x201c;" horiz-adv-x="434" 
d="M354 455h-99v95l50 130h56l-40 -126q0 -18 10 -19l23 -3v-77zM164 455h-99v95l50 130h56l-40 -126q0 -18 10 -19l23 -3v-77z" />
    <glyph glyph-name="quotedblright" unicode="&#x201d;" horiz-adv-x="434" 
d="M129 455h-56l40 126q0 18 -10 19l-23 3v77h99v-95zM319 455h-56l40 126q0 18 -10 19l-23 3v77h99v-95z" />
    <glyph glyph-name="quotedblbase" unicode="&#x201e;" horiz-adv-x="434" 
d="M119 -143h-56l40 126q0 18 -10 19l-23 3v77h99v-95zM309 -143h-56l40 126q0 18 -10 19l-23 3v77h99v-95z" />
    <glyph glyph-name="dagger" unicode="&#x2020;" horiz-adv-x="440" 
d="M246 -55h-45l-31 245v94l25 158h-160v60h160l-25 135v94h105v-96l-25 -133h155v-60h-155l25 -156v-96z" />
    <glyph glyph-name="daggerdbl" unicode="&#x2021;" horiz-adv-x="430" 
d="M270 -50h-105v94l20 116h-165v60h155v220h-155v60h165l-20 116v94h105v-96l-20 -114h160v-60h-150v-220h150v-60h-160l20 -114v-96z" />
    <glyph glyph-name="bullet" unicode="&#x2022;" horiz-adv-x="520" 
d="M415 321v-29q0 -64 -46 -102.5t-109 -38.5t-109 38t-46 103v29q0 65 46 103t109 38t109 -38.5t46 -102.5z" />
    <glyph glyph-name="onedotenleader" unicode="&#x2024;" horiz-adv-x="240" 
d="M170 0h-100v102h100v-102z" />
    <glyph glyph-name="twodotenleader" unicode="&#x2025;" horiz-adv-x="480" 
d="M170 0h-100v102h100v-102zM410 0h-100v102h100v-102z" />
    <glyph glyph-name="ellipsis" unicode="&#x2026;" horiz-adv-x="740" 
d="M175 0h-100v102h100v-102zM420 0h-100v102h100v-102zM665 0h-100v102h100v-102z" />
    <glyph glyph-name="perthousand" unicode="&#x2030;" horiz-adv-x="1215" 
d="M277 0h-75l380 700h75zM290 464v50q0 38 -22.5 56t-58.5 18q-35 0 -57.5 -18.5t-22.5 -55.5v-50q0 -36 23 -55.5t57 -19.5q36 0 58.5 18.5t22.5 56.5zM370 515v-52q0 -69 -50 -103t-111 -34q-27 0 -53 7.5t-50.5 23t-40 43t-15.5 63.5v52q0 36 15.5 63.5t40 43t50.5 23
t53 7.5q61 0 111 -34t50 -103zM715 166v50q0 38 -22.5 56t-58.5 18q-35 0 -57.5 -18.5t-22.5 -55.5v-50q0 -36 23 -55.5t57 -19.5q36 0 58.5 18.5t22.5 56.5zM795 217v-52q0 -69 -50 -103t-111 -34q-27 0 -53 7.5t-50.5 23t-40 43t-15.5 63.5v52q0 36 15.5 63.5t40 43
t50.5 23t53 7.5q61 0 111 -34t50 -103zM1085 166v50q0 38 -22.5 56t-58.5 18q-35 0 -57.5 -18.5t-22.5 -55.5v-50q0 -36 23 -55.5t57 -19.5q36 0 58.5 18.5t22.5 56.5zM1165 217v-52q0 -69 -50 -103t-111 -34q-27 0 -53 7.5t-50.5 23t-40 43t-15.5 63.5v52q0 36 15.5 63.5
t40 43t50.5 23t53 7.5q61 0 111 -34t50 -103z" />
    <glyph glyph-name="guilsinglleft" unicode="&#x2039;" horiz-adv-x="380" 
d="M310 38l-40 -27h-6l-194 218v22l194 218h6l40 -27l-129 -202z" />
    <glyph glyph-name="guilsinglright" unicode="&#x203a;" horiz-adv-x="380" 
d="M116 11h-6l-40 27l129 202l-129 202l40 27h6l194 -218v-22z" />
    <glyph glyph-name="exclamdbl" unicode="&#x203c;" horiz-adv-x="518" 
d="M208 0h-106v110h106v-110zM181 197h-53q-26 271 -26 367v116h106v-116q0 -66 -10 -191t-17 -176zM416 0h-106v110h106v-110zM389 197h-53q-26 271 -26 367v116h106v-116q0 -66 -10 -191t-17 -176z" />
    <glyph glyph-name="fraction" unicode="&#x2044;" horiz-adv-x="452" 
d="M100 0h-75l316 680h76z" />
    <glyph glyph-name="zerosuperior" unicode="&#x2070;" 
d="M358 737v-124q0 -70 -46.5 -105t-111.5 -35t-111.5 35t-46.5 105v124q0 70 46.5 105t111.5 35t111.5 -35t46.5 -105zM288 618v114q0 85 -88 85t-88 -85v-114q0 -85 88 -85t88 85z" />
    <glyph glyph-name="foursuperior" unicode="&#x2074;" 
d="M356 480h-175v37l32 4q14 1 19 12.5t5 42.5h-191v52l175 242h86v-237h56v-57h-56q0 -34 5.5 -44.5t23.5 -12.5l20 -3v-36zM237 633v155h-3l-111 -155h114z" />
    <glyph glyph-name="fivesuperior" unicode="&#x2075;" 
d="M340 781h-46q-2 10 -4 15t-7 8.5t-14 3.5h-134l-3 -83h87q72 0 106.5 -29.5t34.5 -98.5q0 -62 -43 -93t-117 -31q-87 0 -146 44l4 54h58q14 -22 31.5 -30t52.5 -8q88 0 88 64q0 37 -17.5 52.5t-60.5 15.5h-132l-15 36l6 169h271v-89z" />
    <glyph glyph-name="sixsuperior" unicode="&#x2076;" 
d="M360 612v-7q0 -66 -46.5 -99t-111.5 -33t-111.5 35t-46.5 105v124q0 70 46.5 105t111.5 35q87 0 146 -44l-4 -54h-58q-14 22 -31.5 30t-52.5 8q-88 0 -88 -78v-33q40 24 102 24q144 0 144 -118zM288 605v8q0 64 -72 64q-56 0 -102 -24v-35q0 -85 88 -85q86 0 86 72z" />
    <glyph glyph-name="sevensuperior" unicode="&#x2077;" 
d="M221 480h-75q0 75 14.5 135.5t41 100.5t41 56.5t36.5 35.5h-145q-4 0 -7 -0.5t-5 -2.5t-3.5 -3t-3 -4.5t-2 -4t-2.5 -5.5t-2 -6h-43v88h287v-54q-25 -24 -36.5 -35.5t-33.5 -43t-32.5 -62t-20 -82t-9.5 -113.5z" />
    <glyph glyph-name="eightsuperior" unicode="&#x2078;" 
d="M358 601v-18q0 -35 -16.5 -59t-44.5 -34t-50.5 -13.5t-46.5 -3.5t-46.5 3.5t-50.5 13.5t-44.5 34t-16.5 59v18q0 53 59 72q-49 28 -49 82v14q0 42 28 68t58 33t62 7t62 -7t58 -33t28 -68v-14q0 -46 -40 -65q50 -26 50 -89zM283 588v9q0 13 -3 22.5t-12 15.5t-16.5 9.5
t-26 5.5t-29.5 2.5t-37 1.5q-42 -13 -42 -57v-9q0 -55 83 -55t83 55zM273 762v7q0 48 -73 48t-73 -48v-7q0 -37 23 -45t91 -9q32 20 32 54z" />
    <glyph glyph-name="ninesuperior" unicode="&#x2079;" 
d="M286 611v33q-40 -24 -102 -24q-144 0 -144 118v7q0 66 46.5 99t111.5 33t111.5 -35t46.5 -105v-124q0 -70 -46.5 -105t-111.5 -35q-87 0 -146 44l4 54h58q14 -22 31.5 -30t52.5 -8q88 0 88 78zM286 697v35q0 85 -88 85q-86 0 -86 -72v-8q0 -64 72 -64q56 0 102 24z" />
    <glyph glyph-name="parenleftsuperior" unicode="&#x207d;" horiz-adv-x="297" 
d="M247 332h-62q-66 88 -90.5 162t-24.5 167t24.5 167t90.5 162h62v-30q-102 -108 -102 -299t102 -299v-30z" />
    <glyph glyph-name="parenrightsuperior" unicode="&#x207e;" horiz-adv-x="297" 
d="M112 332h-62v30q102 108 102 299t-102 299v30h62q66 -88 90.5 -162t24.5 -167t-24.5 -167t-90.5 -162z" />
    <glyph glyph-name="nsuperior" unicode="&#x207f;" horiz-adv-x="443" 
d="M418 316h-98v240q0 68 -77 68q-65 0 -111 -41v-191q0 -19 5 -26t20 -10l20 -4v-36h-152v36l25 5q13 2 16.5 8.5t3.5 26.5v203q0 19 -4 25t-18 9l-19 5v42h94l7 -44q45 47 115 47q137 0 137 -122v-165q0 -15 1 -20t5 -9t14 -7l16 -4v-36z" />
    <glyph glyph-name="zeroinferior" unicode="&#x2080;" 
d="M358 67v-124q0 -70 -46.5 -105t-111.5 -35t-111.5 35t-46.5 105v124q0 70 46.5 105t111.5 35t111.5 -35t46.5 -105zM288 -52v114q0 85 -88 85t-88 -85v-114q0 -85 88 -85t88 85z" />
    <glyph glyph-name="oneinferior" unicode="&#x2081;" 
d="M337 -190h-271v55l108 5v263h-102v47l111 20h61v-330l93 -5v-55z" />
    <glyph glyph-name="twoinferior" unicode="&#x2082;" 
d="M350 -190h-300v66q20 14 60.5 39.5t63.5 41.5t49.5 37.5t39 42t12.5 40.5v15q0 55 -70 55q-35 0 -52.5 -8t-31.5 -30h-58q-4 27 -4 54q59 44 146 44q19 0 38.5 -3.5t46 -14t43.5 -35.5t17 -62v-10q0 -26 -14.5 -53t-31.5 -46t-51 -44t-51 -35.5t-54 -33.5q27 5 51 5h74
q22 0 31 24h46v-89z" />
    <glyph glyph-name="threeinferior" unicode="&#x2083;" 
d="M348 -59v-13q0 -37 -16 -63.5t-41 -39t-48 -17.5t-45 -5q-87 0 -146 44l4 54h58q14 -22 31.5 -30t52.5 -8q39 0 57 15.5t18 49.5v9q0 38 -35 41l-89 7v51h51q63 0 63 52v12q0 21 -16 34t-47 13q-34 0 -49 -7.5t-30 -30.5h-58q-4 27 -4 54q59 44 141 44q24 0 45.5 -4
t44 -15t35.5 -33.5t13 -54.5v-12q0 -24 -14.5 -41t-29.5 -21l-14 -5v-3q30 -3 49 -24.5t19 -52.5z" />
    <glyph glyph-name="fourinferior" unicode="&#x2084;" 
d="M356 -190h-175v37l32 4q14 1 19 12.5t5 42.5h-191v52l175 242h86v-237h56v-57h-56q0 -34 5.5 -44.5t23.5 -12.5l20 -3v-36zM237 -37v155h-3l-111 -155h114z" />
    <glyph glyph-name="fiveinferior" unicode="&#x2085;" 
d="M340 111h-46q-2 10 -4 15t-7 8.5t-14 3.5h-134l-3 -83h87q72 0 106.5 -29.5t34.5 -98.5q0 -62 -43 -93t-117 -31q-87 0 -146 44l4 54h58q14 -22 31.5 -30t52.5 -8q88 0 88 64q0 37 -17.5 52.5t-60.5 15.5h-132l-15 36l6 169h271v-89z" />
    <glyph glyph-name="sixinferior" unicode="&#x2086;" 
d="M360 -58v-7q0 -66 -46.5 -99t-111.5 -33t-111.5 35t-46.5 105v124q0 70 46.5 105t111.5 35q87 0 146 -44l-4 -54h-58q-14 22 -31.5 30t-52.5 8q-88 0 -88 -78v-33q40 24 102 24q144 0 144 -118zM288 -65v8q0 64 -72 64q-56 0 -102 -24v-35q0 -85 88 -85q86 0 86 72z" />
    <glyph glyph-name="seveninferior" unicode="&#x2087;" 
d="M221 -190h-75q0 75 14.5 135.5t41 100.5t41 56.5t36.5 35.5h-145q-4 0 -7 -0.5t-5 -2.5t-3.5 -3t-3 -4.5t-2 -4t-2.5 -5.5t-2 -6h-43v88h287v-54q-26 -24 -37 -34.5t-33.5 -41.5t-32.5 -61.5t-19.5 -82.5t-9.5 -116z" />
    <glyph glyph-name="eightinferior" unicode="&#x2088;" 
d="M358 -69v-18q0 -35 -16.5 -59t-44.5 -34t-50.5 -13.5t-46.5 -3.5t-46.5 3.5t-50.5 13.5t-44.5 34t-16.5 59v18q0 53 59 72q-49 28 -49 82v14q0 42 28 68t58 33t62 7t62 -7t58 -33t28 -68v-14q0 -46 -40 -65q50 -26 50 -89zM283 -82v9q0 13 -3 22.5t-12 15.5t-16.5 9.5
t-26 5.5t-29.5 2.5t-37 1.5q-42 -13 -42 -57v-9q0 -55 83 -55t83 55zM273 92v7q0 48 -73 48t-73 -48v-7q0 -37 23 -45t91 -9q32 20 32 54z" />
    <glyph glyph-name="nineinferior" unicode="&#x2089;" 
d="M286 -59v33q-40 -24 -102 -24q-144 0 -144 118v7q0 66 46.5 99t111.5 33t111.5 -35t46.5 -105v-124q0 -70 -46.5 -105t-111.5 -35q-87 0 -146 44l4 54h58q14 -22 31.5 -30t52.5 -8q88 0 88 78zM286 27v35q0 85 -88 85q-86 0 -86 -72v-8q0 -64 72 -64q56 0 102 24z" />
    <glyph glyph-name="parenleftinferior" unicode="&#x208d;" horiz-adv-x="297" 
d="M247 -338h-62q-66 88 -90.5 162t-24.5 167t24.5 167t90.5 162h62v-30q-102 -108 -102 -299t102 -299v-30z" />
    <glyph glyph-name="parenrightinferior" unicode="&#x208e;" horiz-adv-x="297" 
d="M112 -338h-62v30q102 108 102 299t-102 299v30h62q66 -88 90.5 -162t24.5 -167t-24.5 -167t-90.5 -162z" />
    <glyph glyph-name="colonmonetary" unicode="&#x20a1;" horiz-adv-x="570" 
d="M382 -120h-57v111q-26 -2 -37 -2t-33 2v-111h-57v122q-133 41 -133 174v128q0 68 37.5 111t95.5 62v112h57v-100q22 2 33 2q13 0 37 -2v100h57v-109q55 -13 108 -42l-7 -130h-69v83q-60 30 -126 30q-26 0 -49 -5.5t-45 -18.5t-35 -39t-13 -62v-112q0 -35 14.5 -61
t38 -38.5t45.5 -18t44 -5.5q44 0 82.5 12t49.5 22h60v-63q-41 -20 -98 -32v-120z" />
    <glyph glyph-name="franc" unicode="&#x20a3;" horiz-adv-x="537" 
d="M257 0h-202v50l23 5q19 4 27.5 13t8.5 33v134h-88v45h88v100h-88v45h88v134q0 25 -6 34.5t-25 12.5l-27 4v50h431v-122h-56l-7 21q-4 13 -6.5 18.5t-12.5 9.5t-28 4h-137q-22 0 -31.5 -10t-9.5 -38v-118h209v-45h-209v-100h209v-45h-209v-134q0 -23 9.5 -32.5t31.5 -14.5
l17 -4v-50z" />
    <glyph glyph-name="lira" unicode="&#x20a4;" horiz-adv-x="560" 
d="M492 0h-464v60l49 8q22 4 27.5 14t5.5 43v99h-88v45h88v97h-88v45h88v80q0 83 54 131.5t145 48.5q77 0 161 -30v-75h-52q-26 20 -50 25t-60 5q-116 0 -116 -105v-80h201v-45h-201v-97h201v-45h-201v-104q0 -31 5.5 -40.5t26.5 -9.5h134q33 0 44.5 7t15.5 24l6 24h68v-125
z" />
    <glyph glyph-name="peseta" unicode="&#x20a7;" horiz-adv-x="1108" 
d="M881 0h-162q-82 0 -125 42.5t-43 118.5v285h-47q-3 -95 -60.5 -148.5t-169.5 -53.5h-75v-143q0 -24 8.5 -33t27.5 -13l23 -5v-50h-203v50l23 5q19 4 27.5 13t8.5 33v345h-89v45h89v68q0 24 -10 33t-32 14l-17 4v50h239q191 0 208 -169h49v85l62 19h20v-104h98v-45h-98
v-283q0 -95 88 -95h166q91 0 91 76q0 27 -20 44t-49.5 24t-64 17t-64 21.5t-49.5 39t-20 68.5q0 64 46 98.5t128 34.5q74 0 151 -30l-5 -103h-60l-7 56q-42 17 -81 17q-52 0 -73 -20.5t-21 -45.5q0 -29 28 -47t68.5 -28t81 -22.5t68.5 -40.5t28 -71q0 -81 -45.5 -118.5
t-136.5 -37.5zM414 446h-215v-133h67q142 0 148 133zM199 491h213q-7 54 -38.5 77t-92.5 23h-31q-51 0 -51 -48v-52z" />
    <glyph glyph-name="Euro" unicode="&#x20ac;" horiz-adv-x="636" 
d="M566 175v-131q-108 -54 -217 -54q-117 0 -179 54.5t-62 190.5h-88v45h88v100h-88v45h88q0 243 241 243q101 0 217 -54q-1 -80 -12 -131h-72v76q-50 34 -134 34q-80 0 -116 -41t-36 -127h206v-45h-206v-100h206v-45h-206q0 -94 35 -132t117 -38q87 0 137 34l12 76h69z" />
    <glyph glyph-name="afii61352" unicode="&#x2116;" horiz-adv-x="1119" 
d="M622 0h-79l-332 551v-450q0 -23 10.5 -32.5t32.5 -14.5l16 -4v-50h-195v50l22 5q19 4 27.5 13t8.5 33v478q0 24 -8 33t-28 14l-22 4v50h154l313 -522v421q0 24 -10 33t-32 14l-17 4v50h197v-51l-21 -4q-19 -3 -28 -12.5t-9 -33.5v-579zM1044 536v-85q0 -39 -14.5 -68.5
t-38.5 -45t-49 -22.5t-52 -7q-60 0 -107 34.5t-47 109.5v85q0 39 14.5 68.5t38.5 45t49 22.5t52 7q60 0 107 -34.5t47 -109.5zM972 454v80q0 84 -82 84t-82 -84v-80q0 -84 82 -84t82 84zM1044 181h-308v60h308v-60z" />
    <glyph glyph-name="trademark" unicode="&#x2122;" horiz-adv-x="800" 
d="M243 356h-158v42l30 5q14 3 14 20v230h-52q-17 0 -20 -12l-5 -28h-52v97h328v-97h-52l-5 28q-2 5 -3 7t-5 3.5t-12 1.5h-52v-230q0 -17 14 -20l30 -5v-42zM760 356h-109v225l-63 -107h-64l-63 107v-225h-109v42l26 5q13 3 13 21v219q0 17 -13 20l-26 5v42h106l98 -162
l98 162h106v-42l-25 -5q-14 -3 -14 -20v-220q0 -17 14 -20l25 -5v-42z" />
    <glyph glyph-name="Omega" unicode="&#x2126;" horiz-adv-x="760" 
d="M698 0h-248v143q5 2 20.5 8t24.5 9.5t25 12.5t26 17.5t22 23.5t19 32t12 41.5t5 53.5v93q0 80 -62 131.5t-151 51.5t-151 -51.5t-62 -131.5v-93q0 -29 5 -53.5t12 -41.5t19 -32t22 -23.5t26 -17.5t25 -12.5t24.5 -9.5t20.5 -8v-143h-248v106h61l1 -16q2 -25 29 -25h97v24
q-70 27 -124.5 87t-54.5 155v105q0 105 81 182.5t217 77.5t217 -77.5t81 -182.5v-105q0 -95 -54.5 -155t-124.5 -87v-24h97q27 0 29 25l1 16h61v-106z" />
    <glyph glyph-name="onethird" unicode="&#x2153;" horiz-adv-x="967" 
d="M357 0h-55l316 680h56zM345 290h-271v55l108 5v263h-102v47l111 20h61v-330l93 -5v-55zM902 131v-13q0 -37 -16 -63.5t-41 -39t-48 -17.5t-45 -5q-87 0 -146 44l4 54h58q14 -22 31.5 -30t52.5 -8q39 0 57 15.5t18 49.5v9q0 39 -35 41l-89 7v51h51q63 0 63 52v12
q0 21 -16 34t-47 13q-34 0 -49 -7.5t-30 -30.5h-58q-4 27 -4 54q59 44 141 44q24 0 45.5 -4t44 -15t35.5 -33.5t13 -54.5v-12q0 -24 -14.5 -41t-29.5 -21l-14 -5v-3q30 -3 49 -24.5t19 -52.5z" />
    <glyph glyph-name="twothirds" unicode="&#x2154;" horiz-adv-x="967" 
d="M377 0h-55l316 680h56zM370 290h-300v66q20 14 60.5 39.5t63.5 41.5t49.5 37.5t39 42t12.5 40.5v15q0 55 -70 55q-35 0 -52.5 -8t-31.5 -30h-58q-4 27 -4 54q59 44 146 44q19 0 38.5 -3.5t46 -14t43.5 -35.5t17 -62v-10q0 -26 -14.5 -53t-31.5 -46t-51 -44t-51 -35.5
t-54 -33.5q27 5 51 5h74q22 0 31 24h46v-89zM933 131v-13q0 -37 -16 -63.5t-41 -39t-48 -17.5t-45 -5q-87 0 -146 44l4 54h58q14 -22 31.5 -30t52.5 -8q39 0 57 15.5t18 49.5v9q0 38 -35 41l-89 7v51h51q63 0 63 52v12q0 21 -16 34t-47 13q-34 0 -49 -7.5t-30 -30.5h-58
q-4 27 -4 54q59 44 141 44q24 0 45.5 -4t44 -15t35.5 -33.5t13 -54.5v-12q0 -24 -14.5 -41t-28.5 -21l-15 -5v-3q30 -3 49 -24.5t19 -52.5z" />
    <glyph glyph-name="oneeighth" unicode="&#x215b;" horiz-adv-x="959" 
d="M337 0h-55l316 680h56zM345 290h-271v55l108 5v263h-102v47l111 20h61v-330l93 -5v-55zM894 121v-18q0 -35 -16.5 -59t-44.5 -34t-50.5 -13.5t-46.5 -3.5t-46.5 3.5t-50.5 13.5t-44.5 34t-16.5 59v18q0 53 59 72q-49 28 -49 82v14q0 42 28 68t58 33t62 7t62 -7t58 -33
t28 -68v-14q0 -46 -40 -65q50 -26 50 -89zM819 108v9q0 13 -3 22.5t-12 15.5t-16.5 9.5t-26 5.5t-29.5 2.5t-37 1.5q-42 -13 -42 -57v-9q0 -55 83 -55t83 55zM809 282v7q0 48 -73 48t-73 -48v-7q0 -37 23 -45t91 -9q32 20 32 54z" />
    <glyph glyph-name="threeeighths" unicode="&#x215c;" horiz-adv-x="969" 
d="M357 0h-55l316 680h56zM382 421v-13q0 -37 -16 -63.5t-41 -39t-48 -17.5t-45 -5q-87 0 -146 44l4 54h58q14 -22 31.5 -30t52.5 -8q39 0 57 15.5t18 49.5v9q0 38 -35 41l-89 7v51h51q63 0 63 52v12q0 21 -16 34t-47 13q-34 0 -49 -7.5t-30 -30.5h-58q-4 27 -4 54
q59 44 141 44q24 0 45.5 -4t44 -15t35.5 -33.5t13 -54.5v-12q0 -24 -14.5 -41t-29.5 -21l-14 -5v-3q30 -3 49 -24.5t19 -52.5zM904 121v-18q0 -35 -16.5 -59t-44.5 -34t-50.5 -13.5t-46.5 -3.5t-46.5 3.5t-50.5 13.5t-44.5 34t-16.5 59v18q0 53 59 72q-49 28 -49 82v14
q0 42 28 68t58 33t62 7t62 -7t58 -33t28 -68v-14q0 -46 -40 -65q50 -26 50 -89zM829 108v9q0 13 -3 22.5t-12 15.5t-16.5 9.5t-26 5.5t-29.5 2.5t-37 1.5q-42 -13 -42 -57v-9q0 -55 83 -55t83 55zM819 282v7q0 48 -73 48t-73 -48v-7q0 -37 23 -45t91 -9q32 20 32 54z" />
    <glyph glyph-name="fiveeighths" unicode="&#x215d;" horiz-adv-x="969" 
d="M357 0h-55l316 680h56zM904 121v-18q0 -35 -16.5 -59t-44.5 -34t-50.5 -13.5t-46.5 -3.5t-46.5 3.5t-50.5 13.5t-44.5 34t-16.5 59v18q0 53 59 72q-49 28 -49 82v14q0 42 28 68t58 33t62 7t62 -7t58 -33t28 -68v-14q0 -46 -40 -65q50 -26 50 -89zM829 108v9q0 13 -3 22.5
t-12 15.5t-16.5 9.5t-26 5.5t-29.5 2.5t-37 1.5q-42 -13 -42 -57v-9q0 -55 83 -55t83 55zM819 282v7q0 48 -73 48t-73 -48v-7q0 -37 23 -45t91 -9q32 20 32 54zM367 591h-46q-2 10 -4 15t-7 8.5t-14 3.5h-134l-3 -83h87q72 0 106.5 -29.5t34.5 -98.5q0 -62 -43 -93t-117 -31
q-87 0 -146 44l4 54h58q14 -22 31.5 -30t52.5 -8q88 0 88 64q0 37 -17.5 52.5t-60.5 15.5h-132l-15 36l6 169h271v-89z" />
    <glyph glyph-name="seveneighths" unicode="&#x215e;" horiz-adv-x="959" 
d="M297 0h-55l316 680h56zM874 121v-18q0 -35 -16.5 -59t-44.5 -34t-50.5 -13.5t-46.5 -3.5t-46.5 3.5t-50.5 13.5t-44.5 34t-16.5 59v18q0 53 59 72q-49 28 -49 82v14q0 42 28 68t58 33t62 7t62 -7t58 -33t28 -68v-14q0 -46 -40 -65q50 -26 50 -89zM799 108v9q0 13 -3 22.5
t-12 15.5t-16.5 9.5t-26 5.5t-29.5 2.5t-37 1.5q-42 -13 -42 -57v-9q0 -55 83 -55t83 55zM789 282v7q0 48 -73 48t-73 -48v-7q0 -37 23 -45t91 -9q32 20 32 54zM220 290h-75q0 75 14.5 135.5t41 100.5t41 56.5t36.5 35.5h-145q-4 0 -7 -0.5t-5 -2.5t-3.5 -3t-3 -4.5t-2 -4
t-2.5 -5.5t-2 -6h-43v88h287v-54q-25 -23 -36 -34.5t-33.5 -42.5t-33 -61.5t-20 -82.5t-9.5 -115z" />
    <glyph glyph-name="partialdiff" unicode="&#x2202;" horiz-adv-x="560" 
d="M491 455v-229q0 -237 -223 -237q-213 0 -213 204v27q0 89 56.5 139t148.5 50q70 0 144 -34v83q0 147 -125 147q-81 0 -114 -27h-66q-4 20 -5 75q102 34 185 34q40 0 73.5 -10t67 -33.5t52.5 -72t19 -116.5zM404 232v72q-67 29 -144 29q-62 0 -93 -28t-31 -89v-16
q0 -68 32 -98.5t100 -30.5q69 0 102.5 34t33.5 127z" />
    <glyph glyph-name="Delta" unicode="&#x2206;" horiz-adv-x="620" 
d="M620 0h-620v66q19 5 34.5 16t19.5 23l200 575h111l200 -575q4 -12 21 -23.5t34 -15.5v-66zM473 75l-158 534h-4l-166 -534h328z" />
    <glyph glyph-name="product" unicode="&#x220f;" horiz-adv-x="670" 
d="M620 0h-207v51l22 6q13 4 19.5 7t12.5 13t6 27v506h-276v-506q0 -16 7 -26.5t14.5 -13.5t22.5 -8l16 -5v-51h-207v51l23 6q14 4 20 7t11.5 13t5.5 27v474q0 23 -10 32t-33 16l-17 4v51h570v-51l-23 -6q-11 -3 -15.5 -5t-10.5 -6.5t-8.5 -13t-2.5 -21.5v-474q0 -24 10 -33
t33 -15l17 -5v-51z" />
    <glyph glyph-name="summation" unicode="&#x2211;" horiz-adv-x="551" 
d="M486 0h-436v89l270 251l-270 250v90h436v-136h-61l-7 25q-5 19 -15.5 27t-43.5 8h-203l233 -222v-83l-233 -223h203q23 0 36 5t16.5 11t6.5 18l7 26h61v-136z" />
    <glyph glyph-name="minus" unicode="&#x2212;" horiz-adv-x="600" 
d="M526 247h-425v65h425v-65z" />
    <glyph glyph-name="uni2215" unicode="&#x2215;" horiz-adv-x="442" 
d="M100 0h-75l316 680h76z" />
    <glyph glyph-name="uni2219" unicode="&#x2219;" horiz-adv-x="240" 
d="M170 246h-100v102h100v-102z" />
    <glyph glyph-name="radical" unicode="&#x221a;" horiz-adv-x="560" 
d="M318 0h-98l-130 378q-12 35 -45 39l-45 6v57h147l119 -405h8l201 603h85z" />
    <glyph glyph-name="infinity" unicode="&#x221e;" horiz-adv-x="740" 
d="M334 237v61q0 34 -13.5 57.5t-35 33.5t-40 14t-37.5 4q-116 0 -116 -115v-48q0 -114 116 -114q19 0 37 3.5t39 14t35 33.5t15 56zM641 244v48q0 36 -11.5 60.5t-31 35.5t-36.5 15t-36 4q-15 0 -29.5 -2t-33 -9t-31.5 -18t-22.5 -32t-9.5 -48v-54q0 -29 9.5 -50.5
t22.5 -33.5t31.5 -19t33 -9t29.5 -2q115 0 115 114zM707 298v-61q0 -40 -12 -70.5t-30 -49t-43 -30.5t-48 -16t-47 -4q-45 0 -78.5 13t-48 26.5t-32.5 37.5h-3q-17 -23 -32 -37t-48 -27t-78 -13q-24 0 -47 4t-48 16t-43 30.5t-30 49t-12 70.5v61q0 49 17 84t45.5 52.5
t57.5 25.5t60 8q45 0 78 -13t48 -27t32 -37h3q18 24 32.5 37.5t48 26.5t78.5 13q31 0 60 -8t57.5 -25.5t45.5 -52.5t17 -84z" />
    <glyph glyph-name="integral" unicode="&#x222b;" horiz-adv-x="440" 
d="M115 -173h-42l-23 47v24h33q46 0 74.5 26.5t28.5 69.5v543q0 76 46 119.5t129 43.5h25l24 -49v-25h-49q-56 0 -74.5 -22.5t-18.5 -66.5v-543q0 -64 -38.5 -115.5t-114.5 -51.5z" />
    <glyph glyph-name="approxequal" unicode="&#x2248;" horiz-adv-x="590" 
d="M508 254v-58q-2 -3 -5.5 -8.5t-15.5 -20t-25.5 -25t-34.5 -19.5t-43 -9q-28 0 -54.5 12.5t-43 28t-35 28t-31.5 12.5q-25 0 -42 -16.5t-22 -32.5l-4 -16h-54v59q2 3 5.5 8t15.5 18.5t25.5 23.5t34 18t41.5 8q30 0 55.5 -13t39.5 -28t32.5 -28t36.5 -13q25 0 43 17.5
t23 35.5l5 18h53zM508 461v-58q-2 -3 -5.5 -8.5t-15.5 -20t-25.5 -25t-34.5 -19.5t-43 -9q-36 0 -68 20.5t-56 40.5t-40 20q-25 0 -42 -16t-22 -32l-4 -17h-54v59q2 3 5.5 8t15.5 18.5t25.5 23.5t34 18t41.5 8q30 0 55.5 -13t39.5 -28t32.5 -28t36.5 -13q25 0 43 18t23 36
l5 17h53z" />
    <glyph glyph-name="notequal" unicode="&#x2260;" horiz-adv-x="600" 
d="M525 142h-266l-51 -101h-48l51 101h-136v65h168l70 138h-238v65h270l52 102h48l-52 -102h132v-65h-164l-70 -138h234v-65z" />
    <glyph glyph-name="lessequal" unicode="&#x2264;" horiz-adv-x="550" 
d="M450 22h-400v65h400v-65zM449 133h-20l-379 175v84l379 175h20v-77l-324 -140l324 -140v-77z" />
    <glyph glyph-name="greaterequal" unicode="&#x2265;" horiz-adv-x="550" 
d="M500 22h-400v65h400v-65zM500 308l-379 -175h-20v77l324 140l-324 140v77h20l379 -175v-84z" />
    <glyph glyph-name="lozenge" unicode="&#x25ca;" horiz-adv-x="556" 
d="M332 0h-108l-210 311v39l210 331h108l210 -331v-39zM293 69l163 246v25l-163 272h-30l-163 -272v-25l163 -246h30z" />
    <glyph glyph-name="AEacute.small" unicode="&#xe001;" horiz-adv-x="806" 
d="M751 0h-417v50l32 5q16 2 21 11t5 35v46h-183q-30 -54 -30 -64q0 -25 24 -29l28 -6v-48h-219v48l26 6q27 5 43 34l243 432h416v-122h-58l-7 21q-6 18 -14.5 25.5t-32.5 7.5h-118q-22 0 -29 -8t-7 -36v-115h77q29 0 38.5 4.5t14.5 20.5l8 23h49v-160h-49l-8 23
q-7 16 -16 20.5t-37 4.5h-77v-117q0 -28 7 -36t29 -8h129q26 0 34 7t13 25l7 22h58v-122zM392 215v254h-10l-139 -254h149zM460 575h-70l79 155h82v-16z" />
    <glyph glyph-name="Abreve.small" unicode="&#xe002;" horiz-adv-x="600" 
d="M580 0h-211v48l29 6q23 5 23 30q0 9 -18 65h-205q-17 -50 -17 -61q0 -29 22 -34l29 -6v-48h-212v48l24 6q20 4 28.5 11.5t14.5 22.5l154 432h129l143 -432q5 -16 13.5 -23t27.5 -11l26 -6v-48zM381 214l-73 247h-10l-77 -247h160zM441 721v-18q0 -35 -13 -60.5
t-29.5 -37.5t-38.5 -19.5t-34 -8.5t-22 -1t-22 1t-34 8.5t-38.5 19.5t-29.5 37.5t-13 60.5v18h67v-22q0 -30 18.5 -46.5t51.5 -16.5t51.5 16.5t18.5 46.5v22h67z" />
    <glyph glyph-name="Amacron.small" unicode="&#xe003;" horiz-adv-x="600" 
d="M580 0h-211v48l29 6q23 5 23 30q0 9 -18 65h-205q-17 -50 -17 -61q0 -29 22 -34l29 -6v-48h-212v48l24 6q20 4 28.5 11.5t14.5 22.5l154 432h129l143 -432q5 -16 13.5 -23t27.5 -11l26 -6v-48zM381 214l-73 247h-10l-77 -247h160zM437 615h-270v60h270v-60z" />
    <glyph glyph-name="Aogonek.small" unicode="&#xe004;" horiz-adv-x="611" 
d="M591 -226l-43 -22h-36q-40 0 -65.5 23t-25.5 63q0 85 108 162h-160v48l29 6q23 5 23 30q0 9 -18 65h-205q-17 -50 -17 -61q0 -29 22 -34l29 -6v-48h-212v48l24 6q20 4 28.5 11.5t14.5 22.5l154 432h129l143 -432q5 -16 13.5 -23t27.5 -11l26 -6v-48q-48 -49 -65 -79.5
t-17 -60.5q0 -49 54 -49h39v-37zM381 214l-73 247h-10l-77 -247h160z" />
    <glyph glyph-name="Breve" unicode="&#xe005;" horiz-adv-x="390" 
d="M332 875v-18q0 -35 -13 -60.5t-29.5 -37.5t-38.5 -19.5t-34 -8.5t-22 -1t-22 1t-34 8.5t-38.5 19.5t-29.5 37.5t-13 60.5v18h67v-22q0 -30 18.5 -46.5t51.5 -16.5t51.5 16.5t18.5 46.5v22h67z" />
    <glyph glyph-name="CR" unicode="&#xe006;" horiz-adv-x="250" 
 />
    <glyph glyph-name="Cacute.small" unicode="&#xe007;" horiz-adv-x="532" 
d="M492 114v-72q-111 -53 -208 -53q-234 0 -234 222v85q0 68 20 116.5t55.5 73t74 35t84.5 10.5q106 0 208 -54q-1 -98 -6 -136h-72l-3 83q-48 32 -127 32q-63 0 -107.5 -33.5t-44.5 -119.5v-90q0 -149 152 -149q93 0 143 50h65zM303 575h-70l79 155h82v-16z" />
    <glyph glyph-name="Ccaron.small" unicode="&#xe008;" horiz-adv-x="532" 
d="M492 114v-72q-111 -53 -208 -53q-234 0 -234 222v85q0 68 20 116.5t55.5 73t74 35t84.5 10.5q106 0 208 -54q-1 -98 -6 -136h-72l-3 83q-48 32 -127 32q-63 0 -107.5 -33.5t-44.5 -119.5v-90q0 -149 152 -149q93 0 143 50h65zM317 585h-75l-120 120v25h75l82 -91l83 91
h75v-25z" />
    <glyph glyph-name="Ccircumflex.small" unicode="&#xe009;" horiz-adv-x="532" 
d="M492 114v-72q-111 -53 -208 -53q-234 0 -234 222v85q0 68 20 116.5t55.5 73t74 35t84.5 10.5q106 0 208 -54q-1 -98 -6 -136h-72l-3 83q-48 32 -127 32q-63 0 -107.5 -33.5t-44.5 -119.5v-90q0 -149 152 -149q93 0 143 50h65zM446 585h-75l-83 91l-82 -91h-75v25l120 120
h75l120 -120v-25z" />
    <glyph glyph-name="Cdotaccent.small" unicode="&#xe00a;" horiz-adv-x="532" 
d="M492 114v-72q-111 -53 -208 -53q-234 0 -234 222v85q0 68 20 116.5t55.5 73t74 35t84.5 10.5q106 0 208 -54q-1 -98 -6 -136h-72l-3 83q-48 32 -127 32q-63 0 -107.5 -33.5t-44.5 -119.5v-90q0 -149 152 -149q93 0 143 50h65zM338 610h-93v93h93v-93z" />
    <glyph glyph-name="Cedilla" unicode="&#xe00b;" horiz-adv-x="435" 
d="M234 -101h-75l-4 37l43 84h65l-41 -73h18q55 0 74 -22t19 -56q0 -48 -36.5 -72.5t-94.5 -24.5q-37 0 -100 12v55h36q30 -16 64 -16q69 0 69 42q0 17 -8 25.5t-29 8.5z" />
    <glyph glyph-name="Circumflex" unicode="&#xe00c;" horiz-adv-x="355" 
d="M335 730h-75l-83 91l-82 -91h-75v25l120 120h75l120 -120v-25z" />
    <glyph glyph-name="Dcaron.small" unicode="&#xe00d;" horiz-adv-x="555" 
d="M211 70h61q82 0 120 45.5t38 143.5q0 96 -36 143.5t-125 47.5h-57q-16 0 -21 -5.5t-5 -27.5v-313q0 -22 5 -28t20 -6zM270 0h-225v50l23 5q19 4 27.5 13t8.5 33v318q0 25 -6 34.5t-25 12.5l-27 4v50h232q118 0 177.5 -67t59.5 -194q0 -45 -9.5 -85t-33.5 -82t-76 -67
t-126 -25zM300 585h-75l-120 120v25h75l82 -91l83 91h75v-25z" />
    <glyph glyph-name="Dcroat.small" unicode="&#xe00e;" horiz-adv-x="555" 
d="M270 0h-225v50l23 5q19 4 27.5 13t8.5 33v117h-60v68h60v133q0 25 -6 34.5t-25 12.5l-27 4v50h232q118 0 177.5 -67t59.5 -194q0 -45 -9.5 -85t-33.5 -82t-76 -67t-126 -25zM211 70h61q82 0 120 45.5t38 143.5q0 96 -36 143.5t-125 47.5h-57q-16 0 -21 -5.5t-5 -27.5
v-131h145v-68h-145v-114q0 -22 5 -28t20 -6z" />
    <glyph glyph-name="DieresisAcute.small" unicode="&#xe00f;" horiz-adv-x="510" 
d="M158 610h-93v93h93v-93zM445 610h-93v93h93v-93zM263 610h-71l67 195h90v-16z" />
    <glyph glyph-name="DieresisGrave.small" unicode="&#xe010;" horiz-adv-x="510" 
d="M158 610h-93v93h93v-93zM445 610h-93v93h93v-93zM319 610h-71l-86 179v16h90z" />
    <glyph glyph-name="Dotaccent" unicode="&#xe011;" horiz-adv-x="263" 
d="M178 730h-93v93h93v-93z" />
    <glyph glyph-name="Ebreve.small" unicode="&#xe012;" horiz-adv-x="517" 
d="M462 0h-417v50l23 5q19 4 27.5 13t8.5 33v318q0 25 -6 34.5t-25 12.5l-27 4v50h405v-121h-58l-7 21q-6 18 -14.5 25t-32.5 7h-118q-22 0 -28.5 -8t-6.5 -36v-115h79q28 0 36.5 4.5t13.5 20.5l8 23h49v-160h-49l-8 23q-7 16 -14.5 20.5t-35.5 4.5h-79v-117q0 -28 6.5 -36
t28.5 -8h129q26 0 34 6.5t13 24.5l7 22h58v-121zM407 721v-18q0 -35 -13 -60.5t-29.5 -37.5t-38.5 -19.5t-34 -8.5t-22 -1t-22 1t-34 8.5t-38.5 19.5t-29.5 37.5t-13 60.5v18h67v-22q0 -30 18.5 -46.5t51.5 -16.5t51.5 16.5t18.5 46.5v22h67z" />
    <glyph glyph-name="Ecaron.small" unicode="&#xe013;" horiz-adv-x="517" 
d="M462 0h-417v50l23 5q19 4 27.5 13t8.5 33v318q0 25 -6 34.5t-25 12.5l-27 4v50h405v-121h-58l-7 21q-6 18 -14.5 25t-32.5 7h-118q-22 0 -28.5 -8t-6.5 -36v-115h79q28 0 36.5 4.5t13.5 20.5l8 23h49v-160h-49l-8 23q-7 16 -14.5 20.5t-35.5 4.5h-79v-117q0 -28 6.5 -36
t28.5 -8h129q26 0 34 6.5t13 24.5l7 22h58v-121zM290 585h-75l-120 120v25h75l82 -91l83 91h75v-25z" />
    <glyph glyph-name="Edotaccent.small" unicode="&#xe014;" horiz-adv-x="517" 
d="M462 0h-417v50l23 5q19 4 27.5 13t8.5 33v318q0 25 -6 34.5t-25 12.5l-27 4v50h405v-121h-58l-7 21q-6 18 -14.5 25t-32.5 7h-118q-22 0 -28.5 -8t-6.5 -36v-115h79q28 0 36.5 4.5t13.5 20.5l8 23h49v-160h-49l-8 23q-7 16 -14.5 20.5t-35.5 4.5h-79v-117q0 -28 6.5 -36
t28.5 -8h129q26 0 34 6.5t13 24.5l7 22h58v-121zM310 610h-93v93h93v-93z" />
    <glyph glyph-name="Emacron.small" unicode="&#xe015;" horiz-adv-x="517" 
d="M462 0h-417v50l23 5q19 4 27.5 13t8.5 33v318q0 25 -6 34.5t-25 12.5l-27 4v50h405v-121h-58l-7 21q-6 18 -14.5 25t-32.5 7h-118q-22 0 -28.5 -8t-6.5 -36v-115h79q28 0 36.5 4.5t13.5 20.5l8 23h49v-160h-49l-8 23q-7 16 -14.5 20.5t-35.5 4.5h-79v-117q0 -28 6.5 -36
t28.5 -8h129q26 0 34 6.5t13 24.5l7 22h58v-121zM399 615h-270v60h270v-60z" />
    <glyph glyph-name="Eng.small" unicode="&#xe016;" horiz-adv-x="658" 
d="M380 -191h-12l-43 22v49h55q40 0 62.5 22t22.5 63v35l-270 411v-310q0 -24 8.5 -33t27.5 -13l23 -5v-50h-199v50l23 5q19 4 28 13t9 33v318q0 23 -9.5 32.5t-31.5 14.5l-17 4v50h154l253 -382v281q0 24 -10 33t-32 14l-17 4v50h198v-50l-17 -4q-22 -5 -32 -14t-10 -33
v-454q0 -82 -40 -119t-124 -37z" />
    <glyph glyph-name="Eogonek.small" unicode="&#xe017;" horiz-adv-x="517" 
d="M473 -226l-43 -22h-36q-40 0 -65.5 23t-25.5 63q0 85 108 162h-366v50l23 5q19 4 27.5 13t8.5 33v318q0 25 -6 34.5t-25 12.5l-27 4v50h405v-121h-58l-7 21q-6 18 -14.5 25t-32.5 7h-118q-22 0 -28.5 -8t-6.5 -36v-115h79q28 0 36.5 4.5t13.5 20.5l8 23h49v-160h-49
l-8 23q-7 16 -14.5 20.5t-35.5 4.5h-79v-117q0 -28 6.5 -36t28.5 -8h129q26 0 34 6.5t13 24.5l7 22h58v-121q-48 -49 -65 -79.5t-17 -60.5q0 -49 54 -49h39v-37z" />
    <glyph glyph-name="Euro.taboldstyle" unicode="&#xe018;" horiz-adv-x="520" 
d="M472 104v-72q-31 -15 -48 -22t-52.5 -14t-77.5 -7q-90 0 -143.5 50t-60.5 131h-60v45h60v70h-60v45h60q1 96 58.5 148.5t145.5 52.5q104 0 178 -39q-1 -47 -9 -116h-70v63q-36 17 -99 17q-57 0 -88 -27t-31 -99h197v-45h-197v-70h197v-45h-196q9 -106 118 -106
q80 0 113 40h65z" />
    <glyph glyph-name="Gbreve.small" unicode="&#xe019;" horiz-adv-x="550" 
d="M500 0h-59l-19 47h-4q-21 -26 -61 -42t-83 -16q-104 0 -164 55.5t-60 171.5v75q0 119 62.5 179.5t171.5 60.5q102 0 210 -57q-1 -55 -9 -123h-69l-3 75q-50 33 -129 33q-152 0 -152 -161v-80q0 -85 42.5 -121t104.5 -36q42 0 80 19.5t54 55.5v60l-82 10v64h169v-270z
M417 721v-18q0 -35 -13 -60.5t-29.5 -37.5t-38.5 -19.5t-34 -8.5t-22 -1t-22 1t-34 8.5t-38.5 19.5t-29.5 37.5t-13 60.5v18h67v-22q0 -30 18.5 -46.5t51.5 -16.5t51.5 16.5t18.5 46.5v22h67z" />
    <glyph glyph-name="Gcircumflex.small" unicode="&#xe01a;" horiz-adv-x="550" 
d="M500 0h-59l-19 47h-4q-21 -26 -61 -42t-83 -16q-104 0 -164 55.5t-60 171.5v75q0 119 62.5 179.5t171.5 60.5q102 0 210 -57q-1 -55 -9 -123h-69l-3 75q-50 33 -129 33q-152 0 -152 -161v-80q0 -85 42.5 -121t104.5 -36q42 0 80 19.5t54 55.5v60l-82 10v64h169v-270z
M432 585h-75l-83 91l-82 -91h-75v25l120 120h75l120 -120v-25z" />
    <glyph glyph-name="Gcommaaccent.small" unicode="&#xe01b;" horiz-adv-x="550" 
d="M500 0h-59l-19 47h-4q-21 -26 -61 -42t-83 -16q-104 0 -164 55.5t-60 171.5v75q0 119 62.5 179.5t171.5 60.5q102 0 210 -57q-1 -55 -9 -123h-69l-3 75q-50 33 -129 33q-152 0 -152 -161v-80q0 -85 42.5 -121t104.5 -36q42 0 80 19.5t54 55.5v60l-82 10v64h169v-270z
M274 -275h-56l40 126q0 18 -10 19l-23 3v77h99v-95z" />
    <glyph glyph-name="Gdotaccent.small" unicode="&#xe01c;" horiz-adv-x="550" 
d="M500 0h-59l-19 47h-4q-21 -26 -61 -42t-83 -16q-104 0 -164 55.5t-60 171.5v75q0 119 62.5 179.5t171.5 60.5q102 0 210 -57q-1 -55 -9 -123h-69l-3 75q-50 33 -129 33q-152 0 -152 -161v-80q0 -85 42.5 -121t104.5 -36q42 0 80 19.5t54 55.5v60l-82 10v64h169v-270z
M320 610h-93v93h93v-93z" />
    <glyph glyph-name="Hbar.small" unicode="&#xe01d;" horiz-adv-x="647" 
d="M602 0h-199v50l22 5q19 4 27.5 13t8.5 33v123h-275v-123q0 -23 10 -32.5t32 -14.5l16 -4v-50h-199v50l23 5q19 4 27.5 13t8.5 33v255h-49v50h49v13q0 24 -10 33t-32 14l-17 4v50h199v-51l-21 -4q-19 -3 -28 -12.5t-9 -33.5v-13h275v13q0 23 -9.5 32.5t-31.5 14.5l-17 4
v50h199v-51l-22 -4q-19 -3 -28 -12.5t-9 -33.5v-13h70v-50h-70v-255q0 -23 10.5 -32.5t32.5 -14.5l16 -4v-50zM461 292v64h-275v-64h275z" />
    <glyph glyph-name="Hcircumflex.small" unicode="&#xe01e;" horiz-adv-x="647" 
d="M602 0h-199v50l22 5q19 4 27.5 13t8.5 33v123h-275v-123q0 -23 10 -32.5t32 -14.5l16 -4v-50h-199v50l23 5q19 4 27.5 13t8.5 33v318q0 24 -10 33t-32 14l-17 4v50h199v-51l-21 -4q-19 -3 -28 -12.5t-9 -33.5v-127h275v127q0 23 -9.5 32.5t-31.5 14.5l-17 4v50h199v-51
l-22 -4q-19 -3 -28 -12.5t-9 -33.5v-318q0 -23 10.5 -32.5t32.5 -14.5l16 -4v-50zM482 585h-75l-83 91l-82 -91h-75v25l120 120h75l120 -120v-25z" />
    <glyph glyph-name="IJ.small" unicode="&#xe01f;" horiz-adv-x="692" 
d="M400 0h-22l-43 22v49h65q51 0 75 27t24 88v233q0 25 -8 34.5t-30 12.5l-31 4v50h212v-51l-23 -4q-18 -3 -26.5 -12.5t-8.5 -33.5v-233q0 -101 -43.5 -143.5t-140.5 -42.5zM265 0h-200v50l23 5q19 4 27.5 13t8.5 33v318q0 24 -10 33t-32 14l-17 4v50h200v-50l-17 -4
q-22 -5 -32 -14t-10 -33v-318q0 -24 8.5 -33t27.5 -13l23 -5v-50z" />
    <glyph glyph-name="Ibreve.small" unicode="&#xe020;" horiz-adv-x="320" 
d="M260 0h-200v50l23 5q19 4 27.5 13t8.5 33v318q0 24 -10 33t-32 14l-17 4v50h200v-50l-17 -4q-22 -5 -32 -14t-10 -33v-318q0 -24 8.5 -33t27.5 -13l23 -5v-50zM298 721v-18q0 -35 -13 -60.5t-29.5 -37.5t-38.5 -19.5t-34 -8.5t-22 -1t-22 1t-34 8.5t-38.5 19.5
t-29.5 37.5t-13 60.5v18h67v-22q0 -30 18.5 -46.5t51.5 -16.5t51.5 16.5t18.5 46.5v22h67z" />
    <glyph glyph-name="Idotaccent.small" unicode="&#xe021;" horiz-adv-x="320" 
d="M260 0h-200v50l23 5q19 4 27.5 13t8.5 33v318q0 24 -10 33t-32 14l-17 4v50h200v-50l-17 -4q-22 -5 -32 -14t-10 -33v-318q0 -24 8.5 -33t27.5 -13l23 -5v-50zM207 610h-93v93h93v-93z" />
    <glyph glyph-name="Imacron.small" unicode="&#xe022;" horiz-adv-x="320" 
d="M260 0h-200v50l23 5q19 4 27.5 13t8.5 33v318q0 24 -10 33t-32 14l-17 4v50h200v-50l-17 -4q-22 -5 -32 -14t-10 -33v-318q0 -24 8.5 -33t27.5 -13l23 -5v-50zM296 615h-270v60h270v-60z" />
    <glyph glyph-name="Iogonek.small" unicode="&#xe023;" horiz-adv-x="320" 
d="M271 -226l-43 -22h-36q-40 0 -65.5 23t-25.5 63q0 85 108 162h-149v50l23 5q19 4 27.5 13t8.5 33v318q0 24 -10 33t-32 14l-17 4v50h200v-50l-17 -4q-22 -5 -32 -14t-10 -33v-318q0 -24 8.5 -33t27.5 -13l23 -5v-50q-48 -49 -65 -79.5t-17 -60.5q0 -49 54 -49h39v-37z
" />
    <glyph glyph-name="Itilde.small" unicode="&#xe024;" horiz-adv-x="320" 
d="M260 0h-200v50l23 5q19 4 27.5 13t8.5 33v318q0 24 -10 33t-32 14l-17 4v50h200v-50l-17 -4q-22 -5 -32 -14t-10 -33v-318q0 -24 8.5 -33t27.5 -13l23 -5v-50zM303 689v-31q-1 -3 -2 -7.5t-7 -16t-14 -20.5t-23 -16t-34 -7q-24 0 -60.5 18.5t-52.5 18.5q-15 0 -25 -8
t-12 -16l-2 -9h-58v32q1 3 2.5 7t8.5 15t16.5 19t26 15t36.5 7q30 0 66 -18.5t46 -18.5q12 0 20.5 9t10.5 18l3 9h54z" />
    <glyph glyph-name="Jcircumflex.small" unicode="&#xe025;" horiz-adv-x="430" 
d="M255 179v240q0 25 -8 34.5t-30 12.5l-31 4v50h209v-51l-23 -4q-18 -3 -26.5 -12.5t-8.5 -33.5v-241q0 -96 -45.5 -142.5t-127.5 -46.5q-79 0 -139 39v91h58q26 -55 81 -55q48 0 69.5 28t21.5 87zM452 585h-75l-83 91l-82 -91h-75v25l120 120h75l120 -120v-25z" />
    <glyph glyph-name="K.alt" unicode="&#xe026;" horiz-adv-x="659" 
d="M1139 -98v-55q-66 -97 -232 -97q-59 0 -106 11.5t-94 44t-85.5 72t-90 114.5t-97.5 151t-117 201l-119 -134v-109q0 -24 8.5 -33t27.5 -13l23 -5v-50h-203v50l23 5q19 4 27.5 13t8.5 33v478q0 24 -10 33t-32 14l-17 4v50h203v-50l-17 -4q-22 -5 -32 -14t-10 -33v-266
l254 297q-16 11 -54 23v47h214v-48q-40 -15 -68 -35l-170 -192q133 -236 222 -359.5t159.5 -172t151.5 -48.5q66 0 98 19t59 58h75z" />
    <glyph glyph-name="Kcommaaccent.alt" unicode="&#xe027;" horiz-adv-x="659" 
d="M1139 -98v-55q-66 -97 -232 -97q-59 0 -106 11.5t-94 44t-85.5 72t-90 114.5t-97.5 151t-117 201l-119 -134v-109q0 -24 8.5 -33t27.5 -13l23 -5v-50h-203v50l23 5q19 4 27.5 13t8.5 33v478q0 24 -10 33t-32 14l-17 4v50h203v-50l-17 -4q-22 -5 -32 -14t-10 -33v-266
l254 297q-16 11 -54 23v47h214v-48q-40 -15 -68 -35l-170 -192q133 -236 222 -359.5t159.5 -172t151.5 -48.5q66 0 98 19t59 58h75zM332 -275h-56l40 126q0 18 -10 19l-23 3v77h99v-95z" />
    <glyph glyph-name="Kcommaaccent.small" unicode="&#xe028;" horiz-adv-x="605" 
d="M570 0h-132l-168 242l-84 -82v-59q0 -24 8.5 -33t27.5 -13l23 -5v-50h-200v50l23 5q19 4 27.5 13t8.5 33v318q0 24 -10 33t-32 14l-17 4v50h200v-50l-17 -4q-22 -5 -32 -14t-10 -33v-158l192 189q-18 12 -52 23v47h210v-48q-38 -12 -66 -32l-141 -143l174 -229l67 -16
v-52zM297 -275h-56l40 126q0 18 -10 19l-23 3v77h99v-95z" />
    <glyph glyph-name="Kcommaaccent.smallalt" unicode="&#xe029;" horiz-adv-x="595" 
d="M844 -68v-68q-65 -30 -137 -30q-134 0 -236 90t-199 322l-86 -86v-59q0 -24 8.5 -33t27.5 -13l23 -5v-50h-200v50l23 5q19 4 27.5 13t8.5 33v318q0 24 -10 33t-32 14l-17 4v50h200v-50l-17 -4q-22 -5 -32 -14t-10 -33v-158l192 189q-18 12 -52 23v47h210v-48
q-38 -12 -66 -32l-140 -144q50 -117 97 -194t93.5 -118.5t90 -58t96.5 -16.5q54 0 85 23h52zM297 -275h-56l40 126q0 18 -10 19l-23 3v77h99v-95z" />
    <glyph glyph-name="Ksmall.alt" unicode="&#xe02a;" horiz-adv-x="580" 
d="M844 -68v-68q-65 -30 -137 -30q-134 0 -236 90t-199 322l-86 -86v-59q0 -24 8.5 -33t27.5 -13l23 -5v-50h-200v50l23 5q19 4 27.5 13t8.5 33v318q0 24 -10 33t-32 14l-17 4v50h200v-50l-17 -4q-22 -5 -32 -14t-10 -33v-158l192 189q-18 12 -52 23v47h210v-48
q-38 -12 -66 -32l-140 -144q50 -117 97 -194t93.5 -118.5t90 -58t96.5 -16.5q54 0 85 23h52z" />
    <glyph glyph-name="Lacute.small" unicode="&#xe02b;" horiz-adv-x="460" 
d="M440 0h-395v60l22 5q19 4 27.5 13t8.5 33v308q0 23 -9.5 32.5t-31.5 14.5l-17 4v50h199v-51l-22 -4q-19 -3 -28 -12.5t-9 -33.5v-313q0 -18 7.5 -26.5t16 -10t27.5 -1.5h88q33 0 43 6.5t15 24.5l6 22h52v-121zM179 575h-70l79 155h82v-16z" />
    <glyph glyph-name="Lcaron.small" unicode="&#xe02c;" horiz-adv-x="460" 
d="M440 0h-395v60l22 5q19 4 27.5 13t8.5 33v308q0 23 -9.5 32.5t-31.5 14.5l-17 4v50h199v-51l-22 -4q-19 -3 -28 -12.5t-9 -33.5v-313q0 -18 7.5 -26.5t16 -10t27.5 -1.5h88q33 0 43 6.5t15 24.5l6 22h52v-121zM382 295h-56l40 126q0 18 -10 19l-23 3v77h99v-95z" />
    <glyph glyph-name="Lcommaaccent.small" unicode="&#xe02d;" horiz-adv-x="460" 
d="M440 0h-395v60l22 5q19 4 27.5 13t8.5 33v308q0 23 -9.5 32.5t-31.5 14.5l-17 4v50h199v-51l-22 -4q-19 -3 -28 -12.5t-9 -33.5v-313q0 -18 7.5 -26.5t16 -10t27.5 -1.5h88q33 0 43 6.5t15 24.5l6 22h52v-121zM264 -275h-56l40 126q0 18 -10 19l-23 3v77h99v-95z" />
    <glyph glyph-name="Ldot.small" unicode="&#xe02e;" horiz-adv-x="460" 
d="M440 0h-395v60l22 5q19 4 27.5 13t8.5 33v308q0 23 -9.5 32.5t-31.5 14.5l-17 4v50h199v-51l-22 -4q-19 -3 -28 -12.5t-9 -33.5v-313q0 -18 7.5 -26.5t16 -10t27.5 -1.5h88q33 0 43 6.5t15 24.5l6 22h52v-121zM390 246h-100v102h100v-102z" />
    <glyph glyph-name="Nacute.small" unicode="&#xe02f;" horiz-adv-x="638" 
d="M534 0h-79l-270 411v-310q0 -24 8.5 -33t27.5 -13l23 -5v-50h-199v50l23 5q19 4 28 13t9 33v318q0 22 -7 30t-26 14l-25 7v50h154l253 -382v281q0 24 -10 33t-32 14l-17 4v50h198v-50l-17 -4q-22 -5 -32 -14t-10 -33v-419zM299 575h-70l79 155h82v-16z" />
    <glyph glyph-name="Ncaron.small" unicode="&#xe030;" horiz-adv-x="638" 
d="M534 0h-79l-270 411v-310q0 -24 8.5 -33t27.5 -13l23 -5v-50h-199v50l23 5q19 4 28 13t9 33v318q0 22 -7 30t-26 14l-25 7v50h154l253 -382v281q0 24 -10 33t-32 14l-17 4v50h198v-50l-17 -4q-22 -5 -32 -14t-10 -33v-419zM347 585h-75l-120 120v25h75l82 -91l83 91h75
v-25z" />
    <glyph glyph-name="Ncommaaccent.small" unicode="&#xe031;" horiz-adv-x="638" 
d="M534 0h-79l-270 411v-310q0 -24 8.5 -33t27.5 -13l23 -5v-50h-199v50l23 5q19 4 28 13t9 33v318q0 22 -7 30t-26 14l-25 7v50h154l253 -382v281q0 24 -10 33t-32 14l-17 4v50h198v-50l-17 -4q-22 -5 -32 -14t-10 -33v-419zM316 -275h-56l40 126q0 18 -10 19l-23 3v77h99
v-95z" />
    <glyph glyph-name="Obreve.small" unicode="&#xe032;" horiz-adv-x="568" 
d="M421 721v-18q0 -35 -13 -60.5t-29.5 -37.5t-38.5 -19.5t-34 -8.5t-22 -1t-22 1t-34 8.5t-38.5 19.5t-29.5 37.5t-13 60.5v18h67v-22q0 -30 18.5 -46.5t51.5 -16.5t51.5 16.5t18.5 46.5v22h67zM441 223v78q0 158 -157 158t-157 -158v-78q0 -50 13 -83.5t37.5 -50
t49.5 -22.5t57 -6t57 6t49.5 22.5t37.5 50t13 83.5zM523 293v-67q0 -121 -66 -179t-173 -58t-173 58t-66 179v67q0 118 64.5 178t174.5 60t174.5 -60t64.5 -178z" />
    <glyph glyph-name="Ogonek" unicode="&#xe033;" horiz-adv-x="420" 
d="M320 -226l-43 -22h-36q-40 0 -65.5 23t-25.5 63q0 85 108 162h51q-48 -49 -65 -79.5t-17 -60.5q0 -49 54 -49h39v-37z" />
    <glyph glyph-name="Ohungarumlaut.small" unicode="&#xe034;" horiz-adv-x="568" 
d="M441 223v78q0 158 -157 158t-157 -158v-78q0 -50 13 -83.5t37.5 -50t49.5 -22.5t57 -6t57 6t49.5 22.5t37.5 50t13 83.5zM523 293v-67q0 -121 -66 -179t-173 -58t-173 58t-66 179v67q0 118 64.5 178t174.5 60t174.5 -60t64.5 -178zM236 575h-68l62 155h87v-16zM394 575
h-68l62 155h87v-16z" />
    <glyph glyph-name="Omacron.small" unicode="&#xe035;" horiz-adv-x="568" 
d="M441 223v78q0 158 -157 158t-157 -158v-78q0 -50 13 -83.5t37.5 -50t49.5 -22.5t57 -6t57 6t49.5 22.5t37.5 50t13 83.5zM523 293v-67q0 -121 -66 -179t-173 -58t-173 58t-66 179v67q0 118 64.5 178t174.5 60t174.5 -60t64.5 -178zM423 615h-270v60h270v-60z" />
    <glyph glyph-name="Oslashacute.small" unicode="&#xe036;" horiz-adv-x="568" 
d="M156 -100h-56l55 116q-110 57 -110 210v67q0 118 64.5 178t174.5 60q62 0 107 -19l42 88h55l-52 -111q87 -61 87 -196v-67q0 -121 -66 -179t-173 -58q-39 0 -81 10zM187 83l172 363q-33 13 -75 13q-157 0 -157 -158v-78q0 -104 60 -140zM441 223v78q0 76 -39 117
l-168 -353q21 -4 50 -4q32 0 57 6t49.5 22.5t37.5 50t13 83.5zM307 575h-70l79 155h82v-16z" />
    <glyph glyph-name="Q.alt" unicode="&#xe037;" horiz-adv-x="631" 
d="M496 243v198q0 45 -14.5 78.5t-34.5 51t-47 28.5t-47 14t-39 3t-39 -3t-46.5 -14t-46 -29t-33.5 -51.5t-14 -77.5v-198q0 -47 14 -82t33.5 -53t46.5 -28.5t46 -13t39 -2.5q21 0 39.5 2t46.5 12.5t47.5 28.5t34 53t14.5 83zM880 -94v-70q-43 -42 -94 -64t-140 -22
q-123 0 -206 64t-121 175h-5q-53 0 -97.5 13t-83.5 41t-61 80t-22 123v187q0 133 74 195.5t190 62.5q75 0 133 -24t96 -83.5t38 -150.5v-187q0 -109 -46.5 -166t-132.5 -80q26 -78 93 -126.5t151 -48.5q124 0 178 81h56z" />
    <glyph glyph-name="Qsmall.alt" unicode="&#xe038;" horiz-adv-x="568" 
d="M653 -73v-73q-56 -20 -128 -20q-176 0 -241 155q-107 0 -173 58t-66 179v67q0 118 64.5 178t174.5 60t174.5 -60t64.5 -178v-67q0 -96 -42.5 -152.5t-115.5 -74.5q20 -45 54 -67.5t106 -22.5q52 0 76 18h52zM441 223v78q0 158 -157 158t-157 -158v-78q0 -50 13 -83.5
t37.5 -50t49.5 -22.5t57 -6t57 6t49.5 22.5t37.5 50t13 83.5z" />
    <glyph glyph-name="R.alt" unicode="&#xe039;" horiz-adv-x="616" 
d="M198 335h101q48 0 82.5 13.5t51 36t23.5 44.5t7 46q0 27 -5.5 48t-19.5 42.5t-44 33t-74 11.5h-93q-29 0 -29 -28v-247zM1066 -94v-59q-66 -97 -241 -97q-163 0 -277.5 120t-218.5 395h-131v-164q0 -24 8.5 -33t27.5 -13l23 -5v-50h-203v50l23 5q19 4 27.5 13t8.5 33v478
q0 18 -4.5 25.5t-16.5 11.5l-37 11v53h284q102 0 158 -56t56 -149q0 -151 -146 -197q95 -243 196.5 -348t221.5 -105q127 0 183 81h58z" />
    <glyph glyph-name="Racute.alt" unicode="&#xe03a;" horiz-adv-x="616" 
d="M198 335h101q48 0 82.5 13.5t51 36t23.5 44.5t7 46q0 27 -5.5 48t-19.5 42.5t-44 33t-74 11.5h-93q-29 0 -29 -28v-247zM1066 -94v-59q-66 -97 -241 -97q-163 0 -277.5 120t-218.5 395h-131v-164q0 -24 8.5 -33t27.5 -13l23 -5v-50h-203v50l23 5q19 4 27.5 13t8.5 33v478
q0 18 -4.5 25.5t-16.5 11.5l-37 11v53h284q102 0 158 -56t56 -149q0 -151 -146 -197q95 -243 196.5 -348t221.5 -105q127 0 183 81h58zM310 725h-70l79 155h82v-16z" />
    <glyph glyph-name="Racute.small" unicode="&#xe03b;" horiz-adv-x="552" 
d="M186 245h89q75 0 104.5 27.5t29.5 82.5q0 49 -27 72t-95 23h-77q-24 0 -24 -28v-177zM504 0h-128l-86 175h-104v-74q0 -24 8.5 -33t27.5 -13l23 -5v-50h-200v50l23 5q19 4 27.5 13t8.5 33v318q0 18 -4.5 25.5t-16.5 11.5l-37 11v53h249q199 0 199 -165q0 -66 -34.5 -111
t-89.5 -55l60 -101q9 -16 18 -22t27 -8l29 -5v-53zM273 575h-70l79 155h82v-16z" />
    <glyph glyph-name="Racute.smallalt" unicode="&#xe03c;" horiz-adv-x="552" 
d="M186 255h89q76 0 105 25.5t29 79.5q0 49 -26.5 69.5t-95.5 20.5h-77q-24 0 -24 -28v-167zM804 -69v-68q-62 -29 -152 -29q-116 0 -202 76t-160 275h-104v-84q0 -24 8.5 -33t27.5 -13l23 -5v-50h-200v50l23 5q19 4 27.5 13t8.5 33v318q0 18 -4.5 25.5t-16.5 11.5l-37 11
v53h249q199 0 199 -160q0 -66 -34.5 -108.5t-89.5 -52.5q35 -91 71 -151t73 -89t68.5 -39.5t69.5 -10.5q71 0 100 22h52zM273 575h-70l79 155h82v-16z" />
    <glyph glyph-name="Rcaron.alt" unicode="&#xe03d;" horiz-adv-x="616" 
d="M198 335h101q48 0 82.5 13.5t51 36t23.5 44.5t7 46q0 27 -5.5 48t-19.5 42.5t-44 33t-74 11.5h-93q-29 0 -29 -28v-247zM1066 -94v-59q-66 -97 -241 -97q-163 0 -277.5 120t-218.5 395h-131v-164q0 -24 8.5 -33t27.5 -13l23 -5v-50h-203v50l23 5q19 4 27.5 13t8.5 33v478
q0 18 -4.5 25.5t-16.5 11.5l-37 11v53h284q102 0 158 -56t56 -149q0 -151 -146 -197q95 -243 196.5 -348t221.5 -105q127 0 183 81h58zM353 735h-75l-120 120v25h75l82 -91l83 91h75v-25z" />
    <glyph glyph-name="Rcaron.small" unicode="&#xe03e;" horiz-adv-x="552" 
d="M186 245h89q75 0 104.5 27.5t29.5 82.5q0 49 -27 72t-95 23h-77q-24 0 -24 -28v-177zM504 0h-128l-86 175h-104v-74q0 -24 8.5 -33t27.5 -13l23 -5v-50h-200v50l23 5q19 4 27.5 13t8.5 33v318q0 18 -4.5 25.5t-16.5 11.5l-37 11v53h249q199 0 199 -165q0 -66 -34.5 -111
t-89.5 -55l60 -101q9 -16 18 -22t27 -8l29 -5v-53zM290 585h-75l-120 120v25h75l82 -91l83 91h75v-25z" />
    <glyph glyph-name="Rcaron.smallalt" unicode="&#xe03f;" horiz-adv-x="552" 
d="M186 255h89q76 0 105 25.5t29 79.5q0 49 -26.5 69.5t-95.5 20.5h-77q-24 0 -24 -28v-167zM804 -69v-68q-62 -29 -152 -29q-116 0 -202 76t-160 275h-104v-84q0 -24 8.5 -33t27.5 -13l23 -5v-50h-200v50l23 5q19 4 27.5 13t8.5 33v318q0 18 -4.5 25.5t-16.5 11.5l-37 11
v53h249q199 0 199 -160q0 -66 -34.5 -108.5t-89.5 -52.5q35 -91 71 -151t73 -89t68.5 -39.5t69.5 -10.5q71 0 100 22h52zM290 585h-75l-120 120v25h75l82 -91l83 91h75v-25z" />
    <glyph glyph-name="Rcommaaccent.alt" unicode="&#xe040;" horiz-adv-x="616" 
d="M198 335h101q48 0 82.5 13.5t51 36t23.5 44.5t7 46q0 27 -5.5 48t-19.5 42.5t-44 33t-74 11.5h-93q-29 0 -29 -28v-247zM1066 -94v-59q-66 -97 -241 -97q-163 0 -277.5 120t-218.5 395h-131v-164q0 -24 8.5 -33t27.5 -13l23 -5v-50h-203v50l23 5q19 4 27.5 13t8.5 33v478
q0 18 -4.5 25.5t-16.5 11.5l-37 11v53h284q102 0 158 -56t56 -149q0 -151 -146 -197q95 -243 196.5 -348t221.5 -105q127 0 183 81h58zM318 -275h-56l40 126q0 18 -10 19l-23 3v77h99v-95z" />
    <glyph glyph-name="Rcommaaccent.small" unicode="&#xe041;" horiz-adv-x="552" 
d="M186 245h89q75 0 104.5 27.5t29.5 82.5q0 49 -27 72t-95 23h-77q-24 0 -24 -28v-177zM504 0h-128l-86 175h-104v-74q0 -24 8.5 -33t27.5 -13l23 -5v-50h-200v50l23 5q19 4 27.5 13t8.5 33v318q0 18 -4.5 25.5t-16.5 11.5l-37 11v53h249q199 0 199 -165q0 -66 -34.5 -111
t-89.5 -55l60 -101q9 -16 18 -22t27 -8l29 -5v-53zM264 -275h-56l40 126q0 18 -10 19l-23 3v77h99v-95z" />
    <glyph glyph-name="Rcommaaccent.smallalt" unicode="&#xe042;" horiz-adv-x="552" 
d="M186 255h89q76 0 105 25.5t29 79.5q0 49 -26.5 69.5t-95.5 20.5h-77q-24 0 -24 -28v-167zM804 -69v-68q-62 -29 -152 -29q-116 0 -202 76t-160 275h-104v-84q0 -24 8.5 -33t27.5 -13l23 -5v-50h-200v50l23 5q19 4 27.5 13t8.5 33v318q0 18 -4.5 25.5t-16.5 11.5l-37 11
v53h249q199 0 199 -160q0 -66 -34.5 -108.5t-89.5 -52.5q35 -91 71 -151t73 -89t68.5 -39.5t69.5 -10.5q71 0 100 22h52zM264 -275h-56l40 126q0 18 -10 19l-23 3v77h99v-95z" />
    <glyph glyph-name="Ring" unicode="&#xe043;" 
d="M255 831v18q0 23 -16 36.5t-40 13.5t-39.5 -13.5t-15.5 -36.5v-18q0 -23 15.5 -37t39.5 -14q25 0 40.5 14t15.5 37zM317 847v-14q0 -49 -34.5 -76t-83.5 -27q-48 0 -82 27t-34 76v14q0 49 34 76t82 27q49 0 83.5 -27t34.5 -76z" />
    <glyph glyph-name="Rsmall.alt" unicode="&#xe044;" horiz-adv-x="552" 
d="M186 255h89q76 0 105 25.5t29 79.5q0 49 -26.5 69.5t-95.5 20.5h-77q-24 0 -24 -28v-167zM804 -69v-68q-62 -29 -152 -29q-116 0 -202 76t-160 275h-104v-84q0 -24 8.5 -33t27.5 -13l23 -5v-50h-200v50l23 5q19 4 27.5 13t8.5 33v318q0 18 -4.5 25.5t-16.5 11.5l-37 11
v53h249q199 0 199 -160q0 -66 -34.5 -108.5t-89.5 -52.5q35 -91 71 -151t73 -89t68.5 -39.5t69.5 -10.5q71 0 100 22h52z" />
    <glyph glyph-name="Sacute.small" unicode="&#xe045;" horiz-adv-x="530" 
d="M450 360h-70l-6 72q-39 27 -106 27q-129 0 -129 -68q0 -34 34.5 -54t84 -31t99 -24.5t84 -45t34.5 -82.5q0 -83 -50.5 -123.5t-162.5 -40.5q-25 0 -47 1.5t-41 6t-31.5 7.5t-28.5 10t-21.5 9.5t-20.5 11t-17 9.5q0 38 2 68.5t4 42.5l2 11h69l8 -73q55 -32 122 -32
q69 0 100 16.5t31 62.5q0 28 -25 46.5t-62 28t-81 22.5t-81 27.5t-62 45.5t-25 75q0 145 208 145q102 0 191 -50zM283 575h-70l79 155h82v-16z" />
    <glyph glyph-name="Scedilla.small" unicode="&#xe046;" horiz-adv-x="530" 
d="M285 -101h-75l-4 37l28 55q-98 5 -179 55q0 38 2 68t4 42l2 11h69l8 -74q53 -31 122 -31t100 16.5t31 62.5q0 28 -25 46.5t-62 28t-81 22.5t-81 27.5t-62 45.5t-25 75q0 145 208 145q102 0 191 -50l-6 -121h-70l-6 72q-39 27 -106 27q-129 0 -129 -68q0 -34 34.5 -54
t84 -31t99 -24.5t84 -45t34.5 -82.5q0 -76 -42.5 -116t-134.5 -47l-25 -44h18q55 0 74 -22t19 -56q0 -48 -36.5 -72.5t-94.5 -24.5q-37 0 -100 12v55h36q30 -16 64 -16q69 0 69 42q0 17 -8 25.5t-29 8.5z" />
    <glyph glyph-name="Scircumflex.small" unicode="&#xe047;" horiz-adv-x="530" 
d="M450 360h-70l-6 72q-39 27 -106 27q-129 0 -129 -68q0 -34 34.5 -54t84 -31t99 -24.5t84 -45t34.5 -82.5q0 -83 -50.5 -123.5t-162.5 -40.5q-25 0 -47 1.5t-41 6t-31.5 7.5t-28.5 10t-21.5 9.5t-20.5 11t-17 9.5q0 38 2 68.5t4 42.5l2 11h69l8 -73q55 -32 122 -32
q69 0 100 16.5t31 62.5q0 28 -25 46.5t-62 28t-81 22.5t-81 27.5t-62 45.5t-25 75q0 145 208 145q102 0 191 -50zM434 585h-75l-83 91l-82 -91h-75v25l120 120h75l120 -120v-25z" />
    <glyph glyph-name="Scommaaccent.small" unicode="&#xe048;" horiz-adv-x="530" 
d="M450 360h-70l-6 72q-39 27 -106 27q-129 0 -129 -68q0 -34 34.5 -54t84 -31t99 -24.5t84 -45t34.5 -82.5q0 -83 -50.5 -123.5t-162.5 -40.5q-25 0 -47 1.5t-41 6t-31.5 7.5t-28.5 10t-21.5 9.5t-20.5 11t-17 9.5q0 38 2 68.5t4 42.5l2 11h69l8 -73q55 -32 122 -32
q69 0 100 16.5t31 62.5q0 28 -25 46.5t-62 28t-81 22.5t-81 27.5t-62 45.5t-25 75q0 145 208 145q102 0 191 -50zM264 -275h-56l40 126q0 18 -10 19l-23 3v77h99v-95z" />
    <glyph glyph-name="Tbar.small" unicode="&#xe04c;" horiz-adv-x="475" 
d="M337 0h-200v50l23 5q19 4 27.5 13t8.5 33v143h-120v50h120v119l-2 37h-72q-28 0 -38 -7t-15 -25l-6 -21h-48v123h445v-123h-48l-7 21q-4 13 -7.5 18t-14 9.5t-30.5 4.5h-73l-2 -37v-119h132v-50h-132v-143q0 -24 8.5 -33t27.5 -13l23 -5v-50z" />
    <glyph glyph-name="Tcaron.small" unicode="&#xe04d;" horiz-adv-x="475" 
d="M337 0h-200v50l23 5q19 4 27.5 13t8.5 33v312l-2 37h-72q-28 0 -38 -7t-15 -25l-6 -21h-48v123h445v-123h-48l-7 21q-4 13 -7.5 18t-14 9.5t-30.5 4.5h-73l-2 -37v-312q0 -24 8.5 -33t27.5 -13l23 -5v-50zM276 585h-75l-120 120v25h75l82 -91l83 91h75v-25z" />
    <glyph glyph-name="Tcommaaccent.small" unicode="&#xe04e;" horiz-adv-x="475" 
d="M337 0h-200v50l23 5q19 4 27.5 13t8.5 33v312l-2 37h-72q-28 0 -38 -7t-15 -25l-6 -21h-48v123h445v-123h-48l-7 21q-4 13 -7.5 18t-14 9.5t-30.5 4.5h-73l-2 -37v-312q0 -24 8.5 -33t27.5 -13l23 -5v-50zM237 -275h-56l40 126q0 18 -10 19l-23 3v77h99v-95z" />
    <glyph glyph-name="Tilde" unicode="&#xe04f;" horiz-adv-x="450" 
d="M390 838v-21q-1 -4 -2.5 -9.5t-8.5 -20.5t-17 -26.5t-29 -21t-43 -9.5q-29 0 -73 28.5t-65 28.5q-22 0 -35.5 -13.5t-16.5 -26.5l-2 -13h-58v22l2.5 10t10 22t20 28.5t33.5 22.5t49 10q35 0 76 -28.5t56 -28.5q19 0 31.5 11.5t15.5 22.5l2 12h54z" />
    <glyph glyph-name="Ubreve.small" unicode="&#xe050;" horiz-adv-x="638" 
d="M462 218v201q0 24 -10 33t-32 14l-17 4v50h200v-50l-17 -4q-22 -5 -32 -14t-10 -33v-198q0 -232 -226 -232q-224 0 -224 232v198q0 24 -10 33t-32 14l-17 4v50h200v-50l-17 -4q-22 -5 -32 -14t-10 -33v-201q0 -157 142 -157q144 0 144 157zM455 721v-18q0 -35 -13 -60.5
t-29.5 -37.5t-38.5 -19.5t-34 -8.5t-22 -1t-22 1t-34 8.5t-38.5 19.5t-29.5 37.5t-13 60.5v18h67v-22q0 -30 18.5 -46.5t51.5 -16.5t51.5 16.5t18.5 46.5v22h67z" />
    <glyph glyph-name="Uhungarumlaut.small" unicode="&#xe051;" horiz-adv-x="638" 
d="M462 218v201q0 24 -10 33t-32 14l-17 4v50h200v-50l-17 -4q-22 -5 -32 -14t-10 -33v-198q0 -232 -226 -232q-224 0 -224 232v198q0 24 -10 33t-32 14l-17 4v50h200v-50l-17 -4q-22 -5 -32 -14t-10 -33v-201q0 -157 142 -157q144 0 144 157zM256 575h-68l72 175h87v-16z
M414 575h-68l72 175h87v-16z" />
    <glyph glyph-name="Umacron.small" unicode="&#xe052;" horiz-adv-x="638" 
d="M462 218v201q0 24 -10 33t-32 14l-17 4v50h200v-50l-17 -4q-22 -5 -32 -14t-10 -33v-198q0 -232 -226 -232q-224 0 -224 232v198q0 24 -10 33t-32 14l-17 4v50h200v-50l-17 -4q-22 -5 -32 -14t-10 -33v-201q0 -157 142 -157q144 0 144 157zM455 615h-270v60h270v-60z" />
    <glyph glyph-name="Uogonek.small" unicode="&#xe053;" horiz-adv-x="638" 
d="M366 -226l-43 -22h-36q-40 0 -65.5 23t-25.5 63q0 81 94 152q-196 15 -196 231v198q0 24 -10 33t-32 14l-17 4v50h200v-50l-17 -4q-22 -5 -32 -14t-10 -33v-201q0 -157 142 -157q144 0 144 157v201q0 24 -10 33t-32 14l-17 4v50h200v-50l-17 -4q-22 -5 -32 -14t-10 -33
v-198q0 -216 -199 -231q-42 -44 -57 -73t-15 -57q0 -49 54 -49h39v-37z" />
    <glyph glyph-name="Uring.small" unicode="&#xe054;" horiz-adv-x="638" 
d="M462 218v201q0 24 -10 33t-32 14l-17 4v50h200v-50l-17 -4q-22 -5 -32 -14t-10 -33v-198q0 -232 -226 -232q-224 0 -224 232v198q0 24 -10 33t-32 14l-17 4v50h200v-50l-17 -4q-22 -5 -32 -14t-10 -33v-201q0 -157 142 -157q144 0 144 157zM368 684v18q0 23 -16 36.5
t-40 13.5t-39.5 -13.5t-15.5 -36.5v-18q0 -23 15.5 -37t39.5 -14q25 0 40.5 13.5t15.5 37.5zM430 700v-14q0 -49 -34.5 -76t-83.5 -27q-48 0 -82 27t-34 76v14q0 49 34 76t82 27q49 0 83.5 -27t34.5 -76z" />
    <glyph glyph-name="Utilde.small" unicode="&#xe055;" horiz-adv-x="638" 
d="M462 218v201q0 24 -10 33t-32 14l-17 4v50h200v-50l-17 -4q-22 -5 -32 -14t-10 -33v-198q0 -232 -226 -232q-224 0 -224 232v198q0 24 -10 33t-32 14l-17 4v50h200v-50l-17 -4q-22 -5 -32 -14t-10 -33v-201q0 -157 142 -157q144 0 144 157zM491 699v-21q-1 -4 -2.5 -9.5
t-8.5 -20.5t-17 -26.5t-29 -21t-43 -9.5q-29 0 -73 28.5t-65 28.5q-22 0 -35.5 -13t-15.5 -27l-3 -13h-58v22l2.5 10t10 22t20 28.5t33.5 22.5t49 10q35 0 76 -28.5t56 -28.5q19 0 31.5 11.5t14.5 23.5l3 11h54z" />
    <glyph glyph-name="Wacute.small" unicode="&#xe056;" horiz-adv-x="769" 
d="M609 0h-134l-90 274h-7l-84 -274h-133l-80 430q-4 20 -12.5 28.5t-26.5 10.5l-27 3v48h224v-48l-27 -3q-38 -4 -38 -43q0 -9 1 -13l56 -332h11l106 338h73l116 -338h11l64 363q-13 14 -61 30v46h203v-45q-50 -18 -58 -28zM412 575h-70l79 155h82v-16z" />
    <glyph glyph-name="Wcircumflex.small" unicode="&#xe057;" horiz-adv-x="769" 
d="M609 0h-134l-90 274h-7l-84 -274h-133l-80 430q-4 20 -12.5 28.5t-26.5 10.5l-27 3v48h224v-48l-27 -3q-38 -4 -38 -43q0 -9 1 -13l56 -332h11l106 338h73l116 -338h11l64 363q-13 14 -61 30v46h203v-45q-50 -18 -58 -28zM542 585h-75l-83 91l-82 -91h-75v25l120 120h75
l120 -120v-25z" />
    <glyph glyph-name="Wdieresis.small" unicode="&#xe058;" horiz-adv-x="769" 
d="M609 0h-134l-90 274h-7l-84 -274h-133l-80 430q-4 20 -12.5 28.5t-26.5 10.5l-27 3v48h224v-48l-27 -3q-38 -4 -38 -43q0 -9 1 -13l56 -332h11l106 338h73l116 -338h11l64 363q-13 14 -61 30v46h203v-45q-50 -18 -58 -28zM339 610h-93v93h93v-93zM516 610h-93v93h93v-93z
" />
    <glyph glyph-name="Wgrave.small" unicode="&#xe059;" horiz-adv-x="769" 
d="M609 0h-134l-90 274h-7l-84 -274h-133l-80 430q-4 20 -12.5 28.5t-26.5 10.5l-27 3v48h224v-48l-27 -3q-38 -4 -38 -43q0 -9 1 -13l56 -332h11l106 338h73l116 -338h11l64 363q-13 14 -61 30v46h203v-45q-50 -18 -58 -28zM437 575h-70l-91 139v16h82z" />
    <glyph glyph-name="Ycircumflex.small" unicode="&#xe05a;" horiz-adv-x="584" 
d="M388 0h-200v50l23 5q19 4 27.5 13t8.5 33v93l-167 258q-25 13 -55 22v46h209v-46q-38 -18 -53 -27l109 -175l107 168q-12 18 -51 33v47h209v-45q-51 -18 -55 -24l-171 -257v-93q0 -24 8.5 -33t27.5 -13l23 -5v-50zM450 585h-75l-83 91l-82 -91h-75v25l120 120h75
l120 -120v-25z" />
    <glyph glyph-name="Ygrave.small" unicode="&#xe05b;" horiz-adv-x="584" 
d="M388 0h-200v50l23 5q19 4 27.5 13t8.5 33v93l-167 258q-25 13 -55 22v46h209v-46q-38 -18 -53 -27l109 -175l107 168q-12 18 -51 33v47h209v-45q-51 -18 -55 -24l-171 -257v-93q0 -24 8.5 -33t27.5 -13l23 -5v-50zM356 575h-70l-91 139v16h82z" />
    <glyph glyph-name="Zacute.small" unicode="&#xe05c;" horiz-adv-x="498" 
d="M458 0h-418v71l312 375h-178q-36 0 -42 -23l-9 -36h-61v133h396v-70l-315 -376h201q25 0 36 7.5t15 23.5l6 22h57v-127zM286 575h-70l79 155h82v-16z" />
    <glyph glyph-name="Zdotaccent.small" unicode="&#xe05d;" horiz-adv-x="498" 
d="M458 0h-418v71l312 375h-178q-36 0 -42 -23l-9 -36h-61v133h396v-70l-315 -376h201q25 0 36 7.5t15 23.5l6 22h57v-127zM304 610h-93v93h93v-93z" />
    <glyph glyph-name="ampersand.alt" unicode="&#xe05e;" horiz-adv-x="800" 
d="M755 78v-66q-52 -23 -109 -23t-87 17t-44 51h-2q-20 -26 -72 -47t-119 -21q-119 0 -178 56.5t-59 149.5q0 79 39.5 123.5t100.5 55.5v5q-46 6 -77 44t-31 97q0 71 47 118t125 47q95 0 147 -34v-58h-61q-27 23 -77 23q-42 0 -67.5 -26.5t-25.5 -68.5q0 -114 118 -114h165
v163l62 19h20v-182h104v-70h-104v-168q0 -55 15 -81.5t63 -26.5q32 0 59 17h48zM488 173v164h-161q-77 0 -116 -31.5t-39 -110.5q0 -58 38 -96t112 -38q78 0 122 29t44 83z" />
    <glyph glyph-name="apple" unicode="&#xe05f;" horiz-adv-x="886" 
d="M827 100l-282 -156q-8 -2 -18 -2h-170q-7 0 -15 2l-280 155q-12 3 -12 20v408q0 10 9 16l414 205q6 2 10 2t8 -2l304 -153q12 -7 18 -13l22 -45q1 -4 1 -10v-414q0 -10 -9 -13zM806 121v384l-257 -143v-160l127 70v89q0 11 14 11q17 0 17 -11v-97q0 -10 -8 -15l-150 -77
v-73l137 73q3 1 7 1q14 0 14 -15q0 -8 -8 -12l-149 -78q-15 -6 -16 -6q-12 0 -12 15v279h-164q-7 0 -19 6l-258 143v-194l124 -70q6 -5 6 -14v-98q0 -15 -13 -15q-15 0 -15 15v91l-102 58v-157l257 -140v261q-6 5 -49.5 30.5t-84.5 48.5l-40 23q-8 2 -8 10q0 17 14 17
q4 0 9 -3l179 -103q7 -5 7 -12v-283h166zM801 536l-17 34l-301 151l-387 -194l260 -140h175l69 38v51q0 15 13 15h108zM608 569q0 -6 -13.5 -15.5t-20.5 -9.5q-8 0 -44.5 21.5t-36.5 26.5q0 8 13 16.5t24 8.5t44.5 -19t33.5 -29zM451 489q0 -6 -12.5 -15t-19.5 -9
q-9 0 -45 21.5t-36 26.5q0 7 13.5 16t23.5 9t43 -19.5t33 -29.5z" />
    <glyph glyph-name="at.cap" unicode="&#xe060;" horiz-adv-x="860" 
d="M715 84v-66q-11 -5 -32 -13t-89 -21t-140 -13q-384 0 -384 341v104q0 135 102.5 223t255.5 88q160 0 261 -87t101 -223v-100q0 -67 -50.5 -117t-116.5 -50h-86l-16 43q-5 -5 -15 -12t-42 -19t-66 -12q-55 0 -93 32.5t-38 88.5q0 50 38.5 81.5t106.5 31.5h104v27
q0 48 -19.5 63t-61.5 15q-55 0 -84 -39h-51l-5 58q32 19 74 29t68 10q149 0 149 -136v-186q0 -17 11 -17h26q36 0 64 28.5t28 70.5v111q0 80 -44.5 137t-108 82t-134.5 25q-112 0 -197.5 -64t-85.5 -180v-106q0 -273 309 -273q36 0 68.5 3t53.5 7.5t40 10.5t28 10t18 9l9 5
h44zM516 243v89h-103q-76 0 -76 -61q0 -28 16 -45.5t52 -17.5q32 0 59.5 9t39.5 17z" />
    <glyph glyph-name="baht" unicode="&#xe061;" horiz-adv-x="606" 
d="M342 -120h-57v120h-230v50l23 5q19 4 27.5 13t8.5 33v458q0 24 -10 33t-32 14l-17 4v50h230v110h57v-110q56 0 96 -16.5t59.5 -45t28 -58t8.5 -64.5q0 -50 -28 -88.5t-69 -50.5v-2q119 -21 119 -156q0 -83 -50 -131t-143 -48h-21v-120zM342 299v-229q68 1 95 28t27 81
q0 62 -26 91t-96 29zM285 70v229h-86v-185q0 -29 5.5 -36.5t27.5 -7.5h53zM285 363v227h-53q-22 0 -27.5 -7.5t-5.5 -36.5v-183h86zM342 589v-225q50 6 73.5 37t23.5 76q0 43 -23 74.5t-74 37.5z" />
    <glyph glyph-name="bahtoldstyle" unicode="&#xe062;" horiz-adv-x="500" 
d="M287 -120h-57v120h-195v50l23 5q19 4 27.5 13t8.5 33v318q0 24 -10 33t-32 14l-17 4v50h195v110h57v-110q166 0 166 -139q0 -97 -97 -114v-2q104 -14 104 -119q0 -69 -41 -107.5t-114 -38.5h-18v-120zM287 229v-159q81 2 81 76q0 83 -81 83zM230 70v159h-51v-115
q0 -29 5.5 -36.5t27.5 -7.5h18zM230 293v157h-18q-22 0 -27.5 -7.5t-5.5 -36.5v-113h51zM287 449v-155q40 3 55.5 23.5t15.5 54.5q0 39 -16 57.5t-55 19.5z" />
    <glyph glyph-name="braceleft.cap" unicode="&#xe063;" horiz-adv-x="376" 
d="M308 -100h-146v330q0 26 -19 36t-83 20v59q59 2 80.5 22t21.5 80v303h146v-47l-25 -3q-22 -2 -31 -12t-9 -36v-207q0 -44 -20.5 -73.5t-40.5 -37.5l-20 -7q81 -20 81 -97v-231q0 -25 9 -35t31 -13l25 -4v-47z" />
    <glyph glyph-name="braceright.cap" unicode="&#xe064;" horiz-adv-x="376" 
d="M231 -100h-146v47l25 3q22 2 31 12t9 36v207q0 26 8 48t18 34t23 21t19.5 11.5t11.5 3.5q-80 20 -80 97v231q0 25 -9 35t-31 13l-25 4v47h146v-330q0 -26 19 -36t83 -20v-59q-59 -2 -80.5 -22t-21.5 -80v-303z" />
    <glyph glyph-name="bracketleft.cap" unicode="&#xe065;" horiz-adv-x="380" 
d="M279 -100h-146v850h146v-47l-24 -3q-22 -2 -31 -12t-9 -36v-653q0 -24 9 -34t31 -14l24 -4v-47z" />
    <glyph glyph-name="bracketright.cap" unicode="&#xe066;" horiz-adv-x="380" 
d="M264 -100h-146v47l24 4q22 4 31 14t9 34v653q0 26 -9 36t-31 12l-24 3v47h146v-850z" />
    <glyph glyph-name="c_t" unicode="&#xe067;" horiz-adv-x="900" 
d="M865 82v-64q-58 -23 -110 -23q-138 0 -138 121v299h-77v65h77v98q0 37 -54 37q-68 0 -101 -40.5t-37 -134.5l-4 -99h-62l-10 57q-46 23 -91 23q-29 0 -56 -7.5t-51.5 -36.5t-24.5 -76v-122q0 -35 13 -60t34.5 -37t42 -16.5t42.5 -4.5q44 0 77.5 10.5t44.5 20.5h60v-63
q-82 -40 -182 -40q-28 0 -55 4t-56.5 16.5t-51 32t-36 53t-14.5 76.5v138q0 49 21 86.5t54.5 57t68 29t69.5 9.5q55 0 97 -16q5 95 60.5 150t147.5 55q48 0 87.5 -17.5t48.5 -38.5v-144h134v-65h-134v-297q0 -28 13 -40.5t45 -12.5q33 0 60 17h48z" />
    <glyph glyph-name="cent.denominator" unicode="&#xe068;" horiz-adv-x="422" 
d="M247 -85h-51v99q-69 5 -109.5 37t-40.5 116v75q0 79 42.5 115.5t107.5 39.5v87h51v-90q74 -8 130 -54l-6 -97h-63v65q-33 24 -93 24q-49 0 -72.5 -19.5t-23.5 -75.5v-72q0 -56 24 -72.5t72 -16.5q33 0 62 10t37 20h54v-56q-55 -29 -121 -35v-100z" />
    <glyph glyph-name="cent.numerator" unicode="&#xe069;" horiz-adv-x="422" 
d="M247 205h-51v99q-69 5 -109.5 37t-40.5 116v75q0 79 42.5 115.5t107.5 39.5v87h51v-90q74 -8 130 -54l-6 -97h-63v65q-33 24 -93 24q-49 0 -72.5 -19.5t-23.5 -75.5v-72q0 -56 24 -72.5t72 -16.5q33 0 62 10t37 20h54v-56q-55 -29 -121 -35v-100z" />
    <glyph glyph-name="cent.taboldstyle" unicode="&#xe06a;" horiz-adv-x="520" 
d="M312 -120h-57v111q-85 8 -135 63.5t-50 136.5v135q0 89 52.5 141.5t132.5 61.5v100h57v-99q99 -6 160 -38q-1 -47 -9 -116h-70v63q-31 14 -81 16v-390q68 5 95 39h65v-72q-77 -37 -160 -42v-110zM255 66v388q-100 -11 -100 -121v-140q0 -112 100 -127z" />
    <glyph glyph-name="colonmonetary.taboldstyle" unicode="&#xe06b;" horiz-adv-x="520" 
d="M367 -120h-57v110q-9 -1 -26 -1q-12 0 -32 2v-111h-57v124q-59 22 -92 72t-33 115v130q0 72 35.5 121t94.5 70v117h57v-104q9 1 27 1q17 0 26 -1v104h57v-110q64 -11 105 -32q-1 -47 -9 -116h-70v63q-36 17 -109 17q-129 0 -129 -123v-135q0 -129 129 -129q90 0 123 40
h65v-72q-59 -27 -105 -36v-116z" />
    <glyph glyph-name="comma.denominator" unicode="&#xe06c;" horiz-adv-x="210" 
d="M110 -129h-50l36 114q0 15 -10 17l-20 2v70h89v-86z" />
    <glyph glyph-name="comma.numerator" unicode="&#xe06d;" horiz-adv-x="210" 
d="M110 161h-50l36 114q0 15 -10 17l-20 2v70h89v-86z" />
    <glyph glyph-name="commaaccent.cap" unicode="&#xe06e;" horiz-adv-x="306" 
d="M156 -275h-56l40 126q0 18 -10 19l-23 3v77h99v-95z" />
    <glyph glyph-name="commaaccent.small" unicode="&#xe06f;" horiz-adv-x="306" 
d="M156 -275h-56l40 126q0 18 -10 19l-23 3v77h99v-95z" />
    <glyph glyph-name="currency.taboldstyle" unicode="&#xe070;" horiz-adv-x="520" 
d="M438 57l-66 65q-51 -38 -113 -38q-64 0 -113 37l-64 -64l-42 42l64 64q-38 51 -38 114q0 62 38 113l-64 65l42 42l64 -65q51 37 113 37t113 -38l66 66l42 -42l-66 -66q37 -51 37 -112q0 -62 -37 -113l66 -65zM259 148q52 0 90 38.5t38 90.5t-38 90t-90 38t-90.5 -38
t-38.5 -90q0 -53 38 -91t91 -38z" />
    <glyph glyph-name="dblGrave.small" unicode="&#xe071;" horiz-adv-x="480" 
d="M377 575h-68l-91 159v16h87zM219 575h-68l-91 159v16h87z" />
    <glyph glyph-name="dollar.denominator" unicode="&#xe072;" horiz-adv-x="419" 
d="M233 -85h-47v90q-41 1 -81 13.5t-60 26.5q0 38 1.5 63.5t3.5 31.5l2 7h56l9 -65q31 -18 91 -18q94 0 94 53q0 24 -26.5 37.5t-64 19.5t-75 15t-64 33t-26.5 64q0 59 35.5 86t104.5 31v81h47v-82q82 -6 126 -38q0 -37 -1.5 -62.5t-3.5 -32.5l-1 -7h-58l-6 62
q-26 17 -81 17q-90 0 -90 -46q0 -25 26.5 -36.5t64 -15.5t75 -12t64 -34.5t26.5 -72.5q0 -60 -34.5 -87t-106.5 -32v-90z" />
    <glyph glyph-name="dollar.numerator" unicode="&#xe073;" horiz-adv-x="419" 
d="M233 205h-47v90q-41 1 -81 13.5t-60 26.5q0 38 1.5 63.5t3.5 31.5l2 7h56l9 -65q31 -18 91 -18q94 0 94 53q0 24 -26.5 37.5t-64 19.5t-75 15t-64 33t-26.5 64q0 59 35.5 86t104.5 31v81h47v-82q82 -6 126 -38q0 -37 -1.5 -62.5t-3.5 -32.5l-1 -7h-58l-6 62
q-26 17 -81 17q-90 0 -90 -46q0 -25 26.5 -36.5t64 -15.5t75 -12t64 -34.5t26.5 -72.5q0 -60 -34.5 -87t-106.5 -32v-90z" />
    <glyph glyph-name="dollar.taboldstyle" unicode="&#xe074;" horiz-adv-x="520" 
d="M302 -120h-57v110q-104 4 -181 50q0 47 2 77.5t4 37.5l2 7h70l10 -74q34 -21 93 -23v165q-39 10 -65 20t-55 27.5t-43.5 44.5t-14.5 64q0 136 178 144v99h57v-99q78 -7 154 -49q0 -47 -1.5 -77t-2.5 -37l-2 -7h-73l-6 72q-26 18 -69 22v-158q31 -7 51 -12.5t45.5 -17
t40.5 -25.5t25.5 -36.5t10.5 -50.5q0 -77 -40.5 -117t-132.5 -46v-111zM245 310v145q-96 -7 -96 -69q0 -30 24.5 -47t71.5 -29zM302 215v-149q47 5 68.5 24t21.5 56q0 26 -23 41.5t-67 27.5z" />
    <glyph glyph-name="eight.denominator" unicode="&#xe075;" 
d="M358 121v-18q0 -35 -16.5 -59t-44.5 -34t-50.5 -13.5t-46.5 -3.5t-46.5 3.5t-50.5 13.5t-44.5 34t-16.5 59v18q0 53 59 72q-49 28 -49 82v14q0 42 28 68t58 33t62 7t62 -7t58 -33t28 -68v-14q0 -46 -40 -65q50 -26 50 -89zM283 108v9q0 13 -3 22.5t-12 15.5t-16.5 9.5
t-26 5.5t-29.5 2.5t-37 1.5q-42 -13 -42 -57v-9q0 -55 83 -55t83 55zM273 282v7q0 48 -73 48t-73 -48v-7q0 -37 23 -45t91 -9q32 20 32 54z" />
    <glyph glyph-name="eight.fitted" unicode="&#xe076;" horiz-adv-x="520" 
d="M344 350q57 -13 100.5 -56t43.5 -113q0 -191 -229 -191q-228 0 -228 190q0 64 43.5 107t107.5 59q-57 12 -94 52.5t-37 104.5q0 80 54 123t154 43t154.5 -43t54.5 -123q0 -99 -124 -153zM243 309q-122 -35 -122 -129q0 -115 138 -115q139 0 139 115q0 54 -37.5 84
t-117.5 45zM275 384q53 20 78 48t25 71q0 39 -28 65t-90 26t-90.5 -26t-28.5 -65q0 -91 134 -119z" />
    <glyph glyph-name="eight.numerator" unicode="&#xe077;" 
d="M358 411v-18q0 -35 -16.5 -59t-44.5 -34t-50.5 -13.5t-46.5 -3.5t-46.5 3.5t-50.5 13.5t-44.5 34t-16.5 59v18q0 53 59 72q-49 28 -49 82v14q0 42 28 68t58 33t62 7t62 -7t58 -33t28 -68v-14q0 -46 -40 -65q50 -26 50 -89zM283 398v9q0 13 -3 22.5t-12 15.5t-16.5 9.5
t-26 5.5t-29.5 2.5t-37 1.5q-42 -13 -42 -57v-9q0 -55 83 -55t83 55zM273 572v7q0 48 -73 48t-73 -48v-7q0 -37 23 -45t91 -9q32 20 32 54z" />
    <glyph glyph-name="eight.taboldstyle" unicode="&#xe078;" horiz-adv-x="520" 
d="M344 350q57 -13 100.5 -56t43.5 -113q0 -191 -229 -191q-228 0 -228 190q0 64 43.5 107t107.5 59q-57 12 -94 52.5t-37 104.5q0 80 54 123t154 43t154.5 -43t54.5 -123q0 -99 -124 -153zM243 309q-122 -35 -122 -129q0 -115 138 -115q139 0 139 115q0 54 -37.5 84
t-117.5 45zM275 384q53 20 78 48t25 71q0 39 -28 65t-90 26t-90.5 -26t-28.5 -65q0 -91 134 -119z" />
    <glyph glyph-name="emdash.cap" unicode="&#xe079;" horiz-adv-x="810" 
d="M735 288h-660v66h660v-66z" />
    <glyph glyph-name="endash.cap" unicode="&#xe07a;" horiz-adv-x="530" 
d="M455 288h-380v66h380v-66z" />
    <glyph glyph-name="exclamdown.cap" unicode="&#xe07b;" horiz-adv-x="360" 
d="M242 570h-106v110h106v-110zM242 0h-106v116q0 43 6.5 134.5t13.5 161.5l6 71h53q7 -51 17 -176t10 -191v-116z" />
    <glyph glyph-name="five.denominator" unicode="&#xe084;" 
d="M340 301h-46q-2 10 -4 15t-7 8.5t-14 3.5h-134l-3 -83h87q72 0 106.5 -29.5t34.5 -98.5q0 -62 -43 -93t-117 -31q-87 0 -146 44l4 54h58q14 -22 31.5 -30t52.5 -8q88 0 88 64q0 37 -17.5 52.5t-60.5 15.5h-132l-15 36l6 169h271v-89z" />
    <glyph glyph-name="five.fitted" unicode="&#xe085;" horiz-adv-x="520" 
d="M479 210v-15q0 -99 -58 -152.5t-169 -53.5q-118 0 -189 48v79h70q16 -28 41.5 -40t77.5 -12q140 0 140 130v15q0 56 -28.5 83t-96.5 27h-194l-8 59l12 282h378l-4 -135h-61l-3 34q-2 15 -8 20.5t-24 5.5h-198l-8 -191h124q206 0 206 -184z" />
    <glyph glyph-name="five.numerator" unicode="&#xe086;" 
d="M340 591h-46q-2 10 -4 15t-7 8.5t-14 3.5h-134l-3 -83h87q72 0 106.5 -29.5t34.5 -98.5q0 -62 -43 -93t-117 -31q-87 0 -146 44l4 54h58q14 -22 31.5 -30t52.5 -8q88 0 88 64q0 37 -17.5 52.5t-60.5 15.5h-132l-15 36l6 169h271v-89z" />
    <glyph glyph-name="five.taboldstyle" unicode="&#xe087;" horiz-adv-x="520" 
d="M479 70v-15q0 -99 -58 -152.5t-169 -53.5q-118 0 -189 48v79h70q16 -28 41.5 -40t77.5 -12q140 0 140 130v15q0 56 -28.5 83t-96.5 27h-194l-8 59l12 282h378l-4 -135h-61l-3 34q-2 15 -8 20.5t-24 5.5h-198l-8 -191h124q206 0 206 -184z" />
    <glyph glyph-name="florin.taboldstyle" unicode="&#xe088;" horiz-adv-x="520" 
d="M145 -189h-42q-6 11 -13 26.5t-10 20.5v24h33q46 0 74.5 26.5t28.5 69.5v437h-98v65h98v77q0 76 46 119.5t129 43.5h25l24 -46v-25h-32q-57 0 -83.5 -25t-26.5 -67v-77h126v-65h-126v-437q0 -64 -38.5 -115.5t-114.5 -51.5z" />
    <glyph glyph-name="four.denominator" unicode="&#xe089;" 
d="M356 0h-175v37l32 4q14 1 19 12.5t5 42.5h-191v52l175 242h86v-237h56v-57h-56q0 -34 5.5 -44.5t23.5 -12.5l20 -3v-36zM237 153v155h-3l-111 -155h114z" />
    <glyph glyph-name="four.fitted" unicode="&#xe08a;" horiz-adv-x="520" 
d="M479 0h-208v50l33 8q17 4 22.5 11.5t5.5 33.5v65h-302v65l278 427h111v-416h77v-76h-77v-65q0 -25 7 -33t27 -13l26 -7v-50zM332 244v317l-199 -317h199z" />
    <glyph glyph-name="four.numerator" unicode="&#xe08b;" 
d="M356 290h-175v37l32 4q14 1 19 12.5t5 42.5h-191v52l175 242h86v-237h56v-57h-56q0 -34 5.5 -44.5t23.5 -12.5l20 -3v-36zM237 443v155h-3l-111 -155h114z" />
    <glyph glyph-name="four.taboldstyle" unicode="&#xe08c;" horiz-adv-x="520" 
d="M479 -130h-208v50l33 8q17 4 22.5 11.5t5.5 33.5v65h-302v65l278 427h111v-416h77v-76h-77v-65q0 -25 7 -33t27 -13l26 -7v-50zM332 114v317l-199 -317h199z" />
    <glyph glyph-name="franc.taboldstyle" unicode="&#xe08d;" horiz-adv-x="520" 
d="M267 0h-202v50l23 5q19 4 27.5 13t8.5 33v69h-88v45h88v70h-88v45h88v89q0 25 -6 34.5t-25 12.5l-27 4v50h411v-122h-54l-5 21q-5 21 -13 26.5t-32 5.5h-123q-22 0 -31.5 -10t-9.5 -38v-73h189v-45h-189v-70h189v-45h-189v-69q0 -23 9.5 -32.5t31.5 -14.5l17 -4v-50z" />
    <glyph glyph-name="guillemotleft.cap" unicode="&#xe08e;" horiz-adv-x="600" 
d="M530 88l-40 -27h-7l-193 218v22l193 218h7l40 -27l-129 -202zM310 88l-40 -27h-6l-194 218v22l194 218h6l40 -27l-129 -202z" />
    <glyph glyph-name="guillemotright.cap" unicode="&#xe08f;" horiz-adv-x="600" 
d="M117 61h-7l-40 27l129 202l-129 202l40 27h7l193 -218v-22zM336 61h-6l-40 27l129 202l-129 202l40 27h6l194 -218v-22z" />
    <glyph glyph-name="guilsinglleft.cap" unicode="&#xe090;" horiz-adv-x="380" 
d="M310 88l-40 -27h-6l-194 218v22l194 218h6l40 -27l-129 -202z" />
    <glyph glyph-name="guilsinglright.cap" unicode="&#xe091;" horiz-adv-x="380" 
d="M116 61h-6l-40 27l129 202l-129 202l40 27h6l194 -218v-22z" />
    <glyph glyph-name="h.superior" unicode="&#xe092;" horiz-adv-x="443" 
d="M418 316h-98v241q0 23 -10 38.5t-26 21t-24.5 7t-16.5 1.5q-60 0 -111 -42v-190q0 -19 5 -26t20 -10l20 -4v-37h-152v37l25 5q13 2 16.5 8.5t3.5 26.5v359q0 27 -18 31l-15 4v34h95v-187q41 46 113 46q137 0 137 -122v-165q0 -15 1 -20.5t5 -9.5t14 -6l16 -4v-37z" />
    <glyph glyph-name="hyphen.cap" unicode="&#xe093;" horiz-adv-x="420" 
d="M345 294h-270v76h270v-76z" />
    <glyph glyph-name="hyphen.denominator" unicode="&#xe094;" horiz-adv-x="350" 
d="M285 162h-220v61h220v-61z" />
    <glyph glyph-name="hyphen.numerator" unicode="&#xe095;" horiz-adv-x="350" 
d="M285 452h-220v61h220v-61z" />
    <glyph glyph-name="k.alt" unicode="&#xe096;" horiz-adv-x="556" 
d="M534 68l5 -52q-32 -18 -73 -18q-35 0 -59.5 14t-49.5 56l-94 158l-89 -87v-139h-142v49l33 6q17 3 22 11.5t5 35.5v514q0 28 -21 32l-24 6v46h127v-461l230 241h97v-47q-46 -17 -51 -22l-124 -131l125 -195q11 -17 40 -17h43z" />
    <glyph glyph-name="kcommaaccent.alt" unicode="&#xe097;" horiz-adv-x="556" 
d="M534 68l5 -52q-32 -18 -73 -18q-35 0 -59.5 14t-49.5 56l-94 158l-89 -87v-139h-142v49l33 6q17 3 22 11.5t5 35.5v514q0 28 -21 32l-24 6v46h127v-461l230 241h97v-47q-46 -17 -51 -22l-124 -131l125 -195q11 -17 40 -17h43zM281 -275h-56l40 126q0 18 -10 19l-23 3v77
h99v-95z" />
    <glyph glyph-name="lira.taboldstyle" unicode="&#xe098;" horiz-adv-x="520" 
d="M466 0h-424v60l49 8q22 4 27.5 14t5.5 43v45h-88v45h88v70h-88v45h88v21q0 84 49.5 132t139.5 48q67 0 151 -30v-75h-52q-30 30 -100 30q-106 0 -106 -105v-21h192v-45h-192v-70h192v-45h-192v-50q0 -29 9.5 -39.5t32.5 -10.5h89q34 0 44 7t15 26l6 22h64v-125z" />
    <glyph glyph-name="longs_h" unicode="&#xe099;" horiz-adv-x="918" 
d="M894 0h-131v321q0 31 -13.5 51.5t-35 27.5t-32.5 9t-22 2q-81 0 -148 -55v-254q0 -26 7 -35t26 -13l27 -5v-49h-202v49l33 6q17 3 22 11.5t5 35.5v506q0 21 -5.5 29.5t-19.5 11.5l-20 5v46h127v-277q26 29 66.5 45.5t84.5 16.5q15 0 26 -1t35.5 -5t43 -14.5t37.5 -27.5
t29.5 -46.5t10.5 -68.5v-220q0 -27 4 -35.5t23 -12.5l22 -5v-49zM264 0h-212v49l33 6q17 3 22 11.5t5 35.5v313h-87v65h87v74q0 73 41 109.5t109 36.5q60 0 111 -21l-8 -68h-37q-31 18 -61 18q-41 0 -57 -18.5t-16 -55.5v-453q0 -26 7 -36t26 -12l37 -5v-49z" />
    </font>
</defs>
</svg>
